M48
; DRILL file {KiCad 5.1.6} date Wed Aug  5 12:53:04 2020
; FORMAT={-:-/ absolute / inch / decimal}
; #@! TF.CreationDate,2020-08-05T12:53:04+02:00
; #@! TF.GenerationSoftware,Kicad,Pcbnew,5.1.6
; #@! TF.FileFunction,Plated,1,2,PTH
FMAT,2
INCH
T1C0.0157
T2C0.0181
T3C0.0354
T4C0.0394
T5C0.0433
%
G90
G05
T1
X3.375Y-2.5
X3.375Y-3.425
X3.925Y-5.775
X4.175Y-5.775
X5.625Y-3.45
X5.625Y-4.35
X6.325Y-3.675
T2
X3.4477Y-2.6426
X3.4477Y-2.9874
X5.5846Y-3.8126
X5.5846Y-4.1574
X5.5923Y-2.9726
X5.5923Y-3.3174
X3.3877Y-3.5926
X3.3877Y-3.9374
T3
X4.25Y-6.075
X4.25Y-6.175
X5.875Y-6.075
X5.875Y-6.175
X2.85Y-5.55
X2.85Y-5.65
X5.15Y-6.075
X5.15Y-6.175
X3.45Y-6.075
X3.45Y-6.175
T4
X3.85Y-4.725
X3.85Y-5.325
X3.95Y-4.725
X3.95Y-5.325
X4.05Y-4.725
X4.05Y-5.325
X4.15Y-4.725
X4.15Y-5.325
X4.25Y-4.725
X4.25Y-5.325
X4.35Y-4.725
X4.35Y-5.325
X4.45Y-4.725
X4.45Y-5.325
X4.55Y-4.725
X4.55Y-5.325
X4.65Y-4.725
X4.65Y-5.325
X4.75Y-4.725
X4.75Y-5.325
X4.85Y-4.725
X4.85Y-5.325
X4.95Y-4.725
X4.95Y-5.325
X5.05Y-4.725
X5.05Y-5.325
X5.15Y-4.725
X5.15Y-5.325
X5.25Y-4.725
X5.25Y-5.325
X5.35Y-4.725
X5.35Y-5.325
X5.45Y-4.725
X5.45Y-5.325
X5.55Y-4.725
X5.55Y-5.325
X5.65Y-4.725
X5.65Y-5.325
X5.75Y-4.725
X5.75Y-5.325
X3.1Y-4.5
X3.1Y-4.6
X3.1Y-4.7
T5
X5.45Y-5.9691
X5.45Y-6.225
X5.6272Y-5.9691
X5.6272Y-6.225
X3.0Y-5.9441
X3.0Y-6.2
X3.1772Y-5.9441
X3.1772Y-6.2
X4.6728Y-5.95
X4.6728Y-6.2059
X4.85Y-5.95
X4.85Y-6.2059
X3.825Y-5.9441
X3.825Y-6.2
X4.0022Y-5.9441
X4.0022Y-6.2
T0
M30
