%TF.GenerationSoftware,KiCad,Pcbnew,5.1.6*%
%TF.CreationDate,2020-08-01T20:23:43+02:00*%
%TF.ProjectId,AntSwitcher,416e7453-7769-4746-9368-65722e6b6963,rev?*%
%TF.SameCoordinates,Original*%
%TF.FileFunction,Legend,Top*%
%TF.FilePolarity,Positive*%
%FSLAX46Y46*%
G04 Gerber Fmt 4.6, Leading zero omitted, Abs format (unit mm)*
G04 Created by KiCad (PCBNEW 5.1.6) date 2020-08-01 20:23:43*
%MOMM*%
%LPD*%
G01*
G04 APERTURE LIST*
%ADD10C,0.150000*%
%ADD11C,0.120000*%
%ADD12C,0.100000*%
G04 APERTURE END LIST*
D10*
X138715952Y-148756666D02*
X139192142Y-148756666D01*
X138620714Y-149042380D02*
X138954047Y-148042380D01*
X139287380Y-149042380D01*
X139620714Y-149042380D02*
X139620714Y-148042380D01*
X140192142Y-149042380D01*
X140192142Y-148042380D01*
X140525476Y-148042380D02*
X141096904Y-148042380D01*
X140811190Y-149042380D02*
X140811190Y-148042380D01*
X141382619Y-148137619D02*
X141430238Y-148090000D01*
X141525476Y-148042380D01*
X141763571Y-148042380D01*
X141858809Y-148090000D01*
X141906428Y-148137619D01*
X141954047Y-148232857D01*
X141954047Y-148328095D01*
X141906428Y-148470952D01*
X141335000Y-149042380D01*
X141954047Y-149042380D01*
X119665952Y-148121666D02*
X120142142Y-148121666D01*
X119570714Y-148407380D02*
X119904047Y-147407380D01*
X120237380Y-148407380D01*
X120570714Y-148407380D02*
X120570714Y-147407380D01*
X121142142Y-148407380D01*
X121142142Y-147407380D01*
X121475476Y-147407380D02*
X122046904Y-147407380D01*
X121761190Y-148407380D02*
X121761190Y-147407380D01*
X122904047Y-148407380D02*
X122332619Y-148407380D01*
X122618333Y-148407380D02*
X122618333Y-147407380D01*
X122523095Y-147550238D01*
X122427857Y-147645476D01*
X122332619Y-147693095D01*
X76366904Y-147407380D02*
X76938333Y-147407380D01*
X76652619Y-148407380D02*
X76652619Y-147407380D01*
X77843095Y-148407380D02*
X77509761Y-147931190D01*
X77271666Y-148407380D02*
X77271666Y-147407380D01*
X77652619Y-147407380D01*
X77747857Y-147455000D01*
X77795476Y-147502619D01*
X77843095Y-147597857D01*
X77843095Y-147740714D01*
X77795476Y-147835952D01*
X77747857Y-147883571D01*
X77652619Y-147931190D01*
X77271666Y-147931190D01*
X78176428Y-147407380D02*
X78843095Y-148407380D01*
X78843095Y-147407380D02*
X78176428Y-148407380D01*
X79747857Y-148407380D02*
X79176428Y-148407380D01*
X79462142Y-148407380D02*
X79462142Y-147407380D01*
X79366904Y-147550238D01*
X79271666Y-147645476D01*
X79176428Y-147693095D01*
X97321904Y-147407380D02*
X97893333Y-147407380D01*
X97607619Y-148407380D02*
X97607619Y-147407380D01*
X98798095Y-148407380D02*
X98464761Y-147931190D01*
X98226666Y-148407380D02*
X98226666Y-147407380D01*
X98607619Y-147407380D01*
X98702857Y-147455000D01*
X98750476Y-147502619D01*
X98798095Y-147597857D01*
X98798095Y-147740714D01*
X98750476Y-147835952D01*
X98702857Y-147883571D01*
X98607619Y-147931190D01*
X98226666Y-147931190D01*
X99131428Y-147407380D02*
X99798095Y-148407380D01*
X99798095Y-147407380D02*
X99131428Y-148407380D01*
X100131428Y-147502619D02*
X100179047Y-147455000D01*
X100274285Y-147407380D01*
X100512380Y-147407380D01*
X100607619Y-147455000D01*
X100655238Y-147502619D01*
X100702857Y-147597857D01*
X100702857Y-147693095D01*
X100655238Y-147835952D01*
X100083809Y-148407380D01*
X100702857Y-148407380D01*
D11*
%TO.C,D1*%
X110450000Y-155575000D02*
G75*
G03*
X110450000Y-155575000I-2500000J0D01*
G01*
X106405000Y-158135000D02*
X109495000Y-158135000D01*
X107950462Y-152585000D02*
G75*
G03*
X106405170Y-158135000I-462J-2990000D01*
G01*
X107949538Y-152585000D02*
G75*
G02*
X109494830Y-158135000I462J-2990000D01*
G01*
%TO.C,D2*%
X86085000Y-158135000D02*
X89175000Y-158135000D01*
X90130000Y-155575000D02*
G75*
G03*
X90130000Y-155575000I-2500000J0D01*
G01*
X87629538Y-152585000D02*
G75*
G02*
X89174830Y-158135000I462J-2990000D01*
G01*
X87630462Y-152585000D02*
G75*
G03*
X86085170Y-158135000I-462J-2990000D01*
G01*
%TO.C,D3*%
X70845000Y-144800000D02*
X73935000Y-144800000D01*
X74890000Y-142240000D02*
G75*
G03*
X74890000Y-142240000I-2500000J0D01*
G01*
X72389538Y-139250000D02*
G75*
G02*
X73934830Y-144800000I462J-2990000D01*
G01*
X72390462Y-139250000D02*
G75*
G03*
X70845170Y-144800000I-462J-2990000D01*
G01*
%TO.C,D4*%
X133310000Y-155575000D02*
G75*
G03*
X133310000Y-155575000I-2500000J0D01*
G01*
X129265000Y-158135000D02*
X132355000Y-158135000D01*
X130810462Y-152585000D02*
G75*
G03*
X129265170Y-158135000I-462J-2990000D01*
G01*
X130809538Y-152585000D02*
G75*
G02*
X132354830Y-158135000I462J-2990000D01*
G01*
%TO.C,D5*%
X92385000Y-82425000D02*
X92385000Y-83885000D01*
X89225000Y-82425000D02*
X89225000Y-84585000D01*
X89225000Y-82425000D02*
X90155000Y-82425000D01*
X92385000Y-82425000D02*
X91455000Y-82425000D01*
%TO.C,D6*%
X91115000Y-106555000D02*
X90185000Y-106555000D01*
X87955000Y-106555000D02*
X88885000Y-106555000D01*
X87955000Y-106555000D02*
X87955000Y-108715000D01*
X91115000Y-106555000D02*
X91115000Y-108015000D01*
%TO.C,D7*%
X147680000Y-158135000D02*
X150770000Y-158135000D01*
X151725000Y-155575000D02*
G75*
G03*
X151725000Y-155575000I-2500000J0D01*
G01*
X149224538Y-152585000D02*
G75*
G02*
X150769830Y-158135000I462J-2990000D01*
G01*
X149225462Y-152585000D02*
G75*
G03*
X147680170Y-158135000I-462J-2990000D01*
G01*
%TO.C,D8*%
X136850000Y-69340000D02*
X137780000Y-69340000D01*
X140010000Y-69340000D02*
X139080000Y-69340000D01*
X140010000Y-69340000D02*
X140010000Y-67180000D01*
X136850000Y-69340000D02*
X136850000Y-67880000D01*
%TO.C,D9*%
X137485000Y-91565000D02*
X137485000Y-90105000D01*
X140645000Y-91565000D02*
X140645000Y-89405000D01*
X140645000Y-91565000D02*
X139715000Y-91565000D01*
X137485000Y-91565000D02*
X138415000Y-91565000D01*
%TO.C,J1*%
X85990000Y-123670000D02*
X85990000Y-126270000D01*
X71290000Y-123670000D02*
X85990000Y-123670000D01*
X85990000Y-132870000D02*
X84090000Y-132870000D01*
X85990000Y-130170000D02*
X85990000Y-132870000D01*
X71290000Y-132870000D02*
X71290000Y-123670000D01*
X80090000Y-132870000D02*
X71290000Y-132870000D01*
%TO.C,JP1*%
X80070000Y-120710000D02*
X78740000Y-120710000D01*
X80070000Y-119380000D02*
X80070000Y-120710000D01*
X80070000Y-118110000D02*
X77410000Y-118110000D01*
X77410000Y-118110000D02*
X77410000Y-112970000D01*
X80070000Y-118110000D02*
X80070000Y-112970000D01*
X80070000Y-112970000D02*
X77410000Y-112970000D01*
D10*
%TO.C,K1*%
X98288000Y-64501000D02*
X98288000Y-64101000D01*
X98288000Y-64101000D02*
X90788000Y-64101000D01*
X90788000Y-64101000D02*
X90788000Y-64501000D01*
X90588000Y-64501000D02*
X90588000Y-63901000D01*
X90588000Y-63901000D02*
X91088000Y-63901000D01*
X98288000Y-78601000D02*
X98288000Y-78901000D01*
X98288000Y-78901000D02*
X90788000Y-78901000D01*
X90788000Y-78901000D02*
X90788000Y-78501000D01*
X98288000Y-78601000D02*
X98288000Y-78501000D01*
X91088000Y-63901000D02*
X91188000Y-63901000D01*
%TO.C,K2*%
X97018000Y-88631000D02*
X97018000Y-88231000D01*
X97018000Y-88231000D02*
X89518000Y-88231000D01*
X89518000Y-88231000D02*
X89518000Y-88631000D01*
X89318000Y-88631000D02*
X89318000Y-88031000D01*
X89318000Y-88031000D02*
X89818000Y-88031000D01*
X97018000Y-102731000D02*
X97018000Y-103031000D01*
X97018000Y-103031000D02*
X89518000Y-103031000D01*
X89518000Y-103031000D02*
X89518000Y-102631000D01*
X97018000Y-102731000D02*
X97018000Y-102631000D01*
X89818000Y-88031000D02*
X89918000Y-88031000D01*
%TO.C,K3*%
X138020000Y-87483000D02*
X137920000Y-87483000D01*
X130820000Y-72783000D02*
X130820000Y-72883000D01*
X138320000Y-72483000D02*
X138320000Y-72883000D01*
X130820000Y-72483000D02*
X138320000Y-72483000D01*
X130820000Y-72783000D02*
X130820000Y-72483000D01*
X138520000Y-87483000D02*
X138020000Y-87483000D01*
X138520000Y-86883000D02*
X138520000Y-87483000D01*
X138320000Y-87283000D02*
X138320000Y-86883000D01*
X130820000Y-87283000D02*
X138320000Y-87283000D01*
X130820000Y-86883000D02*
X130820000Y-87283000D01*
%TO.C,K4*%
X138274000Y-108819000D02*
X138174000Y-108819000D01*
X131074000Y-94119000D02*
X131074000Y-94219000D01*
X138574000Y-93819000D02*
X138574000Y-94219000D01*
X131074000Y-93819000D02*
X138574000Y-93819000D01*
X131074000Y-94119000D02*
X131074000Y-93819000D01*
X138774000Y-108819000D02*
X138274000Y-108819000D01*
X138774000Y-108219000D02*
X138774000Y-108819000D01*
X138574000Y-108619000D02*
X138574000Y-108219000D01*
X131074000Y-108619000D02*
X138574000Y-108619000D01*
X131074000Y-108219000D02*
X131074000Y-108619000D01*
D11*
%TO.C,Q1*%
X85400000Y-106555000D02*
X84470000Y-106555000D01*
X82240000Y-106555000D02*
X83170000Y-106555000D01*
X82240000Y-106555000D02*
X82240000Y-108715000D01*
X85400000Y-106555000D02*
X85400000Y-108015000D01*
%TO.C,Q2*%
X86670000Y-82425000D02*
X86670000Y-83885000D01*
X83510000Y-82425000D02*
X83510000Y-84585000D01*
X83510000Y-82425000D02*
X84440000Y-82425000D01*
X86670000Y-82425000D02*
X85740000Y-82425000D01*
%TO.C,Q3*%
X130500000Y-69340000D02*
X131430000Y-69340000D01*
X133660000Y-69340000D02*
X132730000Y-69340000D01*
X133660000Y-69340000D02*
X133660000Y-67180000D01*
X130500000Y-69340000D02*
X130500000Y-67880000D01*
%TO.C,Q4*%
X143200000Y-91565000D02*
X143200000Y-90105000D01*
X146360000Y-91565000D02*
X146360000Y-89405000D01*
X146360000Y-91565000D02*
X145430000Y-91565000D01*
X143200000Y-91565000D02*
X144130000Y-91565000D01*
%TO.C,R1*%
X108630000Y-149360000D02*
X108630000Y-150360000D01*
X107270000Y-150360000D02*
X107270000Y-149360000D01*
%TO.C,R2*%
X86950000Y-150360000D02*
X86950000Y-149360000D01*
X88310000Y-149360000D02*
X88310000Y-150360000D01*
%TO.C,R3*%
X72640000Y-136480000D02*
X73640000Y-136480000D01*
X73640000Y-137840000D02*
X72640000Y-137840000D01*
%TO.C,R4*%
X131490000Y-149475000D02*
X131490000Y-150475000D01*
X130130000Y-150475000D02*
X130130000Y-149475000D01*
%TO.C,R5*%
X149905000Y-149475000D02*
X149905000Y-150475000D01*
X148545000Y-150475000D02*
X148545000Y-149475000D01*
%TO.C,SW1*%
X79200000Y-150730000D02*
X77700000Y-150730000D01*
X75200000Y-151980000D02*
X75200000Y-156480000D01*
X77700000Y-157730000D02*
X79200000Y-157730000D01*
X81700000Y-156480000D02*
X81700000Y-151980000D01*
%TO.C,SW2*%
X102655000Y-156480000D02*
X102655000Y-151980000D01*
X98655000Y-157730000D02*
X100155000Y-157730000D01*
X96155000Y-151980000D02*
X96155000Y-156480000D01*
X100155000Y-150730000D02*
X98655000Y-150730000D01*
%TO.C,SW3*%
X143930000Y-157115000D02*
X143930000Y-152615000D01*
X139930000Y-158365000D02*
X141430000Y-158365000D01*
X137430000Y-152615000D02*
X137430000Y-157115000D01*
X141430000Y-151365000D02*
X139930000Y-151365000D01*
%TO.C,SW4*%
X120190000Y-157880000D02*
X121690000Y-157880000D01*
X124190000Y-156630000D02*
X124190000Y-152130000D01*
X121690000Y-150880000D02*
X120190000Y-150880000D01*
X117690000Y-152130000D02*
X117690000Y-156630000D01*
D12*
%TO.C,U1*%
G36*
X148590000Y-125095000D02*
G01*
X148590000Y-130175000D01*
X147320000Y-130175000D01*
X147320000Y-125095000D01*
X148590000Y-125095000D01*
G37*
X148590000Y-125095000D02*
X148590000Y-130175000D01*
X147320000Y-130175000D01*
X147320000Y-125095000D01*
X148590000Y-125095000D01*
D10*
X148590000Y-139065000D02*
X95250000Y-139065000D01*
X148590000Y-116205000D02*
X148590000Y-139065000D01*
X95250000Y-116205000D02*
X148590000Y-116205000D01*
X95250000Y-139065000D02*
X95250000Y-116205000D01*
%TO.C,D1*%
X104442380Y-156313095D02*
X103442380Y-156313095D01*
X103442380Y-156075000D01*
X103490000Y-155932142D01*
X103585238Y-155836904D01*
X103680476Y-155789285D01*
X103870952Y-155741666D01*
X104013809Y-155741666D01*
X104204285Y-155789285D01*
X104299523Y-155836904D01*
X104394761Y-155932142D01*
X104442380Y-156075000D01*
X104442380Y-156313095D01*
X104442380Y-154789285D02*
X104442380Y-155360714D01*
X104442380Y-155075000D02*
X103442380Y-155075000D01*
X103585238Y-155170238D01*
X103680476Y-155265476D01*
X103728095Y-155360714D01*
%TO.C,D2*%
X84122380Y-156313095D02*
X83122380Y-156313095D01*
X83122380Y-156075000D01*
X83170000Y-155932142D01*
X83265238Y-155836904D01*
X83360476Y-155789285D01*
X83550952Y-155741666D01*
X83693809Y-155741666D01*
X83884285Y-155789285D01*
X83979523Y-155836904D01*
X84074761Y-155932142D01*
X84122380Y-156075000D01*
X84122380Y-156313095D01*
X83217619Y-155360714D02*
X83170000Y-155313095D01*
X83122380Y-155217857D01*
X83122380Y-154979761D01*
X83170000Y-154884523D01*
X83217619Y-154836904D01*
X83312857Y-154789285D01*
X83408095Y-154789285D01*
X83550952Y-154836904D01*
X84122380Y-155408333D01*
X84122380Y-154789285D01*
%TO.C,D3*%
X68882380Y-142978095D02*
X67882380Y-142978095D01*
X67882380Y-142740000D01*
X67930000Y-142597142D01*
X68025238Y-142501904D01*
X68120476Y-142454285D01*
X68310952Y-142406666D01*
X68453809Y-142406666D01*
X68644285Y-142454285D01*
X68739523Y-142501904D01*
X68834761Y-142597142D01*
X68882380Y-142740000D01*
X68882380Y-142978095D01*
X67882380Y-142073333D02*
X67882380Y-141454285D01*
X68263333Y-141787619D01*
X68263333Y-141644761D01*
X68310952Y-141549523D01*
X68358571Y-141501904D01*
X68453809Y-141454285D01*
X68691904Y-141454285D01*
X68787142Y-141501904D01*
X68834761Y-141549523D01*
X68882380Y-141644761D01*
X68882380Y-141930476D01*
X68834761Y-142025714D01*
X68787142Y-142073333D01*
%TO.C,D4*%
X127302380Y-156313095D02*
X126302380Y-156313095D01*
X126302380Y-156075000D01*
X126350000Y-155932142D01*
X126445238Y-155836904D01*
X126540476Y-155789285D01*
X126730952Y-155741666D01*
X126873809Y-155741666D01*
X127064285Y-155789285D01*
X127159523Y-155836904D01*
X127254761Y-155932142D01*
X127302380Y-156075000D01*
X127302380Y-156313095D01*
X126635714Y-154884523D02*
X127302380Y-154884523D01*
X126254761Y-155122619D02*
X126969047Y-155360714D01*
X126969047Y-154741666D01*
%TO.C,D5*%
X88757380Y-83923095D02*
X87757380Y-83923095D01*
X87757380Y-83685000D01*
X87805000Y-83542142D01*
X87900238Y-83446904D01*
X87995476Y-83399285D01*
X88185952Y-83351666D01*
X88328809Y-83351666D01*
X88519285Y-83399285D01*
X88614523Y-83446904D01*
X88709761Y-83542142D01*
X88757380Y-83685000D01*
X88757380Y-83923095D01*
X87757380Y-82446904D02*
X87757380Y-82923095D01*
X88233571Y-82970714D01*
X88185952Y-82923095D01*
X88138333Y-82827857D01*
X88138333Y-82589761D01*
X88185952Y-82494523D01*
X88233571Y-82446904D01*
X88328809Y-82399285D01*
X88566904Y-82399285D01*
X88662142Y-82446904D01*
X88709761Y-82494523D01*
X88757380Y-82589761D01*
X88757380Y-82827857D01*
X88709761Y-82923095D01*
X88662142Y-82970714D01*
%TO.C,D6*%
X87487380Y-108053095D02*
X86487380Y-108053095D01*
X86487380Y-107815000D01*
X86535000Y-107672142D01*
X86630238Y-107576904D01*
X86725476Y-107529285D01*
X86915952Y-107481666D01*
X87058809Y-107481666D01*
X87249285Y-107529285D01*
X87344523Y-107576904D01*
X87439761Y-107672142D01*
X87487380Y-107815000D01*
X87487380Y-108053095D01*
X86487380Y-106624523D02*
X86487380Y-106815000D01*
X86535000Y-106910238D01*
X86582619Y-106957857D01*
X86725476Y-107053095D01*
X86915952Y-107100714D01*
X87296904Y-107100714D01*
X87392142Y-107053095D01*
X87439761Y-107005476D01*
X87487380Y-106910238D01*
X87487380Y-106719761D01*
X87439761Y-106624523D01*
X87392142Y-106576904D01*
X87296904Y-106529285D01*
X87058809Y-106529285D01*
X86963571Y-106576904D01*
X86915952Y-106624523D01*
X86868333Y-106719761D01*
X86868333Y-106910238D01*
X86915952Y-107005476D01*
X86963571Y-107053095D01*
X87058809Y-107100714D01*
%TO.C,D7*%
X145717380Y-156313095D02*
X144717380Y-156313095D01*
X144717380Y-156075000D01*
X144765000Y-155932142D01*
X144860238Y-155836904D01*
X144955476Y-155789285D01*
X145145952Y-155741666D01*
X145288809Y-155741666D01*
X145479285Y-155789285D01*
X145574523Y-155836904D01*
X145669761Y-155932142D01*
X145717380Y-156075000D01*
X145717380Y-156313095D01*
X144717380Y-155408333D02*
X144717380Y-154741666D01*
X145717380Y-155170238D01*
%TO.C,D8*%
X141382380Y-69318095D02*
X140382380Y-69318095D01*
X140382380Y-69080000D01*
X140430000Y-68937142D01*
X140525238Y-68841904D01*
X140620476Y-68794285D01*
X140810952Y-68746666D01*
X140953809Y-68746666D01*
X141144285Y-68794285D01*
X141239523Y-68841904D01*
X141334761Y-68937142D01*
X141382380Y-69080000D01*
X141382380Y-69318095D01*
X140810952Y-68175238D02*
X140763333Y-68270476D01*
X140715714Y-68318095D01*
X140620476Y-68365714D01*
X140572857Y-68365714D01*
X140477619Y-68318095D01*
X140430000Y-68270476D01*
X140382380Y-68175238D01*
X140382380Y-67984761D01*
X140430000Y-67889523D01*
X140477619Y-67841904D01*
X140572857Y-67794285D01*
X140620476Y-67794285D01*
X140715714Y-67841904D01*
X140763333Y-67889523D01*
X140810952Y-67984761D01*
X140810952Y-68175238D01*
X140858571Y-68270476D01*
X140906190Y-68318095D01*
X141001428Y-68365714D01*
X141191904Y-68365714D01*
X141287142Y-68318095D01*
X141334761Y-68270476D01*
X141382380Y-68175238D01*
X141382380Y-67984761D01*
X141334761Y-67889523D01*
X141287142Y-67841904D01*
X141191904Y-67794285D01*
X141001428Y-67794285D01*
X140906190Y-67841904D01*
X140858571Y-67889523D01*
X140810952Y-67984761D01*
%TO.C,D9*%
X142017380Y-91543095D02*
X141017380Y-91543095D01*
X141017380Y-91305000D01*
X141065000Y-91162142D01*
X141160238Y-91066904D01*
X141255476Y-91019285D01*
X141445952Y-90971666D01*
X141588809Y-90971666D01*
X141779285Y-91019285D01*
X141874523Y-91066904D01*
X141969761Y-91162142D01*
X142017380Y-91305000D01*
X142017380Y-91543095D01*
X142017380Y-90495476D02*
X142017380Y-90305000D01*
X141969761Y-90209761D01*
X141922142Y-90162142D01*
X141779285Y-90066904D01*
X141588809Y-90019285D01*
X141207857Y-90019285D01*
X141112619Y-90066904D01*
X141065000Y-90114523D01*
X141017380Y-90209761D01*
X141017380Y-90400238D01*
X141065000Y-90495476D01*
X141112619Y-90543095D01*
X141207857Y-90590714D01*
X141445952Y-90590714D01*
X141541190Y-90543095D01*
X141588809Y-90495476D01*
X141636428Y-90400238D01*
X141636428Y-90209761D01*
X141588809Y-90114523D01*
X141541190Y-90066904D01*
X141445952Y-90019285D01*
%TO.C,J1*%
X76306666Y-133472380D02*
X76306666Y-134186666D01*
X76259047Y-134329523D01*
X76163809Y-134424761D01*
X76020952Y-134472380D01*
X75925714Y-134472380D01*
X77306666Y-134472380D02*
X76735238Y-134472380D01*
X77020952Y-134472380D02*
X77020952Y-133472380D01*
X76925714Y-133615238D01*
X76830476Y-133710476D01*
X76735238Y-133758095D01*
%TO.C,J2*%
X83798666Y-78063380D02*
X83798666Y-78777666D01*
X83751047Y-78920523D01*
X83655809Y-79015761D01*
X83512952Y-79063380D01*
X83417714Y-79063380D01*
X84227238Y-78158619D02*
X84274857Y-78111000D01*
X84370095Y-78063380D01*
X84608190Y-78063380D01*
X84703428Y-78111000D01*
X84751047Y-78158619D01*
X84798666Y-78253857D01*
X84798666Y-78349095D01*
X84751047Y-78491952D01*
X84179619Y-79063380D01*
X84798666Y-79063380D01*
%TO.C,J3*%
X82274666Y-102193380D02*
X82274666Y-102907666D01*
X82227047Y-103050523D01*
X82131809Y-103145761D01*
X81988952Y-103193380D01*
X81893714Y-103193380D01*
X82655619Y-102193380D02*
X83274666Y-102193380D01*
X82941333Y-102574333D01*
X83084190Y-102574333D01*
X83179428Y-102621952D01*
X83227047Y-102669571D01*
X83274666Y-102764809D01*
X83274666Y-103002904D01*
X83227047Y-103098142D01*
X83179428Y-103145761D01*
X83084190Y-103193380D01*
X82798476Y-103193380D01*
X82703238Y-103145761D01*
X82655619Y-103098142D01*
%TO.C,J4*%
X145150666Y-72225380D02*
X145150666Y-72939666D01*
X145103047Y-73082523D01*
X145007809Y-73177761D01*
X144864952Y-73225380D01*
X144769714Y-73225380D01*
X146055428Y-72558714D02*
X146055428Y-73225380D01*
X145817333Y-72177761D02*
X145579238Y-72892047D01*
X146198285Y-72892047D01*
%TO.C,J5*%
X144954666Y-93561380D02*
X144954666Y-94275666D01*
X144907047Y-94418523D01*
X144811809Y-94513761D01*
X144668952Y-94561380D01*
X144573714Y-94561380D01*
X145907047Y-93561380D02*
X145430857Y-93561380D01*
X145383238Y-94037571D01*
X145430857Y-93989952D01*
X145526095Y-93942333D01*
X145764190Y-93942333D01*
X145859428Y-93989952D01*
X145907047Y-94037571D01*
X145954666Y-94132809D01*
X145954666Y-94370904D01*
X145907047Y-94466142D01*
X145859428Y-94513761D01*
X145764190Y-94561380D01*
X145526095Y-94561380D01*
X145430857Y-94513761D01*
X145383238Y-94466142D01*
%TO.C,JP1*%
X77906666Y-121162380D02*
X77906666Y-121876666D01*
X77859047Y-122019523D01*
X77763809Y-122114761D01*
X77620952Y-122162380D01*
X77525714Y-122162380D01*
X78382857Y-122162380D02*
X78382857Y-121162380D01*
X78763809Y-121162380D01*
X78859047Y-121210000D01*
X78906666Y-121257619D01*
X78954285Y-121352857D01*
X78954285Y-121495714D01*
X78906666Y-121590952D01*
X78859047Y-121638571D01*
X78763809Y-121686190D01*
X78382857Y-121686190D01*
X79906666Y-122162380D02*
X79335238Y-122162380D01*
X79620952Y-122162380D02*
X79620952Y-121162380D01*
X79525714Y-121305238D01*
X79430476Y-121400476D01*
X79335238Y-121448095D01*
%TO.C,K1*%
X93809904Y-63063380D02*
X93809904Y-62063380D01*
X94381333Y-63063380D02*
X93952761Y-62491952D01*
X94381333Y-62063380D02*
X93809904Y-62634809D01*
X95333714Y-63063380D02*
X94762285Y-63063380D01*
X95048000Y-63063380D02*
X95048000Y-62063380D01*
X94952761Y-62206238D01*
X94857523Y-62301476D01*
X94762285Y-62349095D01*
%TO.C,K2*%
X92539904Y-87193380D02*
X92539904Y-86193380D01*
X93111333Y-87193380D02*
X92682761Y-86621952D01*
X93111333Y-86193380D02*
X92539904Y-86764809D01*
X93492285Y-86288619D02*
X93539904Y-86241000D01*
X93635142Y-86193380D01*
X93873238Y-86193380D01*
X93968476Y-86241000D01*
X94016095Y-86288619D01*
X94063714Y-86383857D01*
X94063714Y-86479095D01*
X94016095Y-86621952D01*
X93444666Y-87193380D01*
X94063714Y-87193380D01*
%TO.C,K3*%
X133821904Y-89225380D02*
X133821904Y-88225380D01*
X134393333Y-89225380D02*
X133964761Y-88653952D01*
X134393333Y-88225380D02*
X133821904Y-88796809D01*
X134726666Y-88225380D02*
X135345714Y-88225380D01*
X135012380Y-88606333D01*
X135155238Y-88606333D01*
X135250476Y-88653952D01*
X135298095Y-88701571D01*
X135345714Y-88796809D01*
X135345714Y-89034904D01*
X135298095Y-89130142D01*
X135250476Y-89177761D01*
X135155238Y-89225380D01*
X134869523Y-89225380D01*
X134774285Y-89177761D01*
X134726666Y-89130142D01*
%TO.C,K4*%
X134075904Y-110561380D02*
X134075904Y-109561380D01*
X134647333Y-110561380D02*
X134218761Y-109989952D01*
X134647333Y-109561380D02*
X134075904Y-110132809D01*
X135504476Y-109894714D02*
X135504476Y-110561380D01*
X135266380Y-109513761D02*
X135028285Y-110228047D01*
X135647333Y-110228047D01*
%TO.C,Q1*%
X81867619Y-107410238D02*
X81820000Y-107505476D01*
X81724761Y-107600714D01*
X81581904Y-107743571D01*
X81534285Y-107838809D01*
X81534285Y-107934047D01*
X81772380Y-107886428D02*
X81724761Y-107981666D01*
X81629523Y-108076904D01*
X81439047Y-108124523D01*
X81105714Y-108124523D01*
X80915238Y-108076904D01*
X80820000Y-107981666D01*
X80772380Y-107886428D01*
X80772380Y-107695952D01*
X80820000Y-107600714D01*
X80915238Y-107505476D01*
X81105714Y-107457857D01*
X81439047Y-107457857D01*
X81629523Y-107505476D01*
X81724761Y-107600714D01*
X81772380Y-107695952D01*
X81772380Y-107886428D01*
X81772380Y-106505476D02*
X81772380Y-107076904D01*
X81772380Y-106791190D02*
X80772380Y-106791190D01*
X80915238Y-106886428D01*
X81010476Y-106981666D01*
X81058095Y-107076904D01*
%TO.C,Q2*%
X83137619Y-83280238D02*
X83090000Y-83375476D01*
X82994761Y-83470714D01*
X82851904Y-83613571D01*
X82804285Y-83708809D01*
X82804285Y-83804047D01*
X83042380Y-83756428D02*
X82994761Y-83851666D01*
X82899523Y-83946904D01*
X82709047Y-83994523D01*
X82375714Y-83994523D01*
X82185238Y-83946904D01*
X82090000Y-83851666D01*
X82042380Y-83756428D01*
X82042380Y-83565952D01*
X82090000Y-83470714D01*
X82185238Y-83375476D01*
X82375714Y-83327857D01*
X82709047Y-83327857D01*
X82899523Y-83375476D01*
X82994761Y-83470714D01*
X83042380Y-83565952D01*
X83042380Y-83756428D01*
X82137619Y-82946904D02*
X82090000Y-82899285D01*
X82042380Y-82804047D01*
X82042380Y-82565952D01*
X82090000Y-82470714D01*
X82137619Y-82423095D01*
X82232857Y-82375476D01*
X82328095Y-82375476D01*
X82470952Y-82423095D01*
X83042380Y-82994523D01*
X83042380Y-82375476D01*
%TO.C,Q3*%
X135127619Y-68675238D02*
X135080000Y-68770476D01*
X134984761Y-68865714D01*
X134841904Y-69008571D01*
X134794285Y-69103809D01*
X134794285Y-69199047D01*
X135032380Y-69151428D02*
X134984761Y-69246666D01*
X134889523Y-69341904D01*
X134699047Y-69389523D01*
X134365714Y-69389523D01*
X134175238Y-69341904D01*
X134080000Y-69246666D01*
X134032380Y-69151428D01*
X134032380Y-68960952D01*
X134080000Y-68865714D01*
X134175238Y-68770476D01*
X134365714Y-68722857D01*
X134699047Y-68722857D01*
X134889523Y-68770476D01*
X134984761Y-68865714D01*
X135032380Y-68960952D01*
X135032380Y-69151428D01*
X134032380Y-68389523D02*
X134032380Y-67770476D01*
X134413333Y-68103809D01*
X134413333Y-67960952D01*
X134460952Y-67865714D01*
X134508571Y-67818095D01*
X134603809Y-67770476D01*
X134841904Y-67770476D01*
X134937142Y-67818095D01*
X134984761Y-67865714D01*
X135032380Y-67960952D01*
X135032380Y-68246666D01*
X134984761Y-68341904D01*
X134937142Y-68389523D01*
%TO.C,Q4*%
X147827619Y-90900238D02*
X147780000Y-90995476D01*
X147684761Y-91090714D01*
X147541904Y-91233571D01*
X147494285Y-91328809D01*
X147494285Y-91424047D01*
X147732380Y-91376428D02*
X147684761Y-91471666D01*
X147589523Y-91566904D01*
X147399047Y-91614523D01*
X147065714Y-91614523D01*
X146875238Y-91566904D01*
X146780000Y-91471666D01*
X146732380Y-91376428D01*
X146732380Y-91185952D01*
X146780000Y-91090714D01*
X146875238Y-90995476D01*
X147065714Y-90947857D01*
X147399047Y-90947857D01*
X147589523Y-90995476D01*
X147684761Y-91090714D01*
X147732380Y-91185952D01*
X147732380Y-91376428D01*
X147065714Y-90090714D02*
X147732380Y-90090714D01*
X146684761Y-90328809D02*
X147399047Y-90566904D01*
X147399047Y-89947857D01*
%TO.C,R1*%
X109852380Y-150026666D02*
X109376190Y-150360000D01*
X109852380Y-150598095D02*
X108852380Y-150598095D01*
X108852380Y-150217142D01*
X108900000Y-150121904D01*
X108947619Y-150074285D01*
X109042857Y-150026666D01*
X109185714Y-150026666D01*
X109280952Y-150074285D01*
X109328571Y-150121904D01*
X109376190Y-150217142D01*
X109376190Y-150598095D01*
X109852380Y-149074285D02*
X109852380Y-149645714D01*
X109852380Y-149360000D02*
X108852380Y-149360000D01*
X108995238Y-149455238D01*
X109090476Y-149550476D01*
X109138095Y-149645714D01*
%TO.C,R2*%
X89532380Y-150026666D02*
X89056190Y-150360000D01*
X89532380Y-150598095D02*
X88532380Y-150598095D01*
X88532380Y-150217142D01*
X88580000Y-150121904D01*
X88627619Y-150074285D01*
X88722857Y-150026666D01*
X88865714Y-150026666D01*
X88960952Y-150074285D01*
X89008571Y-150121904D01*
X89056190Y-150217142D01*
X89056190Y-150598095D01*
X88627619Y-149645714D02*
X88580000Y-149598095D01*
X88532380Y-149502857D01*
X88532380Y-149264761D01*
X88580000Y-149169523D01*
X88627619Y-149121904D01*
X88722857Y-149074285D01*
X88818095Y-149074285D01*
X88960952Y-149121904D01*
X89532380Y-149693333D01*
X89532380Y-149074285D01*
%TO.C,R3*%
X72973333Y-139062380D02*
X72640000Y-138586190D01*
X72401904Y-139062380D02*
X72401904Y-138062380D01*
X72782857Y-138062380D01*
X72878095Y-138110000D01*
X72925714Y-138157619D01*
X72973333Y-138252857D01*
X72973333Y-138395714D01*
X72925714Y-138490952D01*
X72878095Y-138538571D01*
X72782857Y-138586190D01*
X72401904Y-138586190D01*
X73306666Y-138062380D02*
X73925714Y-138062380D01*
X73592380Y-138443333D01*
X73735238Y-138443333D01*
X73830476Y-138490952D01*
X73878095Y-138538571D01*
X73925714Y-138633809D01*
X73925714Y-138871904D01*
X73878095Y-138967142D01*
X73830476Y-139014761D01*
X73735238Y-139062380D01*
X73449523Y-139062380D01*
X73354285Y-139014761D01*
X73306666Y-138967142D01*
%TO.C,R4*%
X132712380Y-150141666D02*
X132236190Y-150475000D01*
X132712380Y-150713095D02*
X131712380Y-150713095D01*
X131712380Y-150332142D01*
X131760000Y-150236904D01*
X131807619Y-150189285D01*
X131902857Y-150141666D01*
X132045714Y-150141666D01*
X132140952Y-150189285D01*
X132188571Y-150236904D01*
X132236190Y-150332142D01*
X132236190Y-150713095D01*
X132045714Y-149284523D02*
X132712380Y-149284523D01*
X131664761Y-149522619D02*
X132379047Y-149760714D01*
X132379047Y-149141666D01*
%TO.C,R5*%
X151127380Y-150141666D02*
X150651190Y-150475000D01*
X151127380Y-150713095D02*
X150127380Y-150713095D01*
X150127380Y-150332142D01*
X150175000Y-150236904D01*
X150222619Y-150189285D01*
X150317857Y-150141666D01*
X150460714Y-150141666D01*
X150555952Y-150189285D01*
X150603571Y-150236904D01*
X150651190Y-150332142D01*
X150651190Y-150713095D01*
X150127380Y-149236904D02*
X150127380Y-149713095D01*
X150603571Y-149760714D01*
X150555952Y-149713095D01*
X150508333Y-149617857D01*
X150508333Y-149379761D01*
X150555952Y-149284523D01*
X150603571Y-149236904D01*
X150698809Y-149189285D01*
X150936904Y-149189285D01*
X151032142Y-149236904D01*
X151079761Y-149284523D01*
X151127380Y-149379761D01*
X151127380Y-149617857D01*
X151079761Y-149713095D01*
X151032142Y-149760714D01*
%TO.C,SW1*%
X74604761Y-155563333D02*
X74652380Y-155420476D01*
X74652380Y-155182380D01*
X74604761Y-155087142D01*
X74557142Y-155039523D01*
X74461904Y-154991904D01*
X74366666Y-154991904D01*
X74271428Y-155039523D01*
X74223809Y-155087142D01*
X74176190Y-155182380D01*
X74128571Y-155372857D01*
X74080952Y-155468095D01*
X74033333Y-155515714D01*
X73938095Y-155563333D01*
X73842857Y-155563333D01*
X73747619Y-155515714D01*
X73700000Y-155468095D01*
X73652380Y-155372857D01*
X73652380Y-155134761D01*
X73700000Y-154991904D01*
X73652380Y-154658571D02*
X74652380Y-154420476D01*
X73938095Y-154230000D01*
X74652380Y-154039523D01*
X73652380Y-153801428D01*
X74652380Y-152896666D02*
X74652380Y-153468095D01*
X74652380Y-153182380D02*
X73652380Y-153182380D01*
X73795238Y-153277619D01*
X73890476Y-153372857D01*
X73938095Y-153468095D01*
%TO.C,SW2*%
X95559761Y-155563333D02*
X95607380Y-155420476D01*
X95607380Y-155182380D01*
X95559761Y-155087142D01*
X95512142Y-155039523D01*
X95416904Y-154991904D01*
X95321666Y-154991904D01*
X95226428Y-155039523D01*
X95178809Y-155087142D01*
X95131190Y-155182380D01*
X95083571Y-155372857D01*
X95035952Y-155468095D01*
X94988333Y-155515714D01*
X94893095Y-155563333D01*
X94797857Y-155563333D01*
X94702619Y-155515714D01*
X94655000Y-155468095D01*
X94607380Y-155372857D01*
X94607380Y-155134761D01*
X94655000Y-154991904D01*
X94607380Y-154658571D02*
X95607380Y-154420476D01*
X94893095Y-154230000D01*
X95607380Y-154039523D01*
X94607380Y-153801428D01*
X94702619Y-153468095D02*
X94655000Y-153420476D01*
X94607380Y-153325238D01*
X94607380Y-153087142D01*
X94655000Y-152991904D01*
X94702619Y-152944285D01*
X94797857Y-152896666D01*
X94893095Y-152896666D01*
X95035952Y-152944285D01*
X95607380Y-153515714D01*
X95607380Y-152896666D01*
%TO.C,SW3*%
X136834761Y-156198333D02*
X136882380Y-156055476D01*
X136882380Y-155817380D01*
X136834761Y-155722142D01*
X136787142Y-155674523D01*
X136691904Y-155626904D01*
X136596666Y-155626904D01*
X136501428Y-155674523D01*
X136453809Y-155722142D01*
X136406190Y-155817380D01*
X136358571Y-156007857D01*
X136310952Y-156103095D01*
X136263333Y-156150714D01*
X136168095Y-156198333D01*
X136072857Y-156198333D01*
X135977619Y-156150714D01*
X135930000Y-156103095D01*
X135882380Y-156007857D01*
X135882380Y-155769761D01*
X135930000Y-155626904D01*
X135882380Y-155293571D02*
X136882380Y-155055476D01*
X136168095Y-154865000D01*
X136882380Y-154674523D01*
X135882380Y-154436428D01*
X135882380Y-154150714D02*
X135882380Y-153531666D01*
X136263333Y-153865000D01*
X136263333Y-153722142D01*
X136310952Y-153626904D01*
X136358571Y-153579285D01*
X136453809Y-153531666D01*
X136691904Y-153531666D01*
X136787142Y-153579285D01*
X136834761Y-153626904D01*
X136882380Y-153722142D01*
X136882380Y-154007857D01*
X136834761Y-154103095D01*
X136787142Y-154150714D01*
%TO.C,SW4*%
X125594761Y-155713333D02*
X125642380Y-155570476D01*
X125642380Y-155332380D01*
X125594761Y-155237142D01*
X125547142Y-155189523D01*
X125451904Y-155141904D01*
X125356666Y-155141904D01*
X125261428Y-155189523D01*
X125213809Y-155237142D01*
X125166190Y-155332380D01*
X125118571Y-155522857D01*
X125070952Y-155618095D01*
X125023333Y-155665714D01*
X124928095Y-155713333D01*
X124832857Y-155713333D01*
X124737619Y-155665714D01*
X124690000Y-155618095D01*
X124642380Y-155522857D01*
X124642380Y-155284761D01*
X124690000Y-155141904D01*
X124642380Y-154808571D02*
X125642380Y-154570476D01*
X124928095Y-154380000D01*
X125642380Y-154189523D01*
X124642380Y-153951428D01*
X124975714Y-153141904D02*
X125642380Y-153141904D01*
X124594761Y-153380000D02*
X125309047Y-153618095D01*
X125309047Y-152999047D01*
%TO.C,U1*%
X90892380Y-128396904D02*
X91701904Y-128396904D01*
X91797142Y-128349285D01*
X91844761Y-128301666D01*
X91892380Y-128206428D01*
X91892380Y-128015952D01*
X91844761Y-127920714D01*
X91797142Y-127873095D01*
X91701904Y-127825476D01*
X90892380Y-127825476D01*
X91892380Y-126825476D02*
X91892380Y-127396904D01*
X91892380Y-127111190D02*
X90892380Y-127111190D01*
X91035238Y-127206428D01*
X91130476Y-127301666D01*
X91178095Y-127396904D01*
X145502380Y-128896904D02*
X146311904Y-128896904D01*
X146407142Y-128849285D01*
X146454761Y-128801666D01*
X146502380Y-128706428D01*
X146502380Y-128515952D01*
X146454761Y-128420714D01*
X146407142Y-128373095D01*
X146311904Y-128325476D01*
X145502380Y-128325476D01*
X146454761Y-127896904D02*
X146502380Y-127754047D01*
X146502380Y-127515952D01*
X146454761Y-127420714D01*
X146407142Y-127373095D01*
X146311904Y-127325476D01*
X146216666Y-127325476D01*
X146121428Y-127373095D01*
X146073809Y-127420714D01*
X146026190Y-127515952D01*
X145978571Y-127706428D01*
X145930952Y-127801666D01*
X145883333Y-127849285D01*
X145788095Y-127896904D01*
X145692857Y-127896904D01*
X145597619Y-127849285D01*
X145550000Y-127801666D01*
X145502380Y-127706428D01*
X145502380Y-127468333D01*
X145550000Y-127325476D01*
X145978571Y-126563571D02*
X146026190Y-126420714D01*
X146073809Y-126373095D01*
X146169047Y-126325476D01*
X146311904Y-126325476D01*
X146407142Y-126373095D01*
X146454761Y-126420714D01*
X146502380Y-126515952D01*
X146502380Y-126896904D01*
X145502380Y-126896904D01*
X145502380Y-126563571D01*
X145550000Y-126468333D01*
X145597619Y-126420714D01*
X145692857Y-126373095D01*
X145788095Y-126373095D01*
X145883333Y-126420714D01*
X145930952Y-126468333D01*
X145978571Y-126563571D01*
X145978571Y-126896904D01*
%TD*%
M02*
