%TF.GenerationSoftware,KiCad,Pcbnew,5.1.6*%
%TF.CreationDate,2020-08-05T12:52:58+02:00*%
%TF.ProjectId,AntSwitcher,416e7453-7769-4746-9368-65722e6b6963,rev?*%
%TF.SameCoordinates,Original*%
%TF.FileFunction,Copper,L2,Bot*%
%TF.FilePolarity,Positive*%
%FSLAX46Y46*%
G04 Gerber Fmt 4.6, Leading zero omitted, Abs format (unit mm)*
G04 Created by KiCad (PCBNEW 5.1.6) date 2020-08-05 12:52:58*
%MOMM*%
%LPD*%
G01*
G04 APERTURE LIST*
%TA.AperFunction,ComponentPad*%
%ADD10R,1.800000X1.800000*%
%TD*%
%TA.AperFunction,ComponentPad*%
%ADD11C,1.800000*%
%TD*%
%TA.AperFunction,SMDPad,CuDef*%
%ADD12R,5.080000X2.420000*%
%TD*%
%TA.AperFunction,ViaPad*%
%ADD13C,0.970000*%
%TD*%
%TA.AperFunction,Conductor*%
%ADD14R,0.890000X0.460000*%
%TD*%
%TA.AperFunction,ComponentPad*%
%ADD15O,1.700000X1.700000*%
%TD*%
%TA.AperFunction,ComponentPad*%
%ADD16R,1.700000X1.700000*%
%TD*%
%TA.AperFunction,ComponentPad*%
%ADD17C,2.000000*%
%TD*%
%TA.AperFunction,ComponentPad*%
%ADD18C,1.700000*%
%TD*%
%TA.AperFunction,ViaPad*%
%ADD19C,0.800000*%
%TD*%
%TA.AperFunction,Conductor*%
%ADD20C,1.270000*%
%TD*%
%TA.AperFunction,Conductor*%
%ADD21C,0.635000*%
%TD*%
%TA.AperFunction,Conductor*%
%ADD22C,0.254000*%
%TD*%
G04 APERTURE END LIST*
D10*
%TO.P,D1,1*%
%TO.N,GNDREF*%
X107950000Y-156845000D03*
D11*
%TO.P,D1,2*%
%TO.N,Net-(D1-Pad2)*%
X107950000Y-154305000D03*
%TD*%
%TO.P,D2,2*%
%TO.N,Net-(D2-Pad2)*%
X87630000Y-154305000D03*
D10*
%TO.P,D2,1*%
%TO.N,GNDREF*%
X87630000Y-156845000D03*
%TD*%
D11*
%TO.P,D3,2*%
%TO.N,Net-(D3-Pad2)*%
X72390000Y-140970000D03*
D10*
%TO.P,D3,1*%
%TO.N,GNDREF*%
X72390000Y-143510000D03*
%TD*%
%TO.P,D4,1*%
%TO.N,GNDREF*%
X130810000Y-156845000D03*
D11*
%TO.P,D4,2*%
%TO.N,Net-(D4-Pad2)*%
X130810000Y-154305000D03*
%TD*%
%TO.P,D7,2*%
%TO.N,Net-(D7-Pad2)*%
X149225000Y-154305000D03*
D10*
%TO.P,D7,1*%
%TO.N,GNDREF*%
X149225000Y-156845000D03*
%TD*%
D12*
%TO.P,J2,2*%
%TO.N,GNDREF*%
X84132000Y-67121000D03*
X84132000Y-75881000D03*
D13*
%TD*%
%TO.N,GNDREF*%
%TO.C,J2*%
X87572000Y-67121000D03*
%TO.N,GNDREF*%
%TO.C,J2*%
X87572000Y-75881000D03*
D14*
X87122000Y-67121000D03*
X87122000Y-75881000D03*
%TD*%
%TO.N,GNDREF*%
%TO.C,J3*%
X85598000Y-100011000D03*
X85598000Y-91251000D03*
D13*
X86048000Y-100011000D03*
X86048000Y-91251000D03*
D12*
%TD*%
%TO.P,J3,2*%
%TO.N,GNDREF*%
X82608000Y-100011000D03*
%TO.P,J3,2*%
%TO.N,GNDREF*%
X82608000Y-91251000D03*
%TD*%
D14*
%TO.N,GNDREF*%
%TO.C,J4*%
X142494000Y-75503000D03*
X142494000Y-84263000D03*
D13*
X142044000Y-75503000D03*
X142044000Y-84263000D03*
D12*
%TD*%
%TO.P,J4,2*%
%TO.N,GNDREF*%
X145484000Y-75503000D03*
%TO.P,J4,2*%
%TO.N,GNDREF*%
X145484000Y-84263000D03*
%TD*%
%TO.P,J5,2*%
%TO.N,GNDREF*%
X145288000Y-105599000D03*
X145288000Y-96839000D03*
D13*
%TD*%
%TO.N,GNDREF*%
%TO.C,J5*%
X141848000Y-105599000D03*
%TO.N,GNDREF*%
%TO.C,J5*%
X141848000Y-96839000D03*
D14*
X142298000Y-105599000D03*
X142298000Y-96839000D03*
%TD*%
D15*
%TO.P,JP1,3*%
%TO.N,Net-(JP1-Pad3)*%
X78740000Y-114300000D03*
%TO.P,JP1,2*%
%TO.N,+5V*%
X78740000Y-116840000D03*
D16*
%TO.P,JP1,1*%
%TO.N,Net-(J1-Pad1)*%
X78740000Y-119380000D03*
%TD*%
D17*
%TO.P,SW1,1*%
%TO.N,GNDREF*%
X76200000Y-150980000D03*
%TO.P,SW1,2*%
%TO.N,Net-(SW1-Pad2)*%
X80700000Y-150980000D03*
%TO.P,SW1,1*%
%TO.N,GNDREF*%
X76200000Y-157480000D03*
%TO.P,SW1,2*%
%TO.N,Net-(SW1-Pad2)*%
X80700000Y-157480000D03*
%TD*%
%TO.P,SW2,2*%
%TO.N,Net-(SW2-Pad2)*%
X101655000Y-157480000D03*
%TO.P,SW2,1*%
%TO.N,GNDREF*%
X97155000Y-157480000D03*
%TO.P,SW2,2*%
%TO.N,Net-(SW2-Pad2)*%
X101655000Y-150980000D03*
%TO.P,SW2,1*%
%TO.N,GNDREF*%
X97155000Y-150980000D03*
%TD*%
%TO.P,SW3,2*%
%TO.N,Net-(SW3-Pad2)*%
X142930000Y-158115000D03*
%TO.P,SW3,1*%
%TO.N,GNDREF*%
X138430000Y-158115000D03*
%TO.P,SW3,2*%
%TO.N,Net-(SW3-Pad2)*%
X142930000Y-151615000D03*
%TO.P,SW3,1*%
%TO.N,GNDREF*%
X138430000Y-151615000D03*
%TD*%
%TO.P,SW4,1*%
%TO.N,GNDREF*%
X123190000Y-157630000D03*
%TO.P,SW4,2*%
%TO.N,Net-(SW4-Pad2)*%
X118690000Y-157630000D03*
%TO.P,SW4,1*%
%TO.N,GNDREF*%
X123190000Y-151130000D03*
%TO.P,SW4,2*%
%TO.N,Net-(SW4-Pad2)*%
X118690000Y-151130000D03*
%TD*%
D18*
%TO.P,U1,1*%
%TO.N,N/C*%
X97790000Y-135255000D03*
%TO.P,U1,21*%
X146050000Y-120015000D03*
%TO.P,U1,2*%
X100330000Y-135255000D03*
%TO.P,U1,3*%
X102870000Y-135255000D03*
%TO.P,U1,4*%
X105410000Y-135255000D03*
%TO.P,U1,5*%
%TO.N,Net-(SW1-Pad2)*%
X107950000Y-135255000D03*
%TO.P,U1,6*%
%TO.N,Net-(SW2-Pad2)*%
X110490000Y-135255000D03*
%TO.P,U1,7*%
%TO.N,Net-(SW4-Pad2)*%
X113030000Y-135255000D03*
%TO.P,U1,8*%
%TO.N,Net-(SW3-Pad2)*%
X115570000Y-135255000D03*
%TO.P,U1,9*%
%TO.N,N/C*%
X118110000Y-135255000D03*
%TO.P,U1,10*%
X120650000Y-135255000D03*
%TO.P,U1,11*%
X123190000Y-135255000D03*
%TO.P,U1,12*%
X125730000Y-135255000D03*
%TO.P,U1,13*%
%TO.N,Net-(Q2-Pad1)*%
X128270000Y-135255000D03*
%TO.P,U1,14*%
%TO.N,Net-(Q1-Pad1)*%
X130810000Y-135255000D03*
%TO.P,U1,15*%
%TO.N,N/C*%
X133350000Y-135255000D03*
%TO.P,U1,16*%
X135890000Y-135255000D03*
%TO.P,U1,17*%
X138430000Y-135255000D03*
%TO.P,U1,18*%
X140970000Y-135255000D03*
%TO.P,U1,19*%
%TO.N,GNDREF*%
X143510000Y-135255000D03*
%TO.P,U1,20*%
X146050000Y-135255000D03*
%TO.P,U1,22*%
%TO.N,N/C*%
X143510000Y-120015000D03*
%TO.P,U1,23*%
X140970000Y-120015000D03*
%TO.P,U1,24*%
X138430000Y-120015000D03*
%TO.P,U1,25*%
X135890000Y-120015000D03*
%TO.P,U1,26*%
X133350000Y-120015000D03*
%TO.P,U1,27*%
X130810000Y-120015000D03*
%TO.P,U1,28*%
X128270000Y-120015000D03*
%TO.P,U1,29*%
X125730000Y-120015000D03*
%TO.P,U1,30*%
X123190000Y-120015000D03*
%TO.P,U1,31*%
%TO.N,Net-(Q4-Pad1)*%
X120650000Y-120015000D03*
%TO.P,U1,32*%
%TO.N,Net-(Q3-Pad1)*%
X118110000Y-120015000D03*
%TO.P,U1,33*%
%TO.N,N/C*%
X115570000Y-120015000D03*
%TO.P,U1,34*%
X113030000Y-120015000D03*
%TO.P,U1,35*%
X110490000Y-120015000D03*
%TO.P,U1,36*%
X107950000Y-120015000D03*
%TO.P,U1,37*%
X105410000Y-120015000D03*
%TO.P,U1,38*%
%TO.N,Net-(JP1-Pad3)*%
X102870000Y-120015000D03*
%TO.P,U1,39*%
%TO.N,GNDREF*%
X100330000Y-120015000D03*
%TO.P,U1,40*%
%TO.N,N/C*%
X97790000Y-120015000D03*
%TD*%
D19*
%TO.N,+5V*%
X85725000Y-86995000D03*
X85725000Y-63500000D03*
X142875000Y-87630000D03*
X142875000Y-110490000D03*
%TO.N,Net-(Q2-Pad1)*%
X106045000Y-146685000D03*
X99695000Y-146685000D03*
%TO.N,Net-(Q3-Pad1)*%
X160655000Y-93345000D03*
%TD*%
D20*
%TO.N,Net-(JP1-Pad3)*%
X102870000Y-116840000D02*
X102870000Y-120015000D01*
X100330000Y-114300000D02*
X78740000Y-114300000D01*
X102870000Y-116840000D02*
X100330000Y-114300000D01*
%TO.N,+5V*%
X71120000Y-86995000D02*
X85725000Y-86995000D01*
X71120000Y-70574116D02*
X76924116Y-64770000D01*
X71120000Y-86995000D02*
X71120000Y-70574116D01*
X76924116Y-64770000D02*
X78194116Y-63500000D01*
X78194116Y-63500000D02*
X85725000Y-63500000D01*
X85725000Y-63500000D02*
X147955000Y-63500000D01*
X147955000Y-63500000D02*
X158115000Y-73660000D01*
X158115000Y-85090000D02*
X155575000Y-87630000D01*
X155575000Y-87630000D02*
X142875000Y-87630000D01*
X158115000Y-84455000D02*
X158115000Y-105410000D01*
X158115000Y-73660000D02*
X158115000Y-84455000D01*
X158115000Y-84455000D02*
X158115000Y-85090000D01*
X158115000Y-105410000D02*
X153035000Y-110490000D01*
X153035000Y-110490000D02*
X142875000Y-110490000D01*
X78105000Y-116840000D02*
X78740000Y-116840000D01*
X71120000Y-109855000D02*
X78105000Y-116840000D01*
X71120000Y-86995000D02*
X71120000Y-109855000D01*
D21*
%TO.N,Net-(SW1-Pad2)*%
X107950000Y-135255000D02*
X107950000Y-141605000D01*
X107950000Y-141605000D02*
X104140000Y-145415000D01*
X86265000Y-145415000D02*
X80700000Y-150980000D01*
X104140000Y-145415000D02*
X86265000Y-145415000D01*
%TO.N,Net-(SW2-Pad2)*%
X104290000Y-150980000D02*
X101655000Y-150980000D01*
X110490000Y-144780000D02*
X104290000Y-150980000D01*
X110490000Y-135255000D02*
X110490000Y-144780000D01*
%TO.N,Net-(SW3-Pad2)*%
X135460000Y-144145000D02*
X142930000Y-151615000D01*
X115570000Y-135255000D02*
X115570000Y-137795000D01*
X121920000Y-144145000D02*
X125095000Y-144145000D01*
X115570000Y-137795000D02*
X121920000Y-144145000D01*
X125095000Y-144145000D02*
X135460000Y-144145000D01*
X124460000Y-144145000D02*
X125095000Y-144145000D01*
%TO.N,Net-(SW4-Pad2)*%
X113030000Y-145470000D02*
X118690000Y-151130000D01*
X113030000Y-135255000D02*
X113030000Y-145470000D01*
%TO.N,Net-(Q2-Pad1)*%
X106045000Y-146685000D02*
X99695000Y-146685000D01*
%TO.N,Net-(Q3-Pad1)*%
X118110000Y-120015000D02*
X118110000Y-117475000D01*
X118110000Y-117475000D02*
X120650000Y-114935000D01*
X120650000Y-114935000D02*
X160020000Y-114935000D01*
X160020000Y-114935000D02*
X161290000Y-113665000D01*
X161290000Y-113665000D02*
X161290000Y-93980000D01*
X161290000Y-93980000D02*
X160655000Y-93345000D01*
%TD*%
D22*
%TO.N,GNDREF*%
G36*
X77872532Y-62270406D02*
G01*
X77705757Y-62320997D01*
X77485128Y-62438925D01*
X77291746Y-62597630D01*
X77251979Y-62646086D01*
X76070205Y-63827861D01*
X76070200Y-63827865D01*
X70266087Y-69631979D01*
X70217631Y-69671746D01*
X70058926Y-69865128D01*
X69940998Y-70085757D01*
X69868377Y-70325153D01*
X69843857Y-70574116D01*
X69850001Y-70636499D01*
X69850000Y-86932620D01*
X69843856Y-86995000D01*
X69850000Y-87057379D01*
X69850001Y-109792617D01*
X69843857Y-109855000D01*
X69868377Y-110103963D01*
X69893901Y-110188102D01*
X69940998Y-110343359D01*
X70058926Y-110563988D01*
X70217631Y-110757370D01*
X70266087Y-110797137D01*
X77162868Y-117693920D01*
X77202630Y-117742370D01*
X77251080Y-117782132D01*
X77251083Y-117782135D01*
X77256563Y-117786632D01*
X77396012Y-117901075D01*
X77557795Y-117987549D01*
X77535506Y-117999463D01*
X77438815Y-118078815D01*
X77359463Y-118175506D01*
X77300498Y-118285820D01*
X77264188Y-118405518D01*
X77251928Y-118530000D01*
X77251928Y-120230000D01*
X77264188Y-120354482D01*
X77300498Y-120474180D01*
X77359463Y-120584494D01*
X77438815Y-120681185D01*
X77535506Y-120760537D01*
X77645820Y-120819502D01*
X77765518Y-120855812D01*
X77890000Y-120868072D01*
X79590000Y-120868072D01*
X79714482Y-120855812D01*
X79834180Y-120819502D01*
X79944494Y-120760537D01*
X80041185Y-120681185D01*
X80120537Y-120584494D01*
X80179502Y-120474180D01*
X80215812Y-120354482D01*
X80228072Y-120230000D01*
X80228072Y-119868740D01*
X96305000Y-119868740D01*
X96305000Y-120161260D01*
X96362068Y-120448158D01*
X96474010Y-120718411D01*
X96636525Y-120961632D01*
X96843368Y-121168475D01*
X97086589Y-121330990D01*
X97356842Y-121442932D01*
X97643740Y-121500000D01*
X97936260Y-121500000D01*
X98223158Y-121442932D01*
X98493411Y-121330990D01*
X98736632Y-121168475D01*
X98861710Y-121043397D01*
X99481208Y-121043397D01*
X99558843Y-121292472D01*
X99822883Y-121418371D01*
X100106411Y-121490339D01*
X100398531Y-121505611D01*
X100688019Y-121463599D01*
X100963747Y-121365919D01*
X101101157Y-121292472D01*
X101178792Y-121043397D01*
X100330000Y-120194605D01*
X99481208Y-121043397D01*
X98861710Y-121043397D01*
X98943475Y-120961632D01*
X99059311Y-120788271D01*
X99301603Y-120863792D01*
X100150395Y-120015000D01*
X99301603Y-119166208D01*
X99059311Y-119241729D01*
X98943475Y-119068368D01*
X98861710Y-118986603D01*
X99481208Y-118986603D01*
X100330000Y-119835395D01*
X101178792Y-118986603D01*
X101101157Y-118737528D01*
X100837117Y-118611629D01*
X100553589Y-118539661D01*
X100261469Y-118524389D01*
X99971981Y-118566401D01*
X99696253Y-118664081D01*
X99558843Y-118737528D01*
X99481208Y-118986603D01*
X98861710Y-118986603D01*
X98736632Y-118861525D01*
X98493411Y-118699010D01*
X98223158Y-118587068D01*
X97936260Y-118530000D01*
X97643740Y-118530000D01*
X97356842Y-118587068D01*
X97086589Y-118699010D01*
X96843368Y-118861525D01*
X96636525Y-119068368D01*
X96474010Y-119311589D01*
X96362068Y-119581842D01*
X96305000Y-119868740D01*
X80228072Y-119868740D01*
X80228072Y-118530000D01*
X80215812Y-118405518D01*
X80179502Y-118285820D01*
X80120537Y-118175506D01*
X80041185Y-118078815D01*
X79944494Y-117999463D01*
X79834180Y-117940498D01*
X79761620Y-117918487D01*
X79893475Y-117786632D01*
X80055990Y-117543411D01*
X80167932Y-117273158D01*
X80225000Y-116986260D01*
X80225000Y-116693740D01*
X80167932Y-116406842D01*
X80055990Y-116136589D01*
X79893475Y-115893368D01*
X79686632Y-115686525D01*
X79512240Y-115570000D01*
X99803950Y-115570000D01*
X101600000Y-117366051D01*
X101600001Y-119241514D01*
X101358397Y-119166208D01*
X100509605Y-120015000D01*
X101358397Y-120863792D01*
X101600689Y-120788271D01*
X101716525Y-120961632D01*
X101923368Y-121168475D01*
X102166589Y-121330990D01*
X102436842Y-121442932D01*
X102723740Y-121500000D01*
X103016260Y-121500000D01*
X103303158Y-121442932D01*
X103573411Y-121330990D01*
X103816632Y-121168475D01*
X104023475Y-120961632D01*
X104140000Y-120787240D01*
X104256525Y-120961632D01*
X104463368Y-121168475D01*
X104706589Y-121330990D01*
X104976842Y-121442932D01*
X105263740Y-121500000D01*
X105556260Y-121500000D01*
X105843158Y-121442932D01*
X106113411Y-121330990D01*
X106356632Y-121168475D01*
X106563475Y-120961632D01*
X106680000Y-120787240D01*
X106796525Y-120961632D01*
X107003368Y-121168475D01*
X107246589Y-121330990D01*
X107516842Y-121442932D01*
X107803740Y-121500000D01*
X108096260Y-121500000D01*
X108383158Y-121442932D01*
X108653411Y-121330990D01*
X108896632Y-121168475D01*
X109103475Y-120961632D01*
X109220000Y-120787240D01*
X109336525Y-120961632D01*
X109543368Y-121168475D01*
X109786589Y-121330990D01*
X110056842Y-121442932D01*
X110343740Y-121500000D01*
X110636260Y-121500000D01*
X110923158Y-121442932D01*
X111193411Y-121330990D01*
X111436632Y-121168475D01*
X111643475Y-120961632D01*
X111760000Y-120787240D01*
X111876525Y-120961632D01*
X112083368Y-121168475D01*
X112326589Y-121330990D01*
X112596842Y-121442932D01*
X112883740Y-121500000D01*
X113176260Y-121500000D01*
X113463158Y-121442932D01*
X113733411Y-121330990D01*
X113976632Y-121168475D01*
X114183475Y-120961632D01*
X114300000Y-120787240D01*
X114416525Y-120961632D01*
X114623368Y-121168475D01*
X114866589Y-121330990D01*
X115136842Y-121442932D01*
X115423740Y-121500000D01*
X115716260Y-121500000D01*
X116003158Y-121442932D01*
X116273411Y-121330990D01*
X116516632Y-121168475D01*
X116723475Y-120961632D01*
X116840000Y-120787240D01*
X116956525Y-120961632D01*
X117163368Y-121168475D01*
X117406589Y-121330990D01*
X117676842Y-121442932D01*
X117963740Y-121500000D01*
X118256260Y-121500000D01*
X118543158Y-121442932D01*
X118813411Y-121330990D01*
X119056632Y-121168475D01*
X119263475Y-120961632D01*
X119380000Y-120787240D01*
X119496525Y-120961632D01*
X119703368Y-121168475D01*
X119946589Y-121330990D01*
X120216842Y-121442932D01*
X120503740Y-121500000D01*
X120796260Y-121500000D01*
X121083158Y-121442932D01*
X121353411Y-121330990D01*
X121596632Y-121168475D01*
X121803475Y-120961632D01*
X121920000Y-120787240D01*
X122036525Y-120961632D01*
X122243368Y-121168475D01*
X122486589Y-121330990D01*
X122756842Y-121442932D01*
X123043740Y-121500000D01*
X123336260Y-121500000D01*
X123623158Y-121442932D01*
X123893411Y-121330990D01*
X124136632Y-121168475D01*
X124343475Y-120961632D01*
X124460000Y-120787240D01*
X124576525Y-120961632D01*
X124783368Y-121168475D01*
X125026589Y-121330990D01*
X125296842Y-121442932D01*
X125583740Y-121500000D01*
X125876260Y-121500000D01*
X126163158Y-121442932D01*
X126433411Y-121330990D01*
X126676632Y-121168475D01*
X126883475Y-120961632D01*
X127000000Y-120787240D01*
X127116525Y-120961632D01*
X127323368Y-121168475D01*
X127566589Y-121330990D01*
X127836842Y-121442932D01*
X128123740Y-121500000D01*
X128416260Y-121500000D01*
X128703158Y-121442932D01*
X128973411Y-121330990D01*
X129216632Y-121168475D01*
X129423475Y-120961632D01*
X129540000Y-120787240D01*
X129656525Y-120961632D01*
X129863368Y-121168475D01*
X130106589Y-121330990D01*
X130376842Y-121442932D01*
X130663740Y-121500000D01*
X130956260Y-121500000D01*
X131243158Y-121442932D01*
X131513411Y-121330990D01*
X131756632Y-121168475D01*
X131963475Y-120961632D01*
X132080000Y-120787240D01*
X132196525Y-120961632D01*
X132403368Y-121168475D01*
X132646589Y-121330990D01*
X132916842Y-121442932D01*
X133203740Y-121500000D01*
X133496260Y-121500000D01*
X133783158Y-121442932D01*
X134053411Y-121330990D01*
X134296632Y-121168475D01*
X134503475Y-120961632D01*
X134620000Y-120787240D01*
X134736525Y-120961632D01*
X134943368Y-121168475D01*
X135186589Y-121330990D01*
X135456842Y-121442932D01*
X135743740Y-121500000D01*
X136036260Y-121500000D01*
X136323158Y-121442932D01*
X136593411Y-121330990D01*
X136836632Y-121168475D01*
X137043475Y-120961632D01*
X137160000Y-120787240D01*
X137276525Y-120961632D01*
X137483368Y-121168475D01*
X137726589Y-121330990D01*
X137996842Y-121442932D01*
X138283740Y-121500000D01*
X138576260Y-121500000D01*
X138863158Y-121442932D01*
X139133411Y-121330990D01*
X139376632Y-121168475D01*
X139583475Y-120961632D01*
X139700000Y-120787240D01*
X139816525Y-120961632D01*
X140023368Y-121168475D01*
X140266589Y-121330990D01*
X140536842Y-121442932D01*
X140823740Y-121500000D01*
X141116260Y-121500000D01*
X141403158Y-121442932D01*
X141673411Y-121330990D01*
X141916632Y-121168475D01*
X142123475Y-120961632D01*
X142240000Y-120787240D01*
X142356525Y-120961632D01*
X142563368Y-121168475D01*
X142806589Y-121330990D01*
X143076842Y-121442932D01*
X143363740Y-121500000D01*
X143656260Y-121500000D01*
X143943158Y-121442932D01*
X144213411Y-121330990D01*
X144456632Y-121168475D01*
X144663475Y-120961632D01*
X144780000Y-120787240D01*
X144896525Y-120961632D01*
X145103368Y-121168475D01*
X145346589Y-121330990D01*
X145616842Y-121442932D01*
X145903740Y-121500000D01*
X146196260Y-121500000D01*
X146483158Y-121442932D01*
X146753411Y-121330990D01*
X146996632Y-121168475D01*
X147203475Y-120961632D01*
X147365990Y-120718411D01*
X147477932Y-120448158D01*
X147535000Y-120161260D01*
X147535000Y-119868740D01*
X147477932Y-119581842D01*
X147365990Y-119311589D01*
X147203475Y-119068368D01*
X146996632Y-118861525D01*
X146753411Y-118699010D01*
X146483158Y-118587068D01*
X146196260Y-118530000D01*
X145903740Y-118530000D01*
X145616842Y-118587068D01*
X145346589Y-118699010D01*
X145103368Y-118861525D01*
X144896525Y-119068368D01*
X144780000Y-119242760D01*
X144663475Y-119068368D01*
X144456632Y-118861525D01*
X144213411Y-118699010D01*
X143943158Y-118587068D01*
X143656260Y-118530000D01*
X143363740Y-118530000D01*
X143076842Y-118587068D01*
X142806589Y-118699010D01*
X142563368Y-118861525D01*
X142356525Y-119068368D01*
X142240000Y-119242760D01*
X142123475Y-119068368D01*
X141916632Y-118861525D01*
X141673411Y-118699010D01*
X141403158Y-118587068D01*
X141116260Y-118530000D01*
X140823740Y-118530000D01*
X140536842Y-118587068D01*
X140266589Y-118699010D01*
X140023368Y-118861525D01*
X139816525Y-119068368D01*
X139700000Y-119242760D01*
X139583475Y-119068368D01*
X139376632Y-118861525D01*
X139133411Y-118699010D01*
X138863158Y-118587068D01*
X138576260Y-118530000D01*
X138283740Y-118530000D01*
X137996842Y-118587068D01*
X137726589Y-118699010D01*
X137483368Y-118861525D01*
X137276525Y-119068368D01*
X137160000Y-119242760D01*
X137043475Y-119068368D01*
X136836632Y-118861525D01*
X136593411Y-118699010D01*
X136323158Y-118587068D01*
X136036260Y-118530000D01*
X135743740Y-118530000D01*
X135456842Y-118587068D01*
X135186589Y-118699010D01*
X134943368Y-118861525D01*
X134736525Y-119068368D01*
X134620000Y-119242760D01*
X134503475Y-119068368D01*
X134296632Y-118861525D01*
X134053411Y-118699010D01*
X133783158Y-118587068D01*
X133496260Y-118530000D01*
X133203740Y-118530000D01*
X132916842Y-118587068D01*
X132646589Y-118699010D01*
X132403368Y-118861525D01*
X132196525Y-119068368D01*
X132080000Y-119242760D01*
X131963475Y-119068368D01*
X131756632Y-118861525D01*
X131513411Y-118699010D01*
X131243158Y-118587068D01*
X130956260Y-118530000D01*
X130663740Y-118530000D01*
X130376842Y-118587068D01*
X130106589Y-118699010D01*
X129863368Y-118861525D01*
X129656525Y-119068368D01*
X129540000Y-119242760D01*
X129423475Y-119068368D01*
X129216632Y-118861525D01*
X128973411Y-118699010D01*
X128703158Y-118587068D01*
X128416260Y-118530000D01*
X128123740Y-118530000D01*
X127836842Y-118587068D01*
X127566589Y-118699010D01*
X127323368Y-118861525D01*
X127116525Y-119068368D01*
X127000000Y-119242760D01*
X126883475Y-119068368D01*
X126676632Y-118861525D01*
X126433411Y-118699010D01*
X126163158Y-118587068D01*
X125876260Y-118530000D01*
X125583740Y-118530000D01*
X125296842Y-118587068D01*
X125026589Y-118699010D01*
X124783368Y-118861525D01*
X124576525Y-119068368D01*
X124460000Y-119242760D01*
X124343475Y-119068368D01*
X124136632Y-118861525D01*
X123893411Y-118699010D01*
X123623158Y-118587068D01*
X123336260Y-118530000D01*
X123043740Y-118530000D01*
X122756842Y-118587068D01*
X122486589Y-118699010D01*
X122243368Y-118861525D01*
X122036525Y-119068368D01*
X121920000Y-119242760D01*
X121803475Y-119068368D01*
X121596632Y-118861525D01*
X121353411Y-118699010D01*
X121083158Y-118587068D01*
X120796260Y-118530000D01*
X120503740Y-118530000D01*
X120216842Y-118587068D01*
X119946589Y-118699010D01*
X119703368Y-118861525D01*
X119496525Y-119068368D01*
X119380000Y-119242760D01*
X119263475Y-119068368D01*
X119062500Y-118867393D01*
X119062500Y-117869538D01*
X121044538Y-115887500D01*
X159973215Y-115887500D01*
X160020000Y-115892108D01*
X160066785Y-115887500D01*
X160206723Y-115873717D01*
X160386269Y-115819252D01*
X160551741Y-115730806D01*
X160696778Y-115611778D01*
X160726607Y-115575431D01*
X161930436Y-114371603D01*
X161966778Y-114341778D01*
X162085806Y-114196741D01*
X162174252Y-114031269D01*
X162228717Y-113851723D01*
X162242500Y-113711785D01*
X162242500Y-113711784D01*
X162247108Y-113665001D01*
X162242500Y-113618216D01*
X162242500Y-94026785D01*
X162247108Y-93980000D01*
X162228717Y-93793278D01*
X162174252Y-93613730D01*
X162130029Y-93530995D01*
X162085806Y-93448259D01*
X161966778Y-93303222D01*
X161930426Y-93273389D01*
X161614931Y-92957894D01*
X161572205Y-92854744D01*
X161458937Y-92685226D01*
X161314774Y-92541063D01*
X161145256Y-92427795D01*
X160956898Y-92349774D01*
X160756939Y-92310000D01*
X160553061Y-92310000D01*
X160353102Y-92349774D01*
X160164744Y-92427795D01*
X159995226Y-92541063D01*
X159851063Y-92685226D01*
X159737795Y-92854744D01*
X159659774Y-93043102D01*
X159620000Y-93243061D01*
X159620000Y-93446939D01*
X159659774Y-93646898D01*
X159737795Y-93835256D01*
X159851063Y-94004774D01*
X159995226Y-94148937D01*
X160164744Y-94262205D01*
X160267894Y-94304931D01*
X160337501Y-94374538D01*
X160337500Y-113270461D01*
X159625462Y-113982500D01*
X120696784Y-113982500D01*
X120649999Y-113977892D01*
X120463277Y-113996283D01*
X120283731Y-114050748D01*
X120118259Y-114139194D01*
X119973222Y-114258222D01*
X119943393Y-114294569D01*
X117469565Y-116768397D01*
X117433223Y-116798222D01*
X117403399Y-116834563D01*
X117314194Y-116943260D01*
X117225749Y-117108731D01*
X117171283Y-117288278D01*
X117152892Y-117475000D01*
X117157501Y-117521794D01*
X117157500Y-118867393D01*
X116956525Y-119068368D01*
X116840000Y-119242760D01*
X116723475Y-119068368D01*
X116516632Y-118861525D01*
X116273411Y-118699010D01*
X116003158Y-118587068D01*
X115716260Y-118530000D01*
X115423740Y-118530000D01*
X115136842Y-118587068D01*
X114866589Y-118699010D01*
X114623368Y-118861525D01*
X114416525Y-119068368D01*
X114300000Y-119242760D01*
X114183475Y-119068368D01*
X113976632Y-118861525D01*
X113733411Y-118699010D01*
X113463158Y-118587068D01*
X113176260Y-118530000D01*
X112883740Y-118530000D01*
X112596842Y-118587068D01*
X112326589Y-118699010D01*
X112083368Y-118861525D01*
X111876525Y-119068368D01*
X111760000Y-119242760D01*
X111643475Y-119068368D01*
X111436632Y-118861525D01*
X111193411Y-118699010D01*
X110923158Y-118587068D01*
X110636260Y-118530000D01*
X110343740Y-118530000D01*
X110056842Y-118587068D01*
X109786589Y-118699010D01*
X109543368Y-118861525D01*
X109336525Y-119068368D01*
X109220000Y-119242760D01*
X109103475Y-119068368D01*
X108896632Y-118861525D01*
X108653411Y-118699010D01*
X108383158Y-118587068D01*
X108096260Y-118530000D01*
X107803740Y-118530000D01*
X107516842Y-118587068D01*
X107246589Y-118699010D01*
X107003368Y-118861525D01*
X106796525Y-119068368D01*
X106680000Y-119242760D01*
X106563475Y-119068368D01*
X106356632Y-118861525D01*
X106113411Y-118699010D01*
X105843158Y-118587068D01*
X105556260Y-118530000D01*
X105263740Y-118530000D01*
X104976842Y-118587068D01*
X104706589Y-118699010D01*
X104463368Y-118861525D01*
X104256525Y-119068368D01*
X104140000Y-119242760D01*
X104140000Y-116902372D01*
X104146143Y-116839999D01*
X104140000Y-116777626D01*
X104140000Y-116777620D01*
X104121623Y-116591037D01*
X104121536Y-116590748D01*
X104049003Y-116351642D01*
X104049003Y-116351641D01*
X103931075Y-116131012D01*
X103772370Y-115937630D01*
X103723915Y-115897864D01*
X101272141Y-113446091D01*
X101232370Y-113397630D01*
X101038988Y-113238925D01*
X100818359Y-113120997D01*
X100578963Y-113048377D01*
X100392380Y-113030000D01*
X100392373Y-113030000D01*
X100330000Y-113023857D01*
X100267627Y-113030000D01*
X79512240Y-113030000D01*
X79443411Y-112984010D01*
X79173158Y-112872068D01*
X78886260Y-112815000D01*
X78593740Y-112815000D01*
X78306842Y-112872068D01*
X78036589Y-112984010D01*
X77793368Y-113146525D01*
X77586525Y-113353368D01*
X77424010Y-113596589D01*
X77312068Y-113866842D01*
X77255000Y-114153740D01*
X77255000Y-114193949D01*
X72390000Y-109328950D01*
X72390000Y-105682001D01*
X140725645Y-105682001D01*
X140763404Y-105899367D01*
X140842842Y-106105189D01*
X140868684Y-106153534D01*
X141080584Y-106186811D01*
X141247380Y-106020015D01*
X141268709Y-106085397D01*
X141329956Y-106194460D01*
X141377090Y-106249515D01*
X141260189Y-106366416D01*
X141293466Y-106578316D01*
X141495176Y-106667683D01*
X141710445Y-106715981D01*
X141931001Y-106721355D01*
X142110323Y-106690205D01*
X142109928Y-106809000D01*
X142122188Y-106933482D01*
X142158498Y-107053180D01*
X142217463Y-107163494D01*
X142296815Y-107260185D01*
X142393506Y-107339537D01*
X142503820Y-107398502D01*
X142623518Y-107434812D01*
X142748000Y-107447072D01*
X145002250Y-107444000D01*
X145161000Y-107285250D01*
X145161000Y-105726000D01*
X145415000Y-105726000D01*
X145415000Y-107285250D01*
X145573750Y-107444000D01*
X147828000Y-107447072D01*
X147952482Y-107434812D01*
X148072180Y-107398502D01*
X148182494Y-107339537D01*
X148279185Y-107260185D01*
X148358537Y-107163494D01*
X148417502Y-107053180D01*
X148453812Y-106933482D01*
X148466072Y-106809000D01*
X148463000Y-105884750D01*
X148304250Y-105726000D01*
X145415000Y-105726000D01*
X145161000Y-105726000D01*
X145141000Y-105726000D01*
X145141000Y-105472000D01*
X145161000Y-105472000D01*
X145161000Y-103912750D01*
X145415000Y-103912750D01*
X145415000Y-105472000D01*
X148304250Y-105472000D01*
X148463000Y-105313250D01*
X148466072Y-104389000D01*
X148453812Y-104264518D01*
X148417502Y-104144820D01*
X148358537Y-104034506D01*
X148279185Y-103937815D01*
X148182494Y-103858463D01*
X148072180Y-103799498D01*
X147952482Y-103763188D01*
X147828000Y-103750928D01*
X145573750Y-103754000D01*
X145415000Y-103912750D01*
X145161000Y-103912750D01*
X145002250Y-103754000D01*
X142748000Y-103750928D01*
X142623518Y-103763188D01*
X142503820Y-103799498D01*
X142393506Y-103858463D01*
X142296815Y-103937815D01*
X142217463Y-104034506D01*
X142158498Y-104144820D01*
X142122188Y-104264518D01*
X142109928Y-104389000D01*
X142110330Y-104510014D01*
X141985555Y-104482019D01*
X141764999Y-104476645D01*
X141547633Y-104514404D01*
X141341811Y-104593842D01*
X141293466Y-104619684D01*
X141260189Y-104831584D01*
X141377090Y-104948485D01*
X141329956Y-105003540D01*
X141268709Y-105112603D01*
X141247380Y-105177985D01*
X141080584Y-105011189D01*
X140868684Y-105044466D01*
X140779317Y-105246176D01*
X140731019Y-105461445D01*
X140725645Y-105682001D01*
X72390000Y-105682001D01*
X72390000Y-101221000D01*
X79429928Y-101221000D01*
X79442188Y-101345482D01*
X79478498Y-101465180D01*
X79537463Y-101575494D01*
X79616815Y-101672185D01*
X79713506Y-101751537D01*
X79823820Y-101810502D01*
X79943518Y-101846812D01*
X80068000Y-101859072D01*
X82322250Y-101856000D01*
X82481000Y-101697250D01*
X82481000Y-100138000D01*
X79591750Y-100138000D01*
X79433000Y-100296750D01*
X79429928Y-101221000D01*
X72390000Y-101221000D01*
X72390000Y-98801000D01*
X79429928Y-98801000D01*
X79433000Y-99725250D01*
X79591750Y-99884000D01*
X82481000Y-99884000D01*
X82481000Y-98324750D01*
X82735000Y-98324750D01*
X82735000Y-99884000D01*
X82755000Y-99884000D01*
X82755000Y-100138000D01*
X82735000Y-100138000D01*
X82735000Y-101697250D01*
X82893750Y-101856000D01*
X85148000Y-101859072D01*
X85272482Y-101846812D01*
X85392180Y-101810502D01*
X85502494Y-101751537D01*
X85599185Y-101672185D01*
X85678537Y-101575494D01*
X85737502Y-101465180D01*
X85773812Y-101345482D01*
X85786072Y-101221000D01*
X85785670Y-101099986D01*
X85910445Y-101127981D01*
X86131001Y-101133355D01*
X86348367Y-101095596D01*
X86554189Y-101016158D01*
X86602534Y-100990316D01*
X86635811Y-100778416D01*
X86518910Y-100661515D01*
X86566044Y-100606460D01*
X86627291Y-100497397D01*
X86648620Y-100432015D01*
X86815416Y-100598811D01*
X87027316Y-100565534D01*
X87116683Y-100363824D01*
X87164981Y-100148555D01*
X87170355Y-99927999D01*
X87132596Y-99710633D01*
X87053158Y-99504811D01*
X87027316Y-99456466D01*
X86815416Y-99423189D01*
X86648620Y-99589985D01*
X86627291Y-99524603D01*
X86566044Y-99415540D01*
X86518910Y-99360485D01*
X86635811Y-99243584D01*
X86602534Y-99031684D01*
X86400824Y-98942317D01*
X86185555Y-98894019D01*
X85964999Y-98888645D01*
X85785677Y-98919795D01*
X85786072Y-98801000D01*
X85773812Y-98676518D01*
X85737502Y-98556820D01*
X85678537Y-98446506D01*
X85599185Y-98349815D01*
X85502494Y-98270463D01*
X85392180Y-98211498D01*
X85272482Y-98175188D01*
X85148000Y-98162928D01*
X82893750Y-98166000D01*
X82735000Y-98324750D01*
X82481000Y-98324750D01*
X82322250Y-98166000D01*
X80068000Y-98162928D01*
X79943518Y-98175188D01*
X79823820Y-98211498D01*
X79713506Y-98270463D01*
X79616815Y-98349815D01*
X79537463Y-98446506D01*
X79478498Y-98556820D01*
X79442188Y-98676518D01*
X79429928Y-98801000D01*
X72390000Y-98801000D01*
X72390000Y-96922001D01*
X140725645Y-96922001D01*
X140763404Y-97139367D01*
X140842842Y-97345189D01*
X140868684Y-97393534D01*
X141080584Y-97426811D01*
X141247380Y-97260015D01*
X141268709Y-97325397D01*
X141329956Y-97434460D01*
X141377090Y-97489515D01*
X141260189Y-97606416D01*
X141293466Y-97818316D01*
X141495176Y-97907683D01*
X141710445Y-97955981D01*
X141931001Y-97961355D01*
X142110323Y-97930205D01*
X142109928Y-98049000D01*
X142122188Y-98173482D01*
X142158498Y-98293180D01*
X142217463Y-98403494D01*
X142296815Y-98500185D01*
X142393506Y-98579537D01*
X142503820Y-98638502D01*
X142623518Y-98674812D01*
X142748000Y-98687072D01*
X145002250Y-98684000D01*
X145161000Y-98525250D01*
X145161000Y-96966000D01*
X145415000Y-96966000D01*
X145415000Y-98525250D01*
X145573750Y-98684000D01*
X147828000Y-98687072D01*
X147952482Y-98674812D01*
X148072180Y-98638502D01*
X148182494Y-98579537D01*
X148279185Y-98500185D01*
X148358537Y-98403494D01*
X148417502Y-98293180D01*
X148453812Y-98173482D01*
X148466072Y-98049000D01*
X148463000Y-97124750D01*
X148304250Y-96966000D01*
X145415000Y-96966000D01*
X145161000Y-96966000D01*
X145141000Y-96966000D01*
X145141000Y-96712000D01*
X145161000Y-96712000D01*
X145161000Y-95152750D01*
X145415000Y-95152750D01*
X145415000Y-96712000D01*
X148304250Y-96712000D01*
X148463000Y-96553250D01*
X148466072Y-95629000D01*
X148453812Y-95504518D01*
X148417502Y-95384820D01*
X148358537Y-95274506D01*
X148279185Y-95177815D01*
X148182494Y-95098463D01*
X148072180Y-95039498D01*
X147952482Y-95003188D01*
X147828000Y-94990928D01*
X145573750Y-94994000D01*
X145415000Y-95152750D01*
X145161000Y-95152750D01*
X145002250Y-94994000D01*
X142748000Y-94990928D01*
X142623518Y-95003188D01*
X142503820Y-95039498D01*
X142393506Y-95098463D01*
X142296815Y-95177815D01*
X142217463Y-95274506D01*
X142158498Y-95384820D01*
X142122188Y-95504518D01*
X142109928Y-95629000D01*
X142110330Y-95750014D01*
X141985555Y-95722019D01*
X141764999Y-95716645D01*
X141547633Y-95754404D01*
X141341811Y-95833842D01*
X141293466Y-95859684D01*
X141260189Y-96071584D01*
X141377090Y-96188485D01*
X141329956Y-96243540D01*
X141268709Y-96352603D01*
X141247380Y-96417985D01*
X141080584Y-96251189D01*
X140868684Y-96284466D01*
X140779317Y-96486176D01*
X140731019Y-96701445D01*
X140725645Y-96922001D01*
X72390000Y-96922001D01*
X72390000Y-92461000D01*
X79429928Y-92461000D01*
X79442188Y-92585482D01*
X79478498Y-92705180D01*
X79537463Y-92815494D01*
X79616815Y-92912185D01*
X79713506Y-92991537D01*
X79823820Y-93050502D01*
X79943518Y-93086812D01*
X80068000Y-93099072D01*
X82322250Y-93096000D01*
X82481000Y-92937250D01*
X82481000Y-91378000D01*
X79591750Y-91378000D01*
X79433000Y-91536750D01*
X79429928Y-92461000D01*
X72390000Y-92461000D01*
X72390000Y-90041000D01*
X79429928Y-90041000D01*
X79433000Y-90965250D01*
X79591750Y-91124000D01*
X82481000Y-91124000D01*
X82481000Y-89564750D01*
X82735000Y-89564750D01*
X82735000Y-91124000D01*
X82755000Y-91124000D01*
X82755000Y-91378000D01*
X82735000Y-91378000D01*
X82735000Y-92937250D01*
X82893750Y-93096000D01*
X85148000Y-93099072D01*
X85272482Y-93086812D01*
X85392180Y-93050502D01*
X85502494Y-92991537D01*
X85599185Y-92912185D01*
X85678537Y-92815494D01*
X85737502Y-92705180D01*
X85773812Y-92585482D01*
X85786072Y-92461000D01*
X85785670Y-92339986D01*
X85910445Y-92367981D01*
X86131001Y-92373355D01*
X86348367Y-92335596D01*
X86554189Y-92256158D01*
X86602534Y-92230316D01*
X86635811Y-92018416D01*
X86518910Y-91901515D01*
X86566044Y-91846460D01*
X86627291Y-91737397D01*
X86648620Y-91672015D01*
X86815416Y-91838811D01*
X87027316Y-91805534D01*
X87116683Y-91603824D01*
X87164981Y-91388555D01*
X87170355Y-91167999D01*
X87132596Y-90950633D01*
X87053158Y-90744811D01*
X87027316Y-90696466D01*
X86815416Y-90663189D01*
X86648620Y-90829985D01*
X86627291Y-90764603D01*
X86566044Y-90655540D01*
X86518910Y-90600485D01*
X86635811Y-90483584D01*
X86602534Y-90271684D01*
X86400824Y-90182317D01*
X86185555Y-90134019D01*
X85964999Y-90128645D01*
X85785677Y-90159795D01*
X85786072Y-90041000D01*
X85773812Y-89916518D01*
X85737502Y-89796820D01*
X85678537Y-89686506D01*
X85599185Y-89589815D01*
X85502494Y-89510463D01*
X85392180Y-89451498D01*
X85272482Y-89415188D01*
X85148000Y-89402928D01*
X82893750Y-89406000D01*
X82735000Y-89564750D01*
X82481000Y-89564750D01*
X82322250Y-89406000D01*
X80068000Y-89402928D01*
X79943518Y-89415188D01*
X79823820Y-89451498D01*
X79713506Y-89510463D01*
X79616815Y-89589815D01*
X79537463Y-89686506D01*
X79478498Y-89796820D01*
X79442188Y-89916518D01*
X79429928Y-90041000D01*
X72390000Y-90041000D01*
X72390000Y-88265000D01*
X85787380Y-88265000D01*
X85973963Y-88246623D01*
X86213359Y-88174003D01*
X86433988Y-88056075D01*
X86627370Y-87897370D01*
X86786075Y-87703988D01*
X86904003Y-87483359D01*
X86976623Y-87243963D01*
X87001144Y-86995000D01*
X86976623Y-86746037D01*
X86904003Y-86506641D01*
X86786075Y-86286012D01*
X86627370Y-86092630D01*
X86433988Y-85933925D01*
X86213359Y-85815997D01*
X85973963Y-85743377D01*
X85787380Y-85725000D01*
X72390000Y-85725000D01*
X72390000Y-84346001D01*
X140921645Y-84346001D01*
X140959404Y-84563367D01*
X141038842Y-84769189D01*
X141064684Y-84817534D01*
X141276584Y-84850811D01*
X141443380Y-84684015D01*
X141464709Y-84749397D01*
X141525956Y-84858460D01*
X141573090Y-84913515D01*
X141456189Y-85030416D01*
X141489466Y-85242316D01*
X141691176Y-85331683D01*
X141906445Y-85379981D01*
X142127001Y-85385355D01*
X142306323Y-85354205D01*
X142305928Y-85473000D01*
X142318188Y-85597482D01*
X142354498Y-85717180D01*
X142413463Y-85827494D01*
X142492815Y-85924185D01*
X142589506Y-86003537D01*
X142699820Y-86062502D01*
X142819518Y-86098812D01*
X142944000Y-86111072D01*
X145198250Y-86108000D01*
X145357000Y-85949250D01*
X145357000Y-84390000D01*
X145611000Y-84390000D01*
X145611000Y-85949250D01*
X145769750Y-86108000D01*
X148024000Y-86111072D01*
X148148482Y-86098812D01*
X148268180Y-86062502D01*
X148378494Y-86003537D01*
X148475185Y-85924185D01*
X148554537Y-85827494D01*
X148613502Y-85717180D01*
X148649812Y-85597482D01*
X148662072Y-85473000D01*
X148659000Y-84548750D01*
X148500250Y-84390000D01*
X145611000Y-84390000D01*
X145357000Y-84390000D01*
X145337000Y-84390000D01*
X145337000Y-84136000D01*
X145357000Y-84136000D01*
X145357000Y-82576750D01*
X145611000Y-82576750D01*
X145611000Y-84136000D01*
X148500250Y-84136000D01*
X148659000Y-83977250D01*
X148662072Y-83053000D01*
X148649812Y-82928518D01*
X148613502Y-82808820D01*
X148554537Y-82698506D01*
X148475185Y-82601815D01*
X148378494Y-82522463D01*
X148268180Y-82463498D01*
X148148482Y-82427188D01*
X148024000Y-82414928D01*
X145769750Y-82418000D01*
X145611000Y-82576750D01*
X145357000Y-82576750D01*
X145198250Y-82418000D01*
X142944000Y-82414928D01*
X142819518Y-82427188D01*
X142699820Y-82463498D01*
X142589506Y-82522463D01*
X142492815Y-82601815D01*
X142413463Y-82698506D01*
X142354498Y-82808820D01*
X142318188Y-82928518D01*
X142305928Y-83053000D01*
X142306330Y-83174014D01*
X142181555Y-83146019D01*
X141960999Y-83140645D01*
X141743633Y-83178404D01*
X141537811Y-83257842D01*
X141489466Y-83283684D01*
X141456189Y-83495584D01*
X141573090Y-83612485D01*
X141525956Y-83667540D01*
X141464709Y-83776603D01*
X141443380Y-83841985D01*
X141276584Y-83675189D01*
X141064684Y-83708466D01*
X140975317Y-83910176D01*
X140927019Y-84125445D01*
X140921645Y-84346001D01*
X72390000Y-84346001D01*
X72390000Y-77091000D01*
X80953928Y-77091000D01*
X80966188Y-77215482D01*
X81002498Y-77335180D01*
X81061463Y-77445494D01*
X81140815Y-77542185D01*
X81237506Y-77621537D01*
X81347820Y-77680502D01*
X81467518Y-77716812D01*
X81592000Y-77729072D01*
X83846250Y-77726000D01*
X84005000Y-77567250D01*
X84005000Y-76008000D01*
X81115750Y-76008000D01*
X80957000Y-76166750D01*
X80953928Y-77091000D01*
X72390000Y-77091000D01*
X72390000Y-74671000D01*
X80953928Y-74671000D01*
X80957000Y-75595250D01*
X81115750Y-75754000D01*
X84005000Y-75754000D01*
X84005000Y-74194750D01*
X84259000Y-74194750D01*
X84259000Y-75754000D01*
X84279000Y-75754000D01*
X84279000Y-76008000D01*
X84259000Y-76008000D01*
X84259000Y-77567250D01*
X84417750Y-77726000D01*
X86672000Y-77729072D01*
X86796482Y-77716812D01*
X86916180Y-77680502D01*
X87026494Y-77621537D01*
X87123185Y-77542185D01*
X87202537Y-77445494D01*
X87261502Y-77335180D01*
X87297812Y-77215482D01*
X87310072Y-77091000D01*
X87309670Y-76969986D01*
X87434445Y-76997981D01*
X87655001Y-77003355D01*
X87872367Y-76965596D01*
X88078189Y-76886158D01*
X88126534Y-76860316D01*
X88159811Y-76648416D01*
X88042910Y-76531515D01*
X88090044Y-76476460D01*
X88151291Y-76367397D01*
X88172620Y-76302015D01*
X88339416Y-76468811D01*
X88551316Y-76435534D01*
X88640683Y-76233824D01*
X88688981Y-76018555D01*
X88694355Y-75797999D01*
X88657529Y-75586001D01*
X140921645Y-75586001D01*
X140959404Y-75803367D01*
X141038842Y-76009189D01*
X141064684Y-76057534D01*
X141276584Y-76090811D01*
X141443380Y-75924015D01*
X141464709Y-75989397D01*
X141525956Y-76098460D01*
X141573090Y-76153515D01*
X141456189Y-76270416D01*
X141489466Y-76482316D01*
X141691176Y-76571683D01*
X141906445Y-76619981D01*
X142127001Y-76625355D01*
X142306323Y-76594205D01*
X142305928Y-76713000D01*
X142318188Y-76837482D01*
X142354498Y-76957180D01*
X142413463Y-77067494D01*
X142492815Y-77164185D01*
X142589506Y-77243537D01*
X142699820Y-77302502D01*
X142819518Y-77338812D01*
X142944000Y-77351072D01*
X145198250Y-77348000D01*
X145357000Y-77189250D01*
X145357000Y-75630000D01*
X145611000Y-75630000D01*
X145611000Y-77189250D01*
X145769750Y-77348000D01*
X148024000Y-77351072D01*
X148148482Y-77338812D01*
X148268180Y-77302502D01*
X148378494Y-77243537D01*
X148475185Y-77164185D01*
X148554537Y-77067494D01*
X148613502Y-76957180D01*
X148649812Y-76837482D01*
X148662072Y-76713000D01*
X148659000Y-75788750D01*
X148500250Y-75630000D01*
X145611000Y-75630000D01*
X145357000Y-75630000D01*
X145337000Y-75630000D01*
X145337000Y-75376000D01*
X145357000Y-75376000D01*
X145357000Y-73816750D01*
X145611000Y-73816750D01*
X145611000Y-75376000D01*
X148500250Y-75376000D01*
X148659000Y-75217250D01*
X148662072Y-74293000D01*
X148649812Y-74168518D01*
X148613502Y-74048820D01*
X148554537Y-73938506D01*
X148475185Y-73841815D01*
X148378494Y-73762463D01*
X148268180Y-73703498D01*
X148148482Y-73667188D01*
X148024000Y-73654928D01*
X145769750Y-73658000D01*
X145611000Y-73816750D01*
X145357000Y-73816750D01*
X145198250Y-73658000D01*
X142944000Y-73654928D01*
X142819518Y-73667188D01*
X142699820Y-73703498D01*
X142589506Y-73762463D01*
X142492815Y-73841815D01*
X142413463Y-73938506D01*
X142354498Y-74048820D01*
X142318188Y-74168518D01*
X142305928Y-74293000D01*
X142306330Y-74414014D01*
X142181555Y-74386019D01*
X141960999Y-74380645D01*
X141743633Y-74418404D01*
X141537811Y-74497842D01*
X141489466Y-74523684D01*
X141456189Y-74735584D01*
X141573090Y-74852485D01*
X141525956Y-74907540D01*
X141464709Y-75016603D01*
X141443380Y-75081985D01*
X141276584Y-74915189D01*
X141064684Y-74948466D01*
X140975317Y-75150176D01*
X140927019Y-75365445D01*
X140921645Y-75586001D01*
X88657529Y-75586001D01*
X88656596Y-75580633D01*
X88577158Y-75374811D01*
X88551316Y-75326466D01*
X88339416Y-75293189D01*
X88172620Y-75459985D01*
X88151291Y-75394603D01*
X88090044Y-75285540D01*
X88042910Y-75230485D01*
X88159811Y-75113584D01*
X88126534Y-74901684D01*
X87924824Y-74812317D01*
X87709555Y-74764019D01*
X87488999Y-74758645D01*
X87309677Y-74789795D01*
X87310072Y-74671000D01*
X87297812Y-74546518D01*
X87261502Y-74426820D01*
X87202537Y-74316506D01*
X87123185Y-74219815D01*
X87026494Y-74140463D01*
X86916180Y-74081498D01*
X86796482Y-74045188D01*
X86672000Y-74032928D01*
X84417750Y-74036000D01*
X84259000Y-74194750D01*
X84005000Y-74194750D01*
X83846250Y-74036000D01*
X81592000Y-74032928D01*
X81467518Y-74045188D01*
X81347820Y-74081498D01*
X81237506Y-74140463D01*
X81140815Y-74219815D01*
X81061463Y-74316506D01*
X81002498Y-74426820D01*
X80966188Y-74546518D01*
X80953928Y-74671000D01*
X72390000Y-74671000D01*
X72390000Y-71100166D01*
X75159166Y-68331000D01*
X80953928Y-68331000D01*
X80966188Y-68455482D01*
X81002498Y-68575180D01*
X81061463Y-68685494D01*
X81140815Y-68782185D01*
X81237506Y-68861537D01*
X81347820Y-68920502D01*
X81467518Y-68956812D01*
X81592000Y-68969072D01*
X83846250Y-68966000D01*
X84005000Y-68807250D01*
X84005000Y-67248000D01*
X81115750Y-67248000D01*
X80957000Y-67406750D01*
X80953928Y-68331000D01*
X75159166Y-68331000D01*
X77579166Y-65911000D01*
X80953928Y-65911000D01*
X80957000Y-66835250D01*
X81115750Y-66994000D01*
X84005000Y-66994000D01*
X84005000Y-65434750D01*
X84259000Y-65434750D01*
X84259000Y-66994000D01*
X84279000Y-66994000D01*
X84279000Y-67248000D01*
X84259000Y-67248000D01*
X84259000Y-68807250D01*
X84417750Y-68966000D01*
X86672000Y-68969072D01*
X86796482Y-68956812D01*
X86916180Y-68920502D01*
X87026494Y-68861537D01*
X87123185Y-68782185D01*
X87202537Y-68685494D01*
X87261502Y-68575180D01*
X87297812Y-68455482D01*
X87310072Y-68331000D01*
X87309670Y-68209986D01*
X87434445Y-68237981D01*
X87655001Y-68243355D01*
X87872367Y-68205596D01*
X88078189Y-68126158D01*
X88126534Y-68100316D01*
X88159811Y-67888416D01*
X88042910Y-67771515D01*
X88090044Y-67716460D01*
X88151291Y-67607397D01*
X88172620Y-67542015D01*
X88339416Y-67708811D01*
X88551316Y-67675534D01*
X88640683Y-67473824D01*
X88688981Y-67258555D01*
X88694355Y-67037999D01*
X88656596Y-66820633D01*
X88577158Y-66614811D01*
X88551316Y-66566466D01*
X88339416Y-66533189D01*
X88172620Y-66699985D01*
X88151291Y-66634603D01*
X88090044Y-66525540D01*
X88042910Y-66470485D01*
X88159811Y-66353584D01*
X88126534Y-66141684D01*
X87924824Y-66052317D01*
X87709555Y-66004019D01*
X87488999Y-65998645D01*
X87309677Y-66029795D01*
X87310072Y-65911000D01*
X87297812Y-65786518D01*
X87261502Y-65666820D01*
X87202537Y-65556506D01*
X87123185Y-65459815D01*
X87026494Y-65380463D01*
X86916180Y-65321498D01*
X86796482Y-65285188D01*
X86672000Y-65272928D01*
X84417750Y-65276000D01*
X84259000Y-65434750D01*
X84005000Y-65434750D01*
X83846250Y-65276000D01*
X81592000Y-65272928D01*
X81467518Y-65285188D01*
X81347820Y-65321498D01*
X81237506Y-65380463D01*
X81140815Y-65459815D01*
X81061463Y-65556506D01*
X81002498Y-65666820D01*
X80966188Y-65786518D01*
X80953928Y-65911000D01*
X77579166Y-65911000D01*
X77866251Y-65623916D01*
X77866255Y-65623911D01*
X78720167Y-64770000D01*
X147428950Y-64770000D01*
X156845000Y-74186052D01*
X156845001Y-84392611D01*
X156845000Y-84392621D01*
X156845000Y-84563949D01*
X155048950Y-86360000D01*
X142812620Y-86360000D01*
X142626037Y-86378377D01*
X142386641Y-86450997D01*
X142166012Y-86568925D01*
X141972630Y-86727630D01*
X141813925Y-86921012D01*
X141695997Y-87141641D01*
X141623377Y-87381037D01*
X141598856Y-87630000D01*
X141623377Y-87878963D01*
X141695997Y-88118359D01*
X141813925Y-88338988D01*
X141972630Y-88532370D01*
X142166012Y-88691075D01*
X142386641Y-88809003D01*
X142626037Y-88881623D01*
X142812620Y-88900000D01*
X155512627Y-88900000D01*
X155575000Y-88906143D01*
X155637373Y-88900000D01*
X155637380Y-88900000D01*
X155823963Y-88881623D01*
X156063359Y-88809003D01*
X156283988Y-88691075D01*
X156477370Y-88532370D01*
X156517141Y-88483909D01*
X156845000Y-88156050D01*
X156845001Y-104883947D01*
X152508950Y-109220000D01*
X142812620Y-109220000D01*
X142626037Y-109238377D01*
X142386641Y-109310997D01*
X142166012Y-109428925D01*
X141972630Y-109587630D01*
X141813925Y-109781012D01*
X141695997Y-110001641D01*
X141623377Y-110241037D01*
X141598856Y-110490000D01*
X141623377Y-110738963D01*
X141695997Y-110978359D01*
X141813925Y-111198988D01*
X141972630Y-111392370D01*
X142166012Y-111551075D01*
X142386641Y-111669003D01*
X142626037Y-111741623D01*
X142812620Y-111760000D01*
X152972627Y-111760000D01*
X153035000Y-111766143D01*
X153097373Y-111760000D01*
X153097380Y-111760000D01*
X153283963Y-111741623D01*
X153523359Y-111669003D01*
X153743988Y-111551075D01*
X153937370Y-111392370D01*
X153977141Y-111343909D01*
X158968920Y-106352132D01*
X159017370Y-106312370D01*
X159057132Y-106263920D01*
X159057135Y-106263917D01*
X159098171Y-106213914D01*
X159176075Y-106118988D01*
X159294003Y-105898359D01*
X159353568Y-105702000D01*
X159366623Y-105658964D01*
X159372529Y-105599000D01*
X159385000Y-105472380D01*
X159385000Y-105472373D01*
X159391143Y-105410000D01*
X159385000Y-105347627D01*
X159385000Y-85152374D01*
X159391143Y-85090001D01*
X159385000Y-85027628D01*
X159385000Y-73722380D01*
X159391144Y-73660000D01*
X159366623Y-73411037D01*
X159294003Y-73171641D01*
X159176075Y-72951012D01*
X159098171Y-72856086D01*
X159057135Y-72806083D01*
X159057132Y-72806080D01*
X159017370Y-72757630D01*
X158968921Y-72717869D01*
X152705923Y-66454872D01*
X155245000Y-66454872D01*
X155245000Y-66895128D01*
X155330890Y-67326925D01*
X155499369Y-67733669D01*
X155743962Y-68099729D01*
X156055271Y-68411038D01*
X156421331Y-68655631D01*
X156828075Y-68824110D01*
X157259872Y-68910000D01*
X157700128Y-68910000D01*
X158131925Y-68824110D01*
X158538669Y-68655631D01*
X158904729Y-68411038D01*
X159216038Y-68099729D01*
X159460631Y-67733669D01*
X159629110Y-67326925D01*
X159715000Y-66895128D01*
X159715000Y-66454872D01*
X159629110Y-66023075D01*
X159460631Y-65616331D01*
X159216038Y-65250271D01*
X158904729Y-64938962D01*
X158538669Y-64694369D01*
X158131925Y-64525890D01*
X157700128Y-64440000D01*
X157259872Y-64440000D01*
X156828075Y-64525890D01*
X156421331Y-64694369D01*
X156055271Y-64938962D01*
X155743962Y-65250271D01*
X155499369Y-65616331D01*
X155330890Y-66023075D01*
X155245000Y-66454872D01*
X152705923Y-66454872D01*
X148897141Y-62646091D01*
X148857370Y-62597630D01*
X148663988Y-62438925D01*
X148443359Y-62320997D01*
X148225796Y-62255000D01*
X162535000Y-62255000D01*
X162535001Y-159995000D01*
X64795000Y-159995000D01*
X64795000Y-158615413D01*
X75244192Y-158615413D01*
X75339956Y-158879814D01*
X75629571Y-159020704D01*
X75941108Y-159102384D01*
X76262595Y-159121718D01*
X76581675Y-159077961D01*
X76886088Y-158972795D01*
X77060044Y-158879814D01*
X77155808Y-158615413D01*
X76200000Y-157659605D01*
X75244192Y-158615413D01*
X64795000Y-158615413D01*
X64795000Y-157542595D01*
X74558282Y-157542595D01*
X74602039Y-157861675D01*
X74707205Y-158166088D01*
X74800186Y-158340044D01*
X75064587Y-158435808D01*
X76020395Y-157480000D01*
X76379605Y-157480000D01*
X77335413Y-158435808D01*
X77599814Y-158340044D01*
X77740704Y-158050429D01*
X77822384Y-157738892D01*
X77841718Y-157417405D01*
X77828219Y-157318967D01*
X79065000Y-157318967D01*
X79065000Y-157641033D01*
X79127832Y-157956912D01*
X79251082Y-158254463D01*
X79430013Y-158522252D01*
X79657748Y-158749987D01*
X79925537Y-158928918D01*
X80223088Y-159052168D01*
X80538967Y-159115000D01*
X80861033Y-159115000D01*
X81176912Y-159052168D01*
X81474463Y-158928918D01*
X81742252Y-158749987D01*
X81876826Y-158615413D01*
X96199192Y-158615413D01*
X96294956Y-158879814D01*
X96584571Y-159020704D01*
X96896108Y-159102384D01*
X97217595Y-159121718D01*
X97536675Y-159077961D01*
X97841088Y-158972795D01*
X98015044Y-158879814D01*
X98110808Y-158615413D01*
X97155000Y-157659605D01*
X96199192Y-158615413D01*
X81876826Y-158615413D01*
X81969987Y-158522252D01*
X82148918Y-158254463D01*
X82272168Y-157956912D01*
X82314319Y-157745000D01*
X86091928Y-157745000D01*
X86104188Y-157869482D01*
X86140498Y-157989180D01*
X86199463Y-158099494D01*
X86278815Y-158196185D01*
X86375506Y-158275537D01*
X86485820Y-158334502D01*
X86605518Y-158370812D01*
X86730000Y-158383072D01*
X87344250Y-158380000D01*
X87503000Y-158221250D01*
X87503000Y-156972000D01*
X87757000Y-156972000D01*
X87757000Y-158221250D01*
X87915750Y-158380000D01*
X88530000Y-158383072D01*
X88654482Y-158370812D01*
X88774180Y-158334502D01*
X88884494Y-158275537D01*
X88981185Y-158196185D01*
X89060537Y-158099494D01*
X89119502Y-157989180D01*
X89155812Y-157869482D01*
X89168072Y-157745000D01*
X89167060Y-157542595D01*
X95513282Y-157542595D01*
X95557039Y-157861675D01*
X95662205Y-158166088D01*
X95755186Y-158340044D01*
X96019587Y-158435808D01*
X96975395Y-157480000D01*
X97334605Y-157480000D01*
X98290413Y-158435808D01*
X98554814Y-158340044D01*
X98695704Y-158050429D01*
X98777384Y-157738892D01*
X98796718Y-157417405D01*
X98783219Y-157318967D01*
X100020000Y-157318967D01*
X100020000Y-157641033D01*
X100082832Y-157956912D01*
X100206082Y-158254463D01*
X100385013Y-158522252D01*
X100612748Y-158749987D01*
X100880537Y-158928918D01*
X101178088Y-159052168D01*
X101493967Y-159115000D01*
X101816033Y-159115000D01*
X102131912Y-159052168D01*
X102429463Y-158928918D01*
X102697252Y-158749987D01*
X102924987Y-158522252D01*
X103103918Y-158254463D01*
X103227168Y-157956912D01*
X103269319Y-157745000D01*
X106411928Y-157745000D01*
X106424188Y-157869482D01*
X106460498Y-157989180D01*
X106519463Y-158099494D01*
X106598815Y-158196185D01*
X106695506Y-158275537D01*
X106805820Y-158334502D01*
X106925518Y-158370812D01*
X107050000Y-158383072D01*
X107664250Y-158380000D01*
X107823000Y-158221250D01*
X107823000Y-156972000D01*
X108077000Y-156972000D01*
X108077000Y-158221250D01*
X108235750Y-158380000D01*
X108850000Y-158383072D01*
X108974482Y-158370812D01*
X109094180Y-158334502D01*
X109204494Y-158275537D01*
X109301185Y-158196185D01*
X109380537Y-158099494D01*
X109439502Y-157989180D01*
X109475812Y-157869482D01*
X109488072Y-157745000D01*
X109486692Y-157468967D01*
X117055000Y-157468967D01*
X117055000Y-157791033D01*
X117117832Y-158106912D01*
X117241082Y-158404463D01*
X117420013Y-158672252D01*
X117647748Y-158899987D01*
X117915537Y-159078918D01*
X118213088Y-159202168D01*
X118528967Y-159265000D01*
X118851033Y-159265000D01*
X119166912Y-159202168D01*
X119464463Y-159078918D01*
X119732252Y-158899987D01*
X119866826Y-158765413D01*
X122234192Y-158765413D01*
X122329956Y-159029814D01*
X122619571Y-159170704D01*
X122931108Y-159252384D01*
X123252595Y-159271718D01*
X123407952Y-159250413D01*
X137474192Y-159250413D01*
X137569956Y-159514814D01*
X137859571Y-159655704D01*
X138171108Y-159737384D01*
X138492595Y-159756718D01*
X138811675Y-159712961D01*
X139116088Y-159607795D01*
X139290044Y-159514814D01*
X139385808Y-159250413D01*
X138430000Y-158294605D01*
X137474192Y-159250413D01*
X123407952Y-159250413D01*
X123571675Y-159227961D01*
X123876088Y-159122795D01*
X124050044Y-159029814D01*
X124145808Y-158765413D01*
X123190000Y-157809605D01*
X122234192Y-158765413D01*
X119866826Y-158765413D01*
X119959987Y-158672252D01*
X120138918Y-158404463D01*
X120262168Y-158106912D01*
X120325000Y-157791033D01*
X120325000Y-157692595D01*
X121548282Y-157692595D01*
X121592039Y-158011675D01*
X121697205Y-158316088D01*
X121790186Y-158490044D01*
X122054587Y-158585808D01*
X123010395Y-157630000D01*
X123369605Y-157630000D01*
X124325413Y-158585808D01*
X124589814Y-158490044D01*
X124730704Y-158200429D01*
X124812384Y-157888892D01*
X124821037Y-157745000D01*
X129271928Y-157745000D01*
X129284188Y-157869482D01*
X129320498Y-157989180D01*
X129379463Y-158099494D01*
X129458815Y-158196185D01*
X129555506Y-158275537D01*
X129665820Y-158334502D01*
X129785518Y-158370812D01*
X129910000Y-158383072D01*
X130524250Y-158380000D01*
X130683000Y-158221250D01*
X130683000Y-156972000D01*
X130937000Y-156972000D01*
X130937000Y-158221250D01*
X131095750Y-158380000D01*
X131710000Y-158383072D01*
X131834482Y-158370812D01*
X131954180Y-158334502D01*
X132064494Y-158275537D01*
X132161185Y-158196185D01*
X132176441Y-158177595D01*
X136788282Y-158177595D01*
X136832039Y-158496675D01*
X136937205Y-158801088D01*
X137030186Y-158975044D01*
X137294587Y-159070808D01*
X138250395Y-158115000D01*
X138609605Y-158115000D01*
X139565413Y-159070808D01*
X139829814Y-158975044D01*
X139970704Y-158685429D01*
X140052384Y-158373892D01*
X140071718Y-158052405D01*
X140058219Y-157953967D01*
X141295000Y-157953967D01*
X141295000Y-158276033D01*
X141357832Y-158591912D01*
X141481082Y-158889463D01*
X141660013Y-159157252D01*
X141887748Y-159384987D01*
X142155537Y-159563918D01*
X142453088Y-159687168D01*
X142768967Y-159750000D01*
X143091033Y-159750000D01*
X143406912Y-159687168D01*
X143704463Y-159563918D01*
X143972252Y-159384987D01*
X144199987Y-159157252D01*
X144378918Y-158889463D01*
X144502168Y-158591912D01*
X144565000Y-158276033D01*
X144565000Y-157953967D01*
X144523435Y-157745000D01*
X147686928Y-157745000D01*
X147699188Y-157869482D01*
X147735498Y-157989180D01*
X147794463Y-158099494D01*
X147873815Y-158196185D01*
X147970506Y-158275537D01*
X148080820Y-158334502D01*
X148200518Y-158370812D01*
X148325000Y-158383072D01*
X148939250Y-158380000D01*
X149098000Y-158221250D01*
X149098000Y-156972000D01*
X149352000Y-156972000D01*
X149352000Y-158221250D01*
X149510750Y-158380000D01*
X150125000Y-158383072D01*
X150249482Y-158370812D01*
X150369180Y-158334502D01*
X150479494Y-158275537D01*
X150576185Y-158196185D01*
X150655537Y-158099494D01*
X150714502Y-157989180D01*
X150750812Y-157869482D01*
X150763072Y-157745000D01*
X150760000Y-157130750D01*
X150601250Y-156972000D01*
X149352000Y-156972000D01*
X149098000Y-156972000D01*
X147848750Y-156972000D01*
X147690000Y-157130750D01*
X147686928Y-157745000D01*
X144523435Y-157745000D01*
X144502168Y-157638088D01*
X144378918Y-157340537D01*
X144199987Y-157072748D01*
X143972252Y-156845013D01*
X143704463Y-156666082D01*
X143406912Y-156542832D01*
X143091033Y-156480000D01*
X142768967Y-156480000D01*
X142453088Y-156542832D01*
X142155537Y-156666082D01*
X141887748Y-156845013D01*
X141660013Y-157072748D01*
X141481082Y-157340537D01*
X141357832Y-157638088D01*
X141295000Y-157953967D01*
X140058219Y-157953967D01*
X140027961Y-157733325D01*
X139922795Y-157428912D01*
X139829814Y-157254956D01*
X139565413Y-157159192D01*
X138609605Y-158115000D01*
X138250395Y-158115000D01*
X137294587Y-157159192D01*
X137030186Y-157254956D01*
X136889296Y-157544571D01*
X136807616Y-157856108D01*
X136788282Y-158177595D01*
X132176441Y-158177595D01*
X132240537Y-158099494D01*
X132299502Y-157989180D01*
X132335812Y-157869482D01*
X132348072Y-157745000D01*
X132345000Y-157130750D01*
X132193837Y-156979587D01*
X137474192Y-156979587D01*
X138430000Y-157935395D01*
X139385808Y-156979587D01*
X139290044Y-156715186D01*
X139000429Y-156574296D01*
X138688892Y-156492616D01*
X138367405Y-156473282D01*
X138048325Y-156517039D01*
X137743912Y-156622205D01*
X137569956Y-156715186D01*
X137474192Y-156979587D01*
X132193837Y-156979587D01*
X132186250Y-156972000D01*
X130937000Y-156972000D01*
X130683000Y-156972000D01*
X129433750Y-156972000D01*
X129275000Y-157130750D01*
X129271928Y-157745000D01*
X124821037Y-157745000D01*
X124831718Y-157567405D01*
X124787961Y-157248325D01*
X124682795Y-156943912D01*
X124589814Y-156769956D01*
X124325413Y-156674192D01*
X123369605Y-157630000D01*
X123010395Y-157630000D01*
X122054587Y-156674192D01*
X121790186Y-156769956D01*
X121649296Y-157059571D01*
X121567616Y-157371108D01*
X121548282Y-157692595D01*
X120325000Y-157692595D01*
X120325000Y-157468967D01*
X120262168Y-157153088D01*
X120138918Y-156855537D01*
X119959987Y-156587748D01*
X119866826Y-156494587D01*
X122234192Y-156494587D01*
X123190000Y-157450395D01*
X124145808Y-156494587D01*
X124050044Y-156230186D01*
X123760429Y-156089296D01*
X123448892Y-156007616D01*
X123127405Y-155988282D01*
X122808325Y-156032039D01*
X122503912Y-156137205D01*
X122329956Y-156230186D01*
X122234192Y-156494587D01*
X119866826Y-156494587D01*
X119732252Y-156360013D01*
X119464463Y-156181082D01*
X119166912Y-156057832D01*
X118851033Y-155995000D01*
X118528967Y-155995000D01*
X118213088Y-156057832D01*
X117915537Y-156181082D01*
X117647748Y-156360013D01*
X117420013Y-156587748D01*
X117241082Y-156855537D01*
X117117832Y-157153088D01*
X117055000Y-157468967D01*
X109486692Y-157468967D01*
X109485000Y-157130750D01*
X109326250Y-156972000D01*
X108077000Y-156972000D01*
X107823000Y-156972000D01*
X106573750Y-156972000D01*
X106415000Y-157130750D01*
X106411928Y-157745000D01*
X103269319Y-157745000D01*
X103290000Y-157641033D01*
X103290000Y-157318967D01*
X103227168Y-157003088D01*
X103103918Y-156705537D01*
X102924987Y-156437748D01*
X102697252Y-156210013D01*
X102429463Y-156031082D01*
X102221644Y-155945000D01*
X106411928Y-155945000D01*
X106415000Y-156559250D01*
X106573750Y-156718000D01*
X107823000Y-156718000D01*
X107823000Y-156698000D01*
X108077000Y-156698000D01*
X108077000Y-156718000D01*
X109326250Y-156718000D01*
X109485000Y-156559250D01*
X109488072Y-155945000D01*
X129271928Y-155945000D01*
X129275000Y-156559250D01*
X129433750Y-156718000D01*
X130683000Y-156718000D01*
X130683000Y-156698000D01*
X130937000Y-156698000D01*
X130937000Y-156718000D01*
X132186250Y-156718000D01*
X132345000Y-156559250D01*
X132348072Y-155945000D01*
X147686928Y-155945000D01*
X147690000Y-156559250D01*
X147848750Y-156718000D01*
X149098000Y-156718000D01*
X149098000Y-156698000D01*
X149352000Y-156698000D01*
X149352000Y-156718000D01*
X150601250Y-156718000D01*
X150760000Y-156559250D01*
X150763072Y-155945000D01*
X150750812Y-155820518D01*
X150714502Y-155700820D01*
X150655537Y-155590506D01*
X150576185Y-155493815D01*
X150479494Y-155414463D01*
X150369180Y-155355498D01*
X150367117Y-155354872D01*
X155880000Y-155354872D01*
X155880000Y-155795128D01*
X155965890Y-156226925D01*
X156134369Y-156633669D01*
X156378962Y-156999729D01*
X156690271Y-157311038D01*
X157056331Y-157555631D01*
X157463075Y-157724110D01*
X157894872Y-157810000D01*
X158335128Y-157810000D01*
X158766925Y-157724110D01*
X159173669Y-157555631D01*
X159539729Y-157311038D01*
X159851038Y-156999729D01*
X160095631Y-156633669D01*
X160264110Y-156226925D01*
X160350000Y-155795128D01*
X160350000Y-155354872D01*
X160264110Y-154923075D01*
X160095631Y-154516331D01*
X159851038Y-154150271D01*
X159539729Y-153838962D01*
X159173669Y-153594369D01*
X158766925Y-153425890D01*
X158335128Y-153340000D01*
X157894872Y-153340000D01*
X157463075Y-153425890D01*
X157056331Y-153594369D01*
X156690271Y-153838962D01*
X156378962Y-154150271D01*
X156134369Y-154516331D01*
X155965890Y-154923075D01*
X155880000Y-155354872D01*
X150367117Y-155354872D01*
X150350873Y-155349944D01*
X150417312Y-155283505D01*
X150585299Y-155032095D01*
X150701011Y-154752743D01*
X150760000Y-154456184D01*
X150760000Y-154153816D01*
X150701011Y-153857257D01*
X150585299Y-153577905D01*
X150417312Y-153326495D01*
X150203505Y-153112688D01*
X149952095Y-152944701D01*
X149672743Y-152828989D01*
X149376184Y-152770000D01*
X149073816Y-152770000D01*
X148777257Y-152828989D01*
X148497905Y-152944701D01*
X148246495Y-153112688D01*
X148032688Y-153326495D01*
X147864701Y-153577905D01*
X147748989Y-153857257D01*
X147690000Y-154153816D01*
X147690000Y-154456184D01*
X147748989Y-154752743D01*
X147864701Y-155032095D01*
X148032688Y-155283505D01*
X148099127Y-155349944D01*
X148080820Y-155355498D01*
X147970506Y-155414463D01*
X147873815Y-155493815D01*
X147794463Y-155590506D01*
X147735498Y-155700820D01*
X147699188Y-155820518D01*
X147686928Y-155945000D01*
X132348072Y-155945000D01*
X132335812Y-155820518D01*
X132299502Y-155700820D01*
X132240537Y-155590506D01*
X132161185Y-155493815D01*
X132064494Y-155414463D01*
X131954180Y-155355498D01*
X131935873Y-155349944D01*
X132002312Y-155283505D01*
X132170299Y-155032095D01*
X132286011Y-154752743D01*
X132345000Y-154456184D01*
X132345000Y-154153816D01*
X132286011Y-153857257D01*
X132170299Y-153577905D01*
X132002312Y-153326495D01*
X131788505Y-153112688D01*
X131537095Y-152944701D01*
X131257743Y-152828989D01*
X130961184Y-152770000D01*
X130658816Y-152770000D01*
X130362257Y-152828989D01*
X130082905Y-152944701D01*
X129831495Y-153112688D01*
X129617688Y-153326495D01*
X129449701Y-153577905D01*
X129333989Y-153857257D01*
X129275000Y-154153816D01*
X129275000Y-154456184D01*
X129333989Y-154752743D01*
X129449701Y-155032095D01*
X129617688Y-155283505D01*
X129684127Y-155349944D01*
X129665820Y-155355498D01*
X129555506Y-155414463D01*
X129458815Y-155493815D01*
X129379463Y-155590506D01*
X129320498Y-155700820D01*
X129284188Y-155820518D01*
X129271928Y-155945000D01*
X109488072Y-155945000D01*
X109475812Y-155820518D01*
X109439502Y-155700820D01*
X109380537Y-155590506D01*
X109301185Y-155493815D01*
X109204494Y-155414463D01*
X109094180Y-155355498D01*
X109075873Y-155349944D01*
X109142312Y-155283505D01*
X109310299Y-155032095D01*
X109426011Y-154752743D01*
X109485000Y-154456184D01*
X109485000Y-154153816D01*
X109426011Y-153857257D01*
X109310299Y-153577905D01*
X109142312Y-153326495D01*
X108928505Y-153112688D01*
X108677095Y-152944701D01*
X108397743Y-152828989D01*
X108101184Y-152770000D01*
X107798816Y-152770000D01*
X107502257Y-152828989D01*
X107222905Y-152944701D01*
X106971495Y-153112688D01*
X106757688Y-153326495D01*
X106589701Y-153577905D01*
X106473989Y-153857257D01*
X106415000Y-154153816D01*
X106415000Y-154456184D01*
X106473989Y-154752743D01*
X106589701Y-155032095D01*
X106757688Y-155283505D01*
X106824127Y-155349944D01*
X106805820Y-155355498D01*
X106695506Y-155414463D01*
X106598815Y-155493815D01*
X106519463Y-155590506D01*
X106460498Y-155700820D01*
X106424188Y-155820518D01*
X106411928Y-155945000D01*
X102221644Y-155945000D01*
X102131912Y-155907832D01*
X101816033Y-155845000D01*
X101493967Y-155845000D01*
X101178088Y-155907832D01*
X100880537Y-156031082D01*
X100612748Y-156210013D01*
X100385013Y-156437748D01*
X100206082Y-156705537D01*
X100082832Y-157003088D01*
X100020000Y-157318967D01*
X98783219Y-157318967D01*
X98752961Y-157098325D01*
X98647795Y-156793912D01*
X98554814Y-156619956D01*
X98290413Y-156524192D01*
X97334605Y-157480000D01*
X96975395Y-157480000D01*
X96019587Y-156524192D01*
X95755186Y-156619956D01*
X95614296Y-156909571D01*
X95532616Y-157221108D01*
X95513282Y-157542595D01*
X89167060Y-157542595D01*
X89165000Y-157130750D01*
X89006250Y-156972000D01*
X87757000Y-156972000D01*
X87503000Y-156972000D01*
X86253750Y-156972000D01*
X86095000Y-157130750D01*
X86091928Y-157745000D01*
X82314319Y-157745000D01*
X82335000Y-157641033D01*
X82335000Y-157318967D01*
X82272168Y-157003088D01*
X82148918Y-156705537D01*
X81969987Y-156437748D01*
X81742252Y-156210013D01*
X81474463Y-156031082D01*
X81266644Y-155945000D01*
X86091928Y-155945000D01*
X86095000Y-156559250D01*
X86253750Y-156718000D01*
X87503000Y-156718000D01*
X87503000Y-156698000D01*
X87757000Y-156698000D01*
X87757000Y-156718000D01*
X89006250Y-156718000D01*
X89165000Y-156559250D01*
X89166073Y-156344587D01*
X96199192Y-156344587D01*
X97155000Y-157300395D01*
X98110808Y-156344587D01*
X98015044Y-156080186D01*
X97725429Y-155939296D01*
X97413892Y-155857616D01*
X97092405Y-155838282D01*
X96773325Y-155882039D01*
X96468912Y-155987205D01*
X96294956Y-156080186D01*
X96199192Y-156344587D01*
X89166073Y-156344587D01*
X89168072Y-155945000D01*
X89155812Y-155820518D01*
X89119502Y-155700820D01*
X89060537Y-155590506D01*
X88981185Y-155493815D01*
X88884494Y-155414463D01*
X88774180Y-155355498D01*
X88755873Y-155349944D01*
X88822312Y-155283505D01*
X88990299Y-155032095D01*
X89106011Y-154752743D01*
X89165000Y-154456184D01*
X89165000Y-154153816D01*
X89106011Y-153857257D01*
X88990299Y-153577905D01*
X88822312Y-153326495D01*
X88608505Y-153112688D01*
X88357095Y-152944701D01*
X88077743Y-152828989D01*
X87781184Y-152770000D01*
X87478816Y-152770000D01*
X87182257Y-152828989D01*
X86902905Y-152944701D01*
X86651495Y-153112688D01*
X86437688Y-153326495D01*
X86269701Y-153577905D01*
X86153989Y-153857257D01*
X86095000Y-154153816D01*
X86095000Y-154456184D01*
X86153989Y-154752743D01*
X86269701Y-155032095D01*
X86437688Y-155283505D01*
X86504127Y-155349944D01*
X86485820Y-155355498D01*
X86375506Y-155414463D01*
X86278815Y-155493815D01*
X86199463Y-155590506D01*
X86140498Y-155700820D01*
X86104188Y-155820518D01*
X86091928Y-155945000D01*
X81266644Y-155945000D01*
X81176912Y-155907832D01*
X80861033Y-155845000D01*
X80538967Y-155845000D01*
X80223088Y-155907832D01*
X79925537Y-156031082D01*
X79657748Y-156210013D01*
X79430013Y-156437748D01*
X79251082Y-156705537D01*
X79127832Y-157003088D01*
X79065000Y-157318967D01*
X77828219Y-157318967D01*
X77797961Y-157098325D01*
X77692795Y-156793912D01*
X77599814Y-156619956D01*
X77335413Y-156524192D01*
X76379605Y-157480000D01*
X76020395Y-157480000D01*
X75064587Y-156524192D01*
X74800186Y-156619956D01*
X74659296Y-156909571D01*
X74577616Y-157221108D01*
X74558282Y-157542595D01*
X64795000Y-157542595D01*
X64795000Y-154719872D01*
X66980000Y-154719872D01*
X66980000Y-155160128D01*
X67065890Y-155591925D01*
X67234369Y-155998669D01*
X67478962Y-156364729D01*
X67790271Y-156676038D01*
X68156331Y-156920631D01*
X68563075Y-157089110D01*
X68994872Y-157175000D01*
X69435128Y-157175000D01*
X69866925Y-157089110D01*
X70273669Y-156920631D01*
X70639729Y-156676038D01*
X70951038Y-156364729D01*
X70964496Y-156344587D01*
X75244192Y-156344587D01*
X76200000Y-157300395D01*
X77155808Y-156344587D01*
X77060044Y-156080186D01*
X76770429Y-155939296D01*
X76458892Y-155857616D01*
X76137405Y-155838282D01*
X75818325Y-155882039D01*
X75513912Y-155987205D01*
X75339956Y-156080186D01*
X75244192Y-156344587D01*
X70964496Y-156344587D01*
X71195631Y-155998669D01*
X71364110Y-155591925D01*
X71450000Y-155160128D01*
X71450000Y-154719872D01*
X71364110Y-154288075D01*
X71195631Y-153881331D01*
X70951038Y-153515271D01*
X70639729Y-153203962D01*
X70273669Y-152959369D01*
X69866925Y-152790890D01*
X69435128Y-152705000D01*
X68994872Y-152705000D01*
X68563075Y-152790890D01*
X68156331Y-152959369D01*
X67790271Y-153203962D01*
X67478962Y-153515271D01*
X67234369Y-153881331D01*
X67065890Y-154288075D01*
X66980000Y-154719872D01*
X64795000Y-154719872D01*
X64795000Y-152115413D01*
X75244192Y-152115413D01*
X75339956Y-152379814D01*
X75629571Y-152520704D01*
X75941108Y-152602384D01*
X76262595Y-152621718D01*
X76581675Y-152577961D01*
X76886088Y-152472795D01*
X77060044Y-152379814D01*
X77155808Y-152115413D01*
X76200000Y-151159605D01*
X75244192Y-152115413D01*
X64795000Y-152115413D01*
X64795000Y-151042595D01*
X74558282Y-151042595D01*
X74602039Y-151361675D01*
X74707205Y-151666088D01*
X74800186Y-151840044D01*
X75064587Y-151935808D01*
X76020395Y-150980000D01*
X76379605Y-150980000D01*
X77335413Y-151935808D01*
X77599814Y-151840044D01*
X77740704Y-151550429D01*
X77822384Y-151238892D01*
X77841718Y-150917405D01*
X77828219Y-150818967D01*
X79065000Y-150818967D01*
X79065000Y-151141033D01*
X79127832Y-151456912D01*
X79251082Y-151754463D01*
X79430013Y-152022252D01*
X79657748Y-152249987D01*
X79925537Y-152428918D01*
X80223088Y-152552168D01*
X80538967Y-152615000D01*
X80861033Y-152615000D01*
X81176912Y-152552168D01*
X81474463Y-152428918D01*
X81742252Y-152249987D01*
X81876826Y-152115413D01*
X96199192Y-152115413D01*
X96294956Y-152379814D01*
X96584571Y-152520704D01*
X96896108Y-152602384D01*
X97217595Y-152621718D01*
X97536675Y-152577961D01*
X97841088Y-152472795D01*
X98015044Y-152379814D01*
X98110808Y-152115413D01*
X97155000Y-151159605D01*
X96199192Y-152115413D01*
X81876826Y-152115413D01*
X81969987Y-152022252D01*
X82148918Y-151754463D01*
X82272168Y-151456912D01*
X82335000Y-151141033D01*
X82335000Y-151042595D01*
X95513282Y-151042595D01*
X95557039Y-151361675D01*
X95662205Y-151666088D01*
X95755186Y-151840044D01*
X96019587Y-151935808D01*
X96975395Y-150980000D01*
X97334605Y-150980000D01*
X98290413Y-151935808D01*
X98554814Y-151840044D01*
X98695704Y-151550429D01*
X98777384Y-151238892D01*
X98796718Y-150917405D01*
X98752961Y-150598325D01*
X98647795Y-150293912D01*
X98554814Y-150119956D01*
X98290413Y-150024192D01*
X97334605Y-150980000D01*
X96975395Y-150980000D01*
X96019587Y-150024192D01*
X95755186Y-150119956D01*
X95614296Y-150409571D01*
X95532616Y-150721108D01*
X95513282Y-151042595D01*
X82335000Y-151042595D01*
X82335000Y-150818967D01*
X82313941Y-150713097D01*
X83182451Y-149844587D01*
X96199192Y-149844587D01*
X97155000Y-150800395D01*
X98110808Y-149844587D01*
X98015044Y-149580186D01*
X97725429Y-149439296D01*
X97413892Y-149357616D01*
X97092405Y-149338282D01*
X96773325Y-149382039D01*
X96468912Y-149487205D01*
X96294956Y-149580186D01*
X96199192Y-149844587D01*
X83182451Y-149844587D01*
X86659538Y-146367500D01*
X98706237Y-146367500D01*
X98699774Y-146383102D01*
X98660000Y-146583061D01*
X98660000Y-146786939D01*
X98699774Y-146986898D01*
X98777795Y-147175256D01*
X98891063Y-147344774D01*
X99035226Y-147488937D01*
X99204744Y-147602205D01*
X99393102Y-147680226D01*
X99593061Y-147720000D01*
X99796939Y-147720000D01*
X99996898Y-147680226D01*
X100100047Y-147637500D01*
X105639953Y-147637500D01*
X105743102Y-147680226D01*
X105943061Y-147720000D01*
X106146939Y-147720000D01*
X106216872Y-147706090D01*
X103895462Y-150027500D01*
X102984957Y-150027500D01*
X102924987Y-149937748D01*
X102697252Y-149710013D01*
X102429463Y-149531082D01*
X102131912Y-149407832D01*
X101816033Y-149345000D01*
X101493967Y-149345000D01*
X101178088Y-149407832D01*
X100880537Y-149531082D01*
X100612748Y-149710013D01*
X100385013Y-149937748D01*
X100206082Y-150205537D01*
X100082832Y-150503088D01*
X100020000Y-150818967D01*
X100020000Y-151141033D01*
X100082832Y-151456912D01*
X100206082Y-151754463D01*
X100385013Y-152022252D01*
X100612748Y-152249987D01*
X100880537Y-152428918D01*
X101178088Y-152552168D01*
X101493967Y-152615000D01*
X101816033Y-152615000D01*
X102131912Y-152552168D01*
X102429463Y-152428918D01*
X102697252Y-152249987D01*
X102924987Y-152022252D01*
X102984957Y-151932500D01*
X104243215Y-151932500D01*
X104290000Y-151937108D01*
X104336785Y-151932500D01*
X104476723Y-151918717D01*
X104656269Y-151864252D01*
X104821741Y-151775806D01*
X104966778Y-151656778D01*
X104996607Y-151620431D01*
X111130436Y-145486603D01*
X111166778Y-145456778D01*
X111285806Y-145311741D01*
X111374252Y-145146269D01*
X111428717Y-144966723D01*
X111436643Y-144886250D01*
X111447108Y-144780001D01*
X111442500Y-144733216D01*
X111442500Y-136402607D01*
X111643475Y-136201632D01*
X111760000Y-136027240D01*
X111876525Y-136201632D01*
X112077500Y-136402607D01*
X112077501Y-145423205D01*
X112072892Y-145470000D01*
X112091283Y-145656722D01*
X112145749Y-145836269D01*
X112234194Y-146001740D01*
X112278263Y-146055438D01*
X112353223Y-146146778D01*
X112389564Y-146176602D01*
X117076059Y-150863098D01*
X117055000Y-150968967D01*
X117055000Y-151291033D01*
X117117832Y-151606912D01*
X117241082Y-151904463D01*
X117420013Y-152172252D01*
X117647748Y-152399987D01*
X117915537Y-152578918D01*
X118213088Y-152702168D01*
X118528967Y-152765000D01*
X118851033Y-152765000D01*
X119166912Y-152702168D01*
X119464463Y-152578918D01*
X119732252Y-152399987D01*
X119866826Y-152265413D01*
X122234192Y-152265413D01*
X122329956Y-152529814D01*
X122619571Y-152670704D01*
X122931108Y-152752384D01*
X123252595Y-152771718D01*
X123407952Y-152750413D01*
X137474192Y-152750413D01*
X137569956Y-153014814D01*
X137859571Y-153155704D01*
X138171108Y-153237384D01*
X138492595Y-153256718D01*
X138811675Y-153212961D01*
X139116088Y-153107795D01*
X139290044Y-153014814D01*
X139385808Y-152750413D01*
X138430000Y-151794605D01*
X137474192Y-152750413D01*
X123407952Y-152750413D01*
X123571675Y-152727961D01*
X123876088Y-152622795D01*
X124050044Y-152529814D01*
X124145808Y-152265413D01*
X123190000Y-151309605D01*
X122234192Y-152265413D01*
X119866826Y-152265413D01*
X119959987Y-152172252D01*
X120138918Y-151904463D01*
X120262168Y-151606912D01*
X120325000Y-151291033D01*
X120325000Y-151192595D01*
X121548282Y-151192595D01*
X121592039Y-151511675D01*
X121697205Y-151816088D01*
X121790186Y-151990044D01*
X122054587Y-152085808D01*
X123010395Y-151130000D01*
X123369605Y-151130000D01*
X124325413Y-152085808D01*
X124589814Y-151990044D01*
X124730704Y-151700429D01*
X124736690Y-151677595D01*
X136788282Y-151677595D01*
X136832039Y-151996675D01*
X136937205Y-152301088D01*
X137030186Y-152475044D01*
X137294587Y-152570808D01*
X138250395Y-151615000D01*
X138609605Y-151615000D01*
X139565413Y-152570808D01*
X139829814Y-152475044D01*
X139970704Y-152185429D01*
X140052384Y-151873892D01*
X140071718Y-151552405D01*
X140027961Y-151233325D01*
X139922795Y-150928912D01*
X139829814Y-150754956D01*
X139565413Y-150659192D01*
X138609605Y-151615000D01*
X138250395Y-151615000D01*
X137294587Y-150659192D01*
X137030186Y-150754956D01*
X136889296Y-151044571D01*
X136807616Y-151356108D01*
X136788282Y-151677595D01*
X124736690Y-151677595D01*
X124812384Y-151388892D01*
X124831718Y-151067405D01*
X124787961Y-150748325D01*
X124695120Y-150479587D01*
X137474192Y-150479587D01*
X138430000Y-151435395D01*
X139385808Y-150479587D01*
X139290044Y-150215186D01*
X139000429Y-150074296D01*
X138688892Y-149992616D01*
X138367405Y-149973282D01*
X138048325Y-150017039D01*
X137743912Y-150122205D01*
X137569956Y-150215186D01*
X137474192Y-150479587D01*
X124695120Y-150479587D01*
X124682795Y-150443912D01*
X124589814Y-150269956D01*
X124325413Y-150174192D01*
X123369605Y-151130000D01*
X123010395Y-151130000D01*
X122054587Y-150174192D01*
X121790186Y-150269956D01*
X121649296Y-150559571D01*
X121567616Y-150871108D01*
X121548282Y-151192595D01*
X120325000Y-151192595D01*
X120325000Y-150968967D01*
X120262168Y-150653088D01*
X120138918Y-150355537D01*
X119959987Y-150087748D01*
X119866826Y-149994587D01*
X122234192Y-149994587D01*
X123190000Y-150950395D01*
X124145808Y-149994587D01*
X124050044Y-149730186D01*
X123760429Y-149589296D01*
X123448892Y-149507616D01*
X123127405Y-149488282D01*
X122808325Y-149532039D01*
X122503912Y-149637205D01*
X122329956Y-149730186D01*
X122234192Y-149994587D01*
X119866826Y-149994587D01*
X119732252Y-149860013D01*
X119464463Y-149681082D01*
X119166912Y-149557832D01*
X118851033Y-149495000D01*
X118528967Y-149495000D01*
X118423098Y-149516059D01*
X113982500Y-145075462D01*
X113982500Y-136402607D01*
X114183475Y-136201632D01*
X114300000Y-136027240D01*
X114416525Y-136201632D01*
X114617500Y-136402607D01*
X114617501Y-137748206D01*
X114612892Y-137795000D01*
X114631283Y-137981722D01*
X114685749Y-138161269D01*
X114774195Y-138326741D01*
X114893223Y-138471778D01*
X114929564Y-138501602D01*
X121213397Y-144785436D01*
X121243222Y-144821778D01*
X121388259Y-144940806D01*
X121553731Y-145029252D01*
X121733277Y-145083717D01*
X121919999Y-145102108D01*
X121966784Y-145097500D01*
X135065462Y-145097500D01*
X141316059Y-151348097D01*
X141295000Y-151453967D01*
X141295000Y-151776033D01*
X141357832Y-152091912D01*
X141481082Y-152389463D01*
X141660013Y-152657252D01*
X141887748Y-152884987D01*
X142155537Y-153063918D01*
X142453088Y-153187168D01*
X142768967Y-153250000D01*
X143091033Y-153250000D01*
X143406912Y-153187168D01*
X143704463Y-153063918D01*
X143972252Y-152884987D01*
X144199987Y-152657252D01*
X144378918Y-152389463D01*
X144502168Y-152091912D01*
X144565000Y-151776033D01*
X144565000Y-151453967D01*
X144502168Y-151138088D01*
X144378918Y-150840537D01*
X144199987Y-150572748D01*
X143972252Y-150345013D01*
X143704463Y-150166082D01*
X143406912Y-150042832D01*
X143091033Y-149980000D01*
X142768967Y-149980000D01*
X142663097Y-150001059D01*
X136166607Y-143504569D01*
X136136778Y-143468222D01*
X135991741Y-143349194D01*
X135826269Y-143260748D01*
X135646723Y-143206283D01*
X135506785Y-143192500D01*
X135460000Y-143187892D01*
X135413215Y-143192500D01*
X122314539Y-143192500D01*
X116522500Y-137400462D01*
X116522500Y-136402607D01*
X116723475Y-136201632D01*
X116840000Y-136027240D01*
X116956525Y-136201632D01*
X117163368Y-136408475D01*
X117406589Y-136570990D01*
X117676842Y-136682932D01*
X117963740Y-136740000D01*
X118256260Y-136740000D01*
X118543158Y-136682932D01*
X118813411Y-136570990D01*
X119056632Y-136408475D01*
X119263475Y-136201632D01*
X119380000Y-136027240D01*
X119496525Y-136201632D01*
X119703368Y-136408475D01*
X119946589Y-136570990D01*
X120216842Y-136682932D01*
X120503740Y-136740000D01*
X120796260Y-136740000D01*
X121083158Y-136682932D01*
X121353411Y-136570990D01*
X121596632Y-136408475D01*
X121803475Y-136201632D01*
X121920000Y-136027240D01*
X122036525Y-136201632D01*
X122243368Y-136408475D01*
X122486589Y-136570990D01*
X122756842Y-136682932D01*
X123043740Y-136740000D01*
X123336260Y-136740000D01*
X123623158Y-136682932D01*
X123893411Y-136570990D01*
X124136632Y-136408475D01*
X124343475Y-136201632D01*
X124460000Y-136027240D01*
X124576525Y-136201632D01*
X124783368Y-136408475D01*
X125026589Y-136570990D01*
X125296842Y-136682932D01*
X125583740Y-136740000D01*
X125876260Y-136740000D01*
X126163158Y-136682932D01*
X126433411Y-136570990D01*
X126676632Y-136408475D01*
X126883475Y-136201632D01*
X127000000Y-136027240D01*
X127116525Y-136201632D01*
X127323368Y-136408475D01*
X127566589Y-136570990D01*
X127836842Y-136682932D01*
X128123740Y-136740000D01*
X128416260Y-136740000D01*
X128703158Y-136682932D01*
X128973411Y-136570990D01*
X129216632Y-136408475D01*
X129423475Y-136201632D01*
X129540000Y-136027240D01*
X129656525Y-136201632D01*
X129863368Y-136408475D01*
X130106589Y-136570990D01*
X130376842Y-136682932D01*
X130663740Y-136740000D01*
X130956260Y-136740000D01*
X131243158Y-136682932D01*
X131513411Y-136570990D01*
X131756632Y-136408475D01*
X131963475Y-136201632D01*
X132080000Y-136027240D01*
X132196525Y-136201632D01*
X132403368Y-136408475D01*
X132646589Y-136570990D01*
X132916842Y-136682932D01*
X133203740Y-136740000D01*
X133496260Y-136740000D01*
X133783158Y-136682932D01*
X134053411Y-136570990D01*
X134296632Y-136408475D01*
X134503475Y-136201632D01*
X134620000Y-136027240D01*
X134736525Y-136201632D01*
X134943368Y-136408475D01*
X135186589Y-136570990D01*
X135456842Y-136682932D01*
X135743740Y-136740000D01*
X136036260Y-136740000D01*
X136323158Y-136682932D01*
X136593411Y-136570990D01*
X136836632Y-136408475D01*
X137043475Y-136201632D01*
X137160000Y-136027240D01*
X137276525Y-136201632D01*
X137483368Y-136408475D01*
X137726589Y-136570990D01*
X137996842Y-136682932D01*
X138283740Y-136740000D01*
X138576260Y-136740000D01*
X138863158Y-136682932D01*
X139133411Y-136570990D01*
X139376632Y-136408475D01*
X139583475Y-136201632D01*
X139700000Y-136027240D01*
X139816525Y-136201632D01*
X140023368Y-136408475D01*
X140266589Y-136570990D01*
X140536842Y-136682932D01*
X140823740Y-136740000D01*
X141116260Y-136740000D01*
X141403158Y-136682932D01*
X141673411Y-136570990D01*
X141916632Y-136408475D01*
X142041710Y-136283397D01*
X142661208Y-136283397D01*
X142738843Y-136532472D01*
X143002883Y-136658371D01*
X143286411Y-136730339D01*
X143578531Y-136745611D01*
X143868019Y-136703599D01*
X144143747Y-136605919D01*
X144281157Y-136532472D01*
X144358792Y-136283397D01*
X145201208Y-136283397D01*
X145278843Y-136532472D01*
X145542883Y-136658371D01*
X145826411Y-136730339D01*
X146118531Y-136745611D01*
X146408019Y-136703599D01*
X146683747Y-136605919D01*
X146821157Y-136532472D01*
X146898792Y-136283397D01*
X146050000Y-135434605D01*
X145201208Y-136283397D01*
X144358792Y-136283397D01*
X143510000Y-135434605D01*
X142661208Y-136283397D01*
X142041710Y-136283397D01*
X142123475Y-136201632D01*
X142239311Y-136028271D01*
X142481603Y-136103792D01*
X143330395Y-135255000D01*
X143689605Y-135255000D01*
X144538397Y-136103792D01*
X144780000Y-136028486D01*
X145021603Y-136103792D01*
X145870395Y-135255000D01*
X146229605Y-135255000D01*
X147078397Y-136103792D01*
X147327472Y-136026157D01*
X147453371Y-135762117D01*
X147525339Y-135478589D01*
X147540611Y-135186469D01*
X147498599Y-134896981D01*
X147400919Y-134621253D01*
X147327472Y-134483843D01*
X147078397Y-134406208D01*
X146229605Y-135255000D01*
X145870395Y-135255000D01*
X145021603Y-134406208D01*
X144780000Y-134481514D01*
X144538397Y-134406208D01*
X143689605Y-135255000D01*
X143330395Y-135255000D01*
X142481603Y-134406208D01*
X142239311Y-134481729D01*
X142123475Y-134308368D01*
X142041710Y-134226603D01*
X142661208Y-134226603D01*
X143510000Y-135075395D01*
X144358792Y-134226603D01*
X145201208Y-134226603D01*
X146050000Y-135075395D01*
X146898792Y-134226603D01*
X146821157Y-133977528D01*
X146557117Y-133851629D01*
X146273589Y-133779661D01*
X145981469Y-133764389D01*
X145691981Y-133806401D01*
X145416253Y-133904081D01*
X145278843Y-133977528D01*
X145201208Y-134226603D01*
X144358792Y-134226603D01*
X144281157Y-133977528D01*
X144017117Y-133851629D01*
X143733589Y-133779661D01*
X143441469Y-133764389D01*
X143151981Y-133806401D01*
X142876253Y-133904081D01*
X142738843Y-133977528D01*
X142661208Y-134226603D01*
X142041710Y-134226603D01*
X141916632Y-134101525D01*
X141673411Y-133939010D01*
X141403158Y-133827068D01*
X141116260Y-133770000D01*
X140823740Y-133770000D01*
X140536842Y-133827068D01*
X140266589Y-133939010D01*
X140023368Y-134101525D01*
X139816525Y-134308368D01*
X139700000Y-134482760D01*
X139583475Y-134308368D01*
X139376632Y-134101525D01*
X139133411Y-133939010D01*
X138863158Y-133827068D01*
X138576260Y-133770000D01*
X138283740Y-133770000D01*
X137996842Y-133827068D01*
X137726589Y-133939010D01*
X137483368Y-134101525D01*
X137276525Y-134308368D01*
X137160000Y-134482760D01*
X137043475Y-134308368D01*
X136836632Y-134101525D01*
X136593411Y-133939010D01*
X136323158Y-133827068D01*
X136036260Y-133770000D01*
X135743740Y-133770000D01*
X135456842Y-133827068D01*
X135186589Y-133939010D01*
X134943368Y-134101525D01*
X134736525Y-134308368D01*
X134620000Y-134482760D01*
X134503475Y-134308368D01*
X134296632Y-134101525D01*
X134053411Y-133939010D01*
X133783158Y-133827068D01*
X133496260Y-133770000D01*
X133203740Y-133770000D01*
X132916842Y-133827068D01*
X132646589Y-133939010D01*
X132403368Y-134101525D01*
X132196525Y-134308368D01*
X132080000Y-134482760D01*
X131963475Y-134308368D01*
X131756632Y-134101525D01*
X131513411Y-133939010D01*
X131243158Y-133827068D01*
X130956260Y-133770000D01*
X130663740Y-133770000D01*
X130376842Y-133827068D01*
X130106589Y-133939010D01*
X129863368Y-134101525D01*
X129656525Y-134308368D01*
X129540000Y-134482760D01*
X129423475Y-134308368D01*
X129216632Y-134101525D01*
X128973411Y-133939010D01*
X128703158Y-133827068D01*
X128416260Y-133770000D01*
X128123740Y-133770000D01*
X127836842Y-133827068D01*
X127566589Y-133939010D01*
X127323368Y-134101525D01*
X127116525Y-134308368D01*
X127000000Y-134482760D01*
X126883475Y-134308368D01*
X126676632Y-134101525D01*
X126433411Y-133939010D01*
X126163158Y-133827068D01*
X125876260Y-133770000D01*
X125583740Y-133770000D01*
X125296842Y-133827068D01*
X125026589Y-133939010D01*
X124783368Y-134101525D01*
X124576525Y-134308368D01*
X124460000Y-134482760D01*
X124343475Y-134308368D01*
X124136632Y-134101525D01*
X123893411Y-133939010D01*
X123623158Y-133827068D01*
X123336260Y-133770000D01*
X123043740Y-133770000D01*
X122756842Y-133827068D01*
X122486589Y-133939010D01*
X122243368Y-134101525D01*
X122036525Y-134308368D01*
X121920000Y-134482760D01*
X121803475Y-134308368D01*
X121596632Y-134101525D01*
X121353411Y-133939010D01*
X121083158Y-133827068D01*
X120796260Y-133770000D01*
X120503740Y-133770000D01*
X120216842Y-133827068D01*
X119946589Y-133939010D01*
X119703368Y-134101525D01*
X119496525Y-134308368D01*
X119380000Y-134482760D01*
X119263475Y-134308368D01*
X119056632Y-134101525D01*
X118813411Y-133939010D01*
X118543158Y-133827068D01*
X118256260Y-133770000D01*
X117963740Y-133770000D01*
X117676842Y-133827068D01*
X117406589Y-133939010D01*
X117163368Y-134101525D01*
X116956525Y-134308368D01*
X116840000Y-134482760D01*
X116723475Y-134308368D01*
X116516632Y-134101525D01*
X116273411Y-133939010D01*
X116003158Y-133827068D01*
X115716260Y-133770000D01*
X115423740Y-133770000D01*
X115136842Y-133827068D01*
X114866589Y-133939010D01*
X114623368Y-134101525D01*
X114416525Y-134308368D01*
X114300000Y-134482760D01*
X114183475Y-134308368D01*
X113976632Y-134101525D01*
X113733411Y-133939010D01*
X113463158Y-133827068D01*
X113176260Y-133770000D01*
X112883740Y-133770000D01*
X112596842Y-133827068D01*
X112326589Y-133939010D01*
X112083368Y-134101525D01*
X111876525Y-134308368D01*
X111760000Y-134482760D01*
X111643475Y-134308368D01*
X111436632Y-134101525D01*
X111193411Y-133939010D01*
X110923158Y-133827068D01*
X110636260Y-133770000D01*
X110343740Y-133770000D01*
X110056842Y-133827068D01*
X109786589Y-133939010D01*
X109543368Y-134101525D01*
X109336525Y-134308368D01*
X109220000Y-134482760D01*
X109103475Y-134308368D01*
X108896632Y-134101525D01*
X108653411Y-133939010D01*
X108383158Y-133827068D01*
X108096260Y-133770000D01*
X107803740Y-133770000D01*
X107516842Y-133827068D01*
X107246589Y-133939010D01*
X107003368Y-134101525D01*
X106796525Y-134308368D01*
X106680000Y-134482760D01*
X106563475Y-134308368D01*
X106356632Y-134101525D01*
X106113411Y-133939010D01*
X105843158Y-133827068D01*
X105556260Y-133770000D01*
X105263740Y-133770000D01*
X104976842Y-133827068D01*
X104706589Y-133939010D01*
X104463368Y-134101525D01*
X104256525Y-134308368D01*
X104140000Y-134482760D01*
X104023475Y-134308368D01*
X103816632Y-134101525D01*
X103573411Y-133939010D01*
X103303158Y-133827068D01*
X103016260Y-133770000D01*
X102723740Y-133770000D01*
X102436842Y-133827068D01*
X102166589Y-133939010D01*
X101923368Y-134101525D01*
X101716525Y-134308368D01*
X101600000Y-134482760D01*
X101483475Y-134308368D01*
X101276632Y-134101525D01*
X101033411Y-133939010D01*
X100763158Y-133827068D01*
X100476260Y-133770000D01*
X100183740Y-133770000D01*
X99896842Y-133827068D01*
X99626589Y-133939010D01*
X99383368Y-134101525D01*
X99176525Y-134308368D01*
X99060000Y-134482760D01*
X98943475Y-134308368D01*
X98736632Y-134101525D01*
X98493411Y-133939010D01*
X98223158Y-133827068D01*
X97936260Y-133770000D01*
X97643740Y-133770000D01*
X97356842Y-133827068D01*
X97086589Y-133939010D01*
X96843368Y-134101525D01*
X96636525Y-134308368D01*
X96474010Y-134551589D01*
X96362068Y-134821842D01*
X96305000Y-135108740D01*
X96305000Y-135401260D01*
X96362068Y-135688158D01*
X96474010Y-135958411D01*
X96636525Y-136201632D01*
X96843368Y-136408475D01*
X97086589Y-136570990D01*
X97356842Y-136682932D01*
X97643740Y-136740000D01*
X97936260Y-136740000D01*
X98223158Y-136682932D01*
X98493411Y-136570990D01*
X98736632Y-136408475D01*
X98943475Y-136201632D01*
X99060000Y-136027240D01*
X99176525Y-136201632D01*
X99383368Y-136408475D01*
X99626589Y-136570990D01*
X99896842Y-136682932D01*
X100183740Y-136740000D01*
X100476260Y-136740000D01*
X100763158Y-136682932D01*
X101033411Y-136570990D01*
X101276632Y-136408475D01*
X101483475Y-136201632D01*
X101600000Y-136027240D01*
X101716525Y-136201632D01*
X101923368Y-136408475D01*
X102166589Y-136570990D01*
X102436842Y-136682932D01*
X102723740Y-136740000D01*
X103016260Y-136740000D01*
X103303158Y-136682932D01*
X103573411Y-136570990D01*
X103816632Y-136408475D01*
X104023475Y-136201632D01*
X104140000Y-136027240D01*
X104256525Y-136201632D01*
X104463368Y-136408475D01*
X104706589Y-136570990D01*
X104976842Y-136682932D01*
X105263740Y-136740000D01*
X105556260Y-136740000D01*
X105843158Y-136682932D01*
X106113411Y-136570990D01*
X106356632Y-136408475D01*
X106563475Y-136201632D01*
X106680000Y-136027240D01*
X106796525Y-136201632D01*
X106997500Y-136402607D01*
X106997501Y-141210461D01*
X103745462Y-144462500D01*
X86311784Y-144462500D01*
X86264999Y-144457892D01*
X86078277Y-144476283D01*
X85898731Y-144530748D01*
X85733259Y-144619194D01*
X85588222Y-144738222D01*
X85558393Y-144774569D01*
X80966903Y-149366059D01*
X80861033Y-149345000D01*
X80538967Y-149345000D01*
X80223088Y-149407832D01*
X79925537Y-149531082D01*
X79657748Y-149710013D01*
X79430013Y-149937748D01*
X79251082Y-150205537D01*
X79127832Y-150503088D01*
X79065000Y-150818967D01*
X77828219Y-150818967D01*
X77797961Y-150598325D01*
X77692795Y-150293912D01*
X77599814Y-150119956D01*
X77335413Y-150024192D01*
X76379605Y-150980000D01*
X76020395Y-150980000D01*
X75064587Y-150024192D01*
X74800186Y-150119956D01*
X74659296Y-150409571D01*
X74577616Y-150721108D01*
X74558282Y-151042595D01*
X64795000Y-151042595D01*
X64795000Y-149844587D01*
X75244192Y-149844587D01*
X76200000Y-150800395D01*
X77155808Y-149844587D01*
X77060044Y-149580186D01*
X76770429Y-149439296D01*
X76458892Y-149357616D01*
X76137405Y-149338282D01*
X75818325Y-149382039D01*
X75513912Y-149487205D01*
X75339956Y-149580186D01*
X75244192Y-149844587D01*
X64795000Y-149844587D01*
X64795000Y-144410000D01*
X70851928Y-144410000D01*
X70864188Y-144534482D01*
X70900498Y-144654180D01*
X70959463Y-144764494D01*
X71038815Y-144861185D01*
X71135506Y-144940537D01*
X71245820Y-144999502D01*
X71365518Y-145035812D01*
X71490000Y-145048072D01*
X72104250Y-145045000D01*
X72263000Y-144886250D01*
X72263000Y-143637000D01*
X72517000Y-143637000D01*
X72517000Y-144886250D01*
X72675750Y-145045000D01*
X73290000Y-145048072D01*
X73414482Y-145035812D01*
X73534180Y-144999502D01*
X73644494Y-144940537D01*
X73741185Y-144861185D01*
X73820537Y-144764494D01*
X73879502Y-144654180D01*
X73915812Y-144534482D01*
X73928072Y-144410000D01*
X73925000Y-143795750D01*
X73766250Y-143637000D01*
X72517000Y-143637000D01*
X72263000Y-143637000D01*
X71013750Y-143637000D01*
X70855000Y-143795750D01*
X70851928Y-144410000D01*
X64795000Y-144410000D01*
X64795000Y-142610000D01*
X70851928Y-142610000D01*
X70855000Y-143224250D01*
X71013750Y-143383000D01*
X72263000Y-143383000D01*
X72263000Y-143363000D01*
X72517000Y-143363000D01*
X72517000Y-143383000D01*
X73766250Y-143383000D01*
X73925000Y-143224250D01*
X73928072Y-142610000D01*
X73915812Y-142485518D01*
X73879502Y-142365820D01*
X73820537Y-142255506D01*
X73741185Y-142158815D01*
X73644494Y-142079463D01*
X73534180Y-142020498D01*
X73515873Y-142014944D01*
X73582312Y-141948505D01*
X73750299Y-141697095D01*
X73866011Y-141417743D01*
X73925000Y-141121184D01*
X73925000Y-140818816D01*
X73866011Y-140522257D01*
X73750299Y-140242905D01*
X73582312Y-139991495D01*
X73368505Y-139777688D01*
X73117095Y-139609701D01*
X72837743Y-139493989D01*
X72541184Y-139435000D01*
X72238816Y-139435000D01*
X71942257Y-139493989D01*
X71662905Y-139609701D01*
X71411495Y-139777688D01*
X71197688Y-139991495D01*
X71029701Y-140242905D01*
X70913989Y-140522257D01*
X70855000Y-140818816D01*
X70855000Y-141121184D01*
X70913989Y-141417743D01*
X71029701Y-141697095D01*
X71197688Y-141948505D01*
X71264127Y-142014944D01*
X71245820Y-142020498D01*
X71135506Y-142079463D01*
X71038815Y-142158815D01*
X70959463Y-142255506D01*
X70900498Y-142365820D01*
X70864188Y-142485518D01*
X70851928Y-142610000D01*
X64795000Y-142610000D01*
X64795000Y-130033665D01*
X77210000Y-130033665D01*
X77210000Y-130316335D01*
X77265147Y-130593574D01*
X77373320Y-130854727D01*
X77530363Y-131089759D01*
X77730241Y-131289637D01*
X77965273Y-131446680D01*
X78226426Y-131554853D01*
X78503665Y-131610000D01*
X78786335Y-131610000D01*
X79063574Y-131554853D01*
X79324727Y-131446680D01*
X79559759Y-131289637D01*
X79759637Y-131089759D01*
X79916680Y-130854727D01*
X80024853Y-130593574D01*
X80080000Y-130316335D01*
X80080000Y-130033665D01*
X80078041Y-130023816D01*
X81610000Y-130023816D01*
X81610000Y-130326184D01*
X81668989Y-130622743D01*
X81784701Y-130902095D01*
X81952688Y-131153505D01*
X82166495Y-131367312D01*
X82417905Y-131535299D01*
X82697257Y-131651011D01*
X82993816Y-131710000D01*
X83296184Y-131710000D01*
X83592743Y-131651011D01*
X83872095Y-131535299D01*
X84123505Y-131367312D01*
X84337312Y-131153505D01*
X84505299Y-130902095D01*
X84621011Y-130622743D01*
X84680000Y-130326184D01*
X84680000Y-130023816D01*
X84621011Y-129727257D01*
X84505299Y-129447905D01*
X84337312Y-129196495D01*
X84123505Y-128982688D01*
X83872095Y-128814701D01*
X83592743Y-128698989D01*
X83296184Y-128640000D01*
X82993816Y-128640000D01*
X82697257Y-128698989D01*
X82417905Y-128814701D01*
X82166495Y-128982688D01*
X81952688Y-129196495D01*
X81784701Y-129447905D01*
X81668989Y-129727257D01*
X81610000Y-130023816D01*
X80078041Y-130023816D01*
X80024853Y-129756426D01*
X79916680Y-129495273D01*
X79759637Y-129260241D01*
X79559759Y-129060363D01*
X79324727Y-128903320D01*
X79063574Y-128795147D01*
X78786335Y-128740000D01*
X78503665Y-128740000D01*
X78226426Y-128795147D01*
X77965273Y-128903320D01*
X77730241Y-129060363D01*
X77530363Y-129260241D01*
X77373320Y-129495273D01*
X77265147Y-129756426D01*
X77210000Y-130033665D01*
X64795000Y-130033665D01*
X64795000Y-65819872D01*
X66980000Y-65819872D01*
X66980000Y-66260128D01*
X67065890Y-66691925D01*
X67234369Y-67098669D01*
X67478962Y-67464729D01*
X67790271Y-67776038D01*
X68156331Y-68020631D01*
X68563075Y-68189110D01*
X68994872Y-68275000D01*
X69435128Y-68275000D01*
X69866925Y-68189110D01*
X70273669Y-68020631D01*
X70639729Y-67776038D01*
X70951038Y-67464729D01*
X71195631Y-67098669D01*
X71364110Y-66691925D01*
X71450000Y-66260128D01*
X71450000Y-65819872D01*
X71364110Y-65388075D01*
X71195631Y-64981331D01*
X70951038Y-64615271D01*
X70639729Y-64303962D01*
X70273669Y-64059369D01*
X69866925Y-63890890D01*
X69435128Y-63805000D01*
X68994872Y-63805000D01*
X68563075Y-63890890D01*
X68156331Y-64059369D01*
X67790271Y-64303962D01*
X67478962Y-64615271D01*
X67234369Y-64981331D01*
X67065890Y-65388075D01*
X66980000Y-65819872D01*
X64795000Y-65819872D01*
X64795000Y-62255000D01*
X77923319Y-62255000D01*
X77872532Y-62270406D01*
G37*
X77872532Y-62270406D02*
X77705757Y-62320997D01*
X77485128Y-62438925D01*
X77291746Y-62597630D01*
X77251979Y-62646086D01*
X76070205Y-63827861D01*
X76070200Y-63827865D01*
X70266087Y-69631979D01*
X70217631Y-69671746D01*
X70058926Y-69865128D01*
X69940998Y-70085757D01*
X69868377Y-70325153D01*
X69843857Y-70574116D01*
X69850001Y-70636499D01*
X69850000Y-86932620D01*
X69843856Y-86995000D01*
X69850000Y-87057379D01*
X69850001Y-109792617D01*
X69843857Y-109855000D01*
X69868377Y-110103963D01*
X69893901Y-110188102D01*
X69940998Y-110343359D01*
X70058926Y-110563988D01*
X70217631Y-110757370D01*
X70266087Y-110797137D01*
X77162868Y-117693920D01*
X77202630Y-117742370D01*
X77251080Y-117782132D01*
X77251083Y-117782135D01*
X77256563Y-117786632D01*
X77396012Y-117901075D01*
X77557795Y-117987549D01*
X77535506Y-117999463D01*
X77438815Y-118078815D01*
X77359463Y-118175506D01*
X77300498Y-118285820D01*
X77264188Y-118405518D01*
X77251928Y-118530000D01*
X77251928Y-120230000D01*
X77264188Y-120354482D01*
X77300498Y-120474180D01*
X77359463Y-120584494D01*
X77438815Y-120681185D01*
X77535506Y-120760537D01*
X77645820Y-120819502D01*
X77765518Y-120855812D01*
X77890000Y-120868072D01*
X79590000Y-120868072D01*
X79714482Y-120855812D01*
X79834180Y-120819502D01*
X79944494Y-120760537D01*
X80041185Y-120681185D01*
X80120537Y-120584494D01*
X80179502Y-120474180D01*
X80215812Y-120354482D01*
X80228072Y-120230000D01*
X80228072Y-119868740D01*
X96305000Y-119868740D01*
X96305000Y-120161260D01*
X96362068Y-120448158D01*
X96474010Y-120718411D01*
X96636525Y-120961632D01*
X96843368Y-121168475D01*
X97086589Y-121330990D01*
X97356842Y-121442932D01*
X97643740Y-121500000D01*
X97936260Y-121500000D01*
X98223158Y-121442932D01*
X98493411Y-121330990D01*
X98736632Y-121168475D01*
X98861710Y-121043397D01*
X99481208Y-121043397D01*
X99558843Y-121292472D01*
X99822883Y-121418371D01*
X100106411Y-121490339D01*
X100398531Y-121505611D01*
X100688019Y-121463599D01*
X100963747Y-121365919D01*
X101101157Y-121292472D01*
X101178792Y-121043397D01*
X100330000Y-120194605D01*
X99481208Y-121043397D01*
X98861710Y-121043397D01*
X98943475Y-120961632D01*
X99059311Y-120788271D01*
X99301603Y-120863792D01*
X100150395Y-120015000D01*
X99301603Y-119166208D01*
X99059311Y-119241729D01*
X98943475Y-119068368D01*
X98861710Y-118986603D01*
X99481208Y-118986603D01*
X100330000Y-119835395D01*
X101178792Y-118986603D01*
X101101157Y-118737528D01*
X100837117Y-118611629D01*
X100553589Y-118539661D01*
X100261469Y-118524389D01*
X99971981Y-118566401D01*
X99696253Y-118664081D01*
X99558843Y-118737528D01*
X99481208Y-118986603D01*
X98861710Y-118986603D01*
X98736632Y-118861525D01*
X98493411Y-118699010D01*
X98223158Y-118587068D01*
X97936260Y-118530000D01*
X97643740Y-118530000D01*
X97356842Y-118587068D01*
X97086589Y-118699010D01*
X96843368Y-118861525D01*
X96636525Y-119068368D01*
X96474010Y-119311589D01*
X96362068Y-119581842D01*
X96305000Y-119868740D01*
X80228072Y-119868740D01*
X80228072Y-118530000D01*
X80215812Y-118405518D01*
X80179502Y-118285820D01*
X80120537Y-118175506D01*
X80041185Y-118078815D01*
X79944494Y-117999463D01*
X79834180Y-117940498D01*
X79761620Y-117918487D01*
X79893475Y-117786632D01*
X80055990Y-117543411D01*
X80167932Y-117273158D01*
X80225000Y-116986260D01*
X80225000Y-116693740D01*
X80167932Y-116406842D01*
X80055990Y-116136589D01*
X79893475Y-115893368D01*
X79686632Y-115686525D01*
X79512240Y-115570000D01*
X99803950Y-115570000D01*
X101600000Y-117366051D01*
X101600001Y-119241514D01*
X101358397Y-119166208D01*
X100509605Y-120015000D01*
X101358397Y-120863792D01*
X101600689Y-120788271D01*
X101716525Y-120961632D01*
X101923368Y-121168475D01*
X102166589Y-121330990D01*
X102436842Y-121442932D01*
X102723740Y-121500000D01*
X103016260Y-121500000D01*
X103303158Y-121442932D01*
X103573411Y-121330990D01*
X103816632Y-121168475D01*
X104023475Y-120961632D01*
X104140000Y-120787240D01*
X104256525Y-120961632D01*
X104463368Y-121168475D01*
X104706589Y-121330990D01*
X104976842Y-121442932D01*
X105263740Y-121500000D01*
X105556260Y-121500000D01*
X105843158Y-121442932D01*
X106113411Y-121330990D01*
X106356632Y-121168475D01*
X106563475Y-120961632D01*
X106680000Y-120787240D01*
X106796525Y-120961632D01*
X107003368Y-121168475D01*
X107246589Y-121330990D01*
X107516842Y-121442932D01*
X107803740Y-121500000D01*
X108096260Y-121500000D01*
X108383158Y-121442932D01*
X108653411Y-121330990D01*
X108896632Y-121168475D01*
X109103475Y-120961632D01*
X109220000Y-120787240D01*
X109336525Y-120961632D01*
X109543368Y-121168475D01*
X109786589Y-121330990D01*
X110056842Y-121442932D01*
X110343740Y-121500000D01*
X110636260Y-121500000D01*
X110923158Y-121442932D01*
X111193411Y-121330990D01*
X111436632Y-121168475D01*
X111643475Y-120961632D01*
X111760000Y-120787240D01*
X111876525Y-120961632D01*
X112083368Y-121168475D01*
X112326589Y-121330990D01*
X112596842Y-121442932D01*
X112883740Y-121500000D01*
X113176260Y-121500000D01*
X113463158Y-121442932D01*
X113733411Y-121330990D01*
X113976632Y-121168475D01*
X114183475Y-120961632D01*
X114300000Y-120787240D01*
X114416525Y-120961632D01*
X114623368Y-121168475D01*
X114866589Y-121330990D01*
X115136842Y-121442932D01*
X115423740Y-121500000D01*
X115716260Y-121500000D01*
X116003158Y-121442932D01*
X116273411Y-121330990D01*
X116516632Y-121168475D01*
X116723475Y-120961632D01*
X116840000Y-120787240D01*
X116956525Y-120961632D01*
X117163368Y-121168475D01*
X117406589Y-121330990D01*
X117676842Y-121442932D01*
X117963740Y-121500000D01*
X118256260Y-121500000D01*
X118543158Y-121442932D01*
X118813411Y-121330990D01*
X119056632Y-121168475D01*
X119263475Y-120961632D01*
X119380000Y-120787240D01*
X119496525Y-120961632D01*
X119703368Y-121168475D01*
X119946589Y-121330990D01*
X120216842Y-121442932D01*
X120503740Y-121500000D01*
X120796260Y-121500000D01*
X121083158Y-121442932D01*
X121353411Y-121330990D01*
X121596632Y-121168475D01*
X121803475Y-120961632D01*
X121920000Y-120787240D01*
X122036525Y-120961632D01*
X122243368Y-121168475D01*
X122486589Y-121330990D01*
X122756842Y-121442932D01*
X123043740Y-121500000D01*
X123336260Y-121500000D01*
X123623158Y-121442932D01*
X123893411Y-121330990D01*
X124136632Y-121168475D01*
X124343475Y-120961632D01*
X124460000Y-120787240D01*
X124576525Y-120961632D01*
X124783368Y-121168475D01*
X125026589Y-121330990D01*
X125296842Y-121442932D01*
X125583740Y-121500000D01*
X125876260Y-121500000D01*
X126163158Y-121442932D01*
X126433411Y-121330990D01*
X126676632Y-121168475D01*
X126883475Y-120961632D01*
X127000000Y-120787240D01*
X127116525Y-120961632D01*
X127323368Y-121168475D01*
X127566589Y-121330990D01*
X127836842Y-121442932D01*
X128123740Y-121500000D01*
X128416260Y-121500000D01*
X128703158Y-121442932D01*
X128973411Y-121330990D01*
X129216632Y-121168475D01*
X129423475Y-120961632D01*
X129540000Y-120787240D01*
X129656525Y-120961632D01*
X129863368Y-121168475D01*
X130106589Y-121330990D01*
X130376842Y-121442932D01*
X130663740Y-121500000D01*
X130956260Y-121500000D01*
X131243158Y-121442932D01*
X131513411Y-121330990D01*
X131756632Y-121168475D01*
X131963475Y-120961632D01*
X132080000Y-120787240D01*
X132196525Y-120961632D01*
X132403368Y-121168475D01*
X132646589Y-121330990D01*
X132916842Y-121442932D01*
X133203740Y-121500000D01*
X133496260Y-121500000D01*
X133783158Y-121442932D01*
X134053411Y-121330990D01*
X134296632Y-121168475D01*
X134503475Y-120961632D01*
X134620000Y-120787240D01*
X134736525Y-120961632D01*
X134943368Y-121168475D01*
X135186589Y-121330990D01*
X135456842Y-121442932D01*
X135743740Y-121500000D01*
X136036260Y-121500000D01*
X136323158Y-121442932D01*
X136593411Y-121330990D01*
X136836632Y-121168475D01*
X137043475Y-120961632D01*
X137160000Y-120787240D01*
X137276525Y-120961632D01*
X137483368Y-121168475D01*
X137726589Y-121330990D01*
X137996842Y-121442932D01*
X138283740Y-121500000D01*
X138576260Y-121500000D01*
X138863158Y-121442932D01*
X139133411Y-121330990D01*
X139376632Y-121168475D01*
X139583475Y-120961632D01*
X139700000Y-120787240D01*
X139816525Y-120961632D01*
X140023368Y-121168475D01*
X140266589Y-121330990D01*
X140536842Y-121442932D01*
X140823740Y-121500000D01*
X141116260Y-121500000D01*
X141403158Y-121442932D01*
X141673411Y-121330990D01*
X141916632Y-121168475D01*
X142123475Y-120961632D01*
X142240000Y-120787240D01*
X142356525Y-120961632D01*
X142563368Y-121168475D01*
X142806589Y-121330990D01*
X143076842Y-121442932D01*
X143363740Y-121500000D01*
X143656260Y-121500000D01*
X143943158Y-121442932D01*
X144213411Y-121330990D01*
X144456632Y-121168475D01*
X144663475Y-120961632D01*
X144780000Y-120787240D01*
X144896525Y-120961632D01*
X145103368Y-121168475D01*
X145346589Y-121330990D01*
X145616842Y-121442932D01*
X145903740Y-121500000D01*
X146196260Y-121500000D01*
X146483158Y-121442932D01*
X146753411Y-121330990D01*
X146996632Y-121168475D01*
X147203475Y-120961632D01*
X147365990Y-120718411D01*
X147477932Y-120448158D01*
X147535000Y-120161260D01*
X147535000Y-119868740D01*
X147477932Y-119581842D01*
X147365990Y-119311589D01*
X147203475Y-119068368D01*
X146996632Y-118861525D01*
X146753411Y-118699010D01*
X146483158Y-118587068D01*
X146196260Y-118530000D01*
X145903740Y-118530000D01*
X145616842Y-118587068D01*
X145346589Y-118699010D01*
X145103368Y-118861525D01*
X144896525Y-119068368D01*
X144780000Y-119242760D01*
X144663475Y-119068368D01*
X144456632Y-118861525D01*
X144213411Y-118699010D01*
X143943158Y-118587068D01*
X143656260Y-118530000D01*
X143363740Y-118530000D01*
X143076842Y-118587068D01*
X142806589Y-118699010D01*
X142563368Y-118861525D01*
X142356525Y-119068368D01*
X142240000Y-119242760D01*
X142123475Y-119068368D01*
X141916632Y-118861525D01*
X141673411Y-118699010D01*
X141403158Y-118587068D01*
X141116260Y-118530000D01*
X140823740Y-118530000D01*
X140536842Y-118587068D01*
X140266589Y-118699010D01*
X140023368Y-118861525D01*
X139816525Y-119068368D01*
X139700000Y-119242760D01*
X139583475Y-119068368D01*
X139376632Y-118861525D01*
X139133411Y-118699010D01*
X138863158Y-118587068D01*
X138576260Y-118530000D01*
X138283740Y-118530000D01*
X137996842Y-118587068D01*
X137726589Y-118699010D01*
X137483368Y-118861525D01*
X137276525Y-119068368D01*
X137160000Y-119242760D01*
X137043475Y-119068368D01*
X136836632Y-118861525D01*
X136593411Y-118699010D01*
X136323158Y-118587068D01*
X136036260Y-118530000D01*
X135743740Y-118530000D01*
X135456842Y-118587068D01*
X135186589Y-118699010D01*
X134943368Y-118861525D01*
X134736525Y-119068368D01*
X134620000Y-119242760D01*
X134503475Y-119068368D01*
X134296632Y-118861525D01*
X134053411Y-118699010D01*
X133783158Y-118587068D01*
X133496260Y-118530000D01*
X133203740Y-118530000D01*
X132916842Y-118587068D01*
X132646589Y-118699010D01*
X132403368Y-118861525D01*
X132196525Y-119068368D01*
X132080000Y-119242760D01*
X131963475Y-119068368D01*
X131756632Y-118861525D01*
X131513411Y-118699010D01*
X131243158Y-118587068D01*
X130956260Y-118530000D01*
X130663740Y-118530000D01*
X130376842Y-118587068D01*
X130106589Y-118699010D01*
X129863368Y-118861525D01*
X129656525Y-119068368D01*
X129540000Y-119242760D01*
X129423475Y-119068368D01*
X129216632Y-118861525D01*
X128973411Y-118699010D01*
X128703158Y-118587068D01*
X128416260Y-118530000D01*
X128123740Y-118530000D01*
X127836842Y-118587068D01*
X127566589Y-118699010D01*
X127323368Y-118861525D01*
X127116525Y-119068368D01*
X127000000Y-119242760D01*
X126883475Y-119068368D01*
X126676632Y-118861525D01*
X126433411Y-118699010D01*
X126163158Y-118587068D01*
X125876260Y-118530000D01*
X125583740Y-118530000D01*
X125296842Y-118587068D01*
X125026589Y-118699010D01*
X124783368Y-118861525D01*
X124576525Y-119068368D01*
X124460000Y-119242760D01*
X124343475Y-119068368D01*
X124136632Y-118861525D01*
X123893411Y-118699010D01*
X123623158Y-118587068D01*
X123336260Y-118530000D01*
X123043740Y-118530000D01*
X122756842Y-118587068D01*
X122486589Y-118699010D01*
X122243368Y-118861525D01*
X122036525Y-119068368D01*
X121920000Y-119242760D01*
X121803475Y-119068368D01*
X121596632Y-118861525D01*
X121353411Y-118699010D01*
X121083158Y-118587068D01*
X120796260Y-118530000D01*
X120503740Y-118530000D01*
X120216842Y-118587068D01*
X119946589Y-118699010D01*
X119703368Y-118861525D01*
X119496525Y-119068368D01*
X119380000Y-119242760D01*
X119263475Y-119068368D01*
X119062500Y-118867393D01*
X119062500Y-117869538D01*
X121044538Y-115887500D01*
X159973215Y-115887500D01*
X160020000Y-115892108D01*
X160066785Y-115887500D01*
X160206723Y-115873717D01*
X160386269Y-115819252D01*
X160551741Y-115730806D01*
X160696778Y-115611778D01*
X160726607Y-115575431D01*
X161930436Y-114371603D01*
X161966778Y-114341778D01*
X162085806Y-114196741D01*
X162174252Y-114031269D01*
X162228717Y-113851723D01*
X162242500Y-113711785D01*
X162242500Y-113711784D01*
X162247108Y-113665001D01*
X162242500Y-113618216D01*
X162242500Y-94026785D01*
X162247108Y-93980000D01*
X162228717Y-93793278D01*
X162174252Y-93613730D01*
X162130029Y-93530995D01*
X162085806Y-93448259D01*
X161966778Y-93303222D01*
X161930426Y-93273389D01*
X161614931Y-92957894D01*
X161572205Y-92854744D01*
X161458937Y-92685226D01*
X161314774Y-92541063D01*
X161145256Y-92427795D01*
X160956898Y-92349774D01*
X160756939Y-92310000D01*
X160553061Y-92310000D01*
X160353102Y-92349774D01*
X160164744Y-92427795D01*
X159995226Y-92541063D01*
X159851063Y-92685226D01*
X159737795Y-92854744D01*
X159659774Y-93043102D01*
X159620000Y-93243061D01*
X159620000Y-93446939D01*
X159659774Y-93646898D01*
X159737795Y-93835256D01*
X159851063Y-94004774D01*
X159995226Y-94148937D01*
X160164744Y-94262205D01*
X160267894Y-94304931D01*
X160337501Y-94374538D01*
X160337500Y-113270461D01*
X159625462Y-113982500D01*
X120696784Y-113982500D01*
X120649999Y-113977892D01*
X120463277Y-113996283D01*
X120283731Y-114050748D01*
X120118259Y-114139194D01*
X119973222Y-114258222D01*
X119943393Y-114294569D01*
X117469565Y-116768397D01*
X117433223Y-116798222D01*
X117403399Y-116834563D01*
X117314194Y-116943260D01*
X117225749Y-117108731D01*
X117171283Y-117288278D01*
X117152892Y-117475000D01*
X117157501Y-117521794D01*
X117157500Y-118867393D01*
X116956525Y-119068368D01*
X116840000Y-119242760D01*
X116723475Y-119068368D01*
X116516632Y-118861525D01*
X116273411Y-118699010D01*
X116003158Y-118587068D01*
X115716260Y-118530000D01*
X115423740Y-118530000D01*
X115136842Y-118587068D01*
X114866589Y-118699010D01*
X114623368Y-118861525D01*
X114416525Y-119068368D01*
X114300000Y-119242760D01*
X114183475Y-119068368D01*
X113976632Y-118861525D01*
X113733411Y-118699010D01*
X113463158Y-118587068D01*
X113176260Y-118530000D01*
X112883740Y-118530000D01*
X112596842Y-118587068D01*
X112326589Y-118699010D01*
X112083368Y-118861525D01*
X111876525Y-119068368D01*
X111760000Y-119242760D01*
X111643475Y-119068368D01*
X111436632Y-118861525D01*
X111193411Y-118699010D01*
X110923158Y-118587068D01*
X110636260Y-118530000D01*
X110343740Y-118530000D01*
X110056842Y-118587068D01*
X109786589Y-118699010D01*
X109543368Y-118861525D01*
X109336525Y-119068368D01*
X109220000Y-119242760D01*
X109103475Y-119068368D01*
X108896632Y-118861525D01*
X108653411Y-118699010D01*
X108383158Y-118587068D01*
X108096260Y-118530000D01*
X107803740Y-118530000D01*
X107516842Y-118587068D01*
X107246589Y-118699010D01*
X107003368Y-118861525D01*
X106796525Y-119068368D01*
X106680000Y-119242760D01*
X106563475Y-119068368D01*
X106356632Y-118861525D01*
X106113411Y-118699010D01*
X105843158Y-118587068D01*
X105556260Y-118530000D01*
X105263740Y-118530000D01*
X104976842Y-118587068D01*
X104706589Y-118699010D01*
X104463368Y-118861525D01*
X104256525Y-119068368D01*
X104140000Y-119242760D01*
X104140000Y-116902372D01*
X104146143Y-116839999D01*
X104140000Y-116777626D01*
X104140000Y-116777620D01*
X104121623Y-116591037D01*
X104121536Y-116590748D01*
X104049003Y-116351642D01*
X104049003Y-116351641D01*
X103931075Y-116131012D01*
X103772370Y-115937630D01*
X103723915Y-115897864D01*
X101272141Y-113446091D01*
X101232370Y-113397630D01*
X101038988Y-113238925D01*
X100818359Y-113120997D01*
X100578963Y-113048377D01*
X100392380Y-113030000D01*
X100392373Y-113030000D01*
X100330000Y-113023857D01*
X100267627Y-113030000D01*
X79512240Y-113030000D01*
X79443411Y-112984010D01*
X79173158Y-112872068D01*
X78886260Y-112815000D01*
X78593740Y-112815000D01*
X78306842Y-112872068D01*
X78036589Y-112984010D01*
X77793368Y-113146525D01*
X77586525Y-113353368D01*
X77424010Y-113596589D01*
X77312068Y-113866842D01*
X77255000Y-114153740D01*
X77255000Y-114193949D01*
X72390000Y-109328950D01*
X72390000Y-105682001D01*
X140725645Y-105682001D01*
X140763404Y-105899367D01*
X140842842Y-106105189D01*
X140868684Y-106153534D01*
X141080584Y-106186811D01*
X141247380Y-106020015D01*
X141268709Y-106085397D01*
X141329956Y-106194460D01*
X141377090Y-106249515D01*
X141260189Y-106366416D01*
X141293466Y-106578316D01*
X141495176Y-106667683D01*
X141710445Y-106715981D01*
X141931001Y-106721355D01*
X142110323Y-106690205D01*
X142109928Y-106809000D01*
X142122188Y-106933482D01*
X142158498Y-107053180D01*
X142217463Y-107163494D01*
X142296815Y-107260185D01*
X142393506Y-107339537D01*
X142503820Y-107398502D01*
X142623518Y-107434812D01*
X142748000Y-107447072D01*
X145002250Y-107444000D01*
X145161000Y-107285250D01*
X145161000Y-105726000D01*
X145415000Y-105726000D01*
X145415000Y-107285250D01*
X145573750Y-107444000D01*
X147828000Y-107447072D01*
X147952482Y-107434812D01*
X148072180Y-107398502D01*
X148182494Y-107339537D01*
X148279185Y-107260185D01*
X148358537Y-107163494D01*
X148417502Y-107053180D01*
X148453812Y-106933482D01*
X148466072Y-106809000D01*
X148463000Y-105884750D01*
X148304250Y-105726000D01*
X145415000Y-105726000D01*
X145161000Y-105726000D01*
X145141000Y-105726000D01*
X145141000Y-105472000D01*
X145161000Y-105472000D01*
X145161000Y-103912750D01*
X145415000Y-103912750D01*
X145415000Y-105472000D01*
X148304250Y-105472000D01*
X148463000Y-105313250D01*
X148466072Y-104389000D01*
X148453812Y-104264518D01*
X148417502Y-104144820D01*
X148358537Y-104034506D01*
X148279185Y-103937815D01*
X148182494Y-103858463D01*
X148072180Y-103799498D01*
X147952482Y-103763188D01*
X147828000Y-103750928D01*
X145573750Y-103754000D01*
X145415000Y-103912750D01*
X145161000Y-103912750D01*
X145002250Y-103754000D01*
X142748000Y-103750928D01*
X142623518Y-103763188D01*
X142503820Y-103799498D01*
X142393506Y-103858463D01*
X142296815Y-103937815D01*
X142217463Y-104034506D01*
X142158498Y-104144820D01*
X142122188Y-104264518D01*
X142109928Y-104389000D01*
X142110330Y-104510014D01*
X141985555Y-104482019D01*
X141764999Y-104476645D01*
X141547633Y-104514404D01*
X141341811Y-104593842D01*
X141293466Y-104619684D01*
X141260189Y-104831584D01*
X141377090Y-104948485D01*
X141329956Y-105003540D01*
X141268709Y-105112603D01*
X141247380Y-105177985D01*
X141080584Y-105011189D01*
X140868684Y-105044466D01*
X140779317Y-105246176D01*
X140731019Y-105461445D01*
X140725645Y-105682001D01*
X72390000Y-105682001D01*
X72390000Y-101221000D01*
X79429928Y-101221000D01*
X79442188Y-101345482D01*
X79478498Y-101465180D01*
X79537463Y-101575494D01*
X79616815Y-101672185D01*
X79713506Y-101751537D01*
X79823820Y-101810502D01*
X79943518Y-101846812D01*
X80068000Y-101859072D01*
X82322250Y-101856000D01*
X82481000Y-101697250D01*
X82481000Y-100138000D01*
X79591750Y-100138000D01*
X79433000Y-100296750D01*
X79429928Y-101221000D01*
X72390000Y-101221000D01*
X72390000Y-98801000D01*
X79429928Y-98801000D01*
X79433000Y-99725250D01*
X79591750Y-99884000D01*
X82481000Y-99884000D01*
X82481000Y-98324750D01*
X82735000Y-98324750D01*
X82735000Y-99884000D01*
X82755000Y-99884000D01*
X82755000Y-100138000D01*
X82735000Y-100138000D01*
X82735000Y-101697250D01*
X82893750Y-101856000D01*
X85148000Y-101859072D01*
X85272482Y-101846812D01*
X85392180Y-101810502D01*
X85502494Y-101751537D01*
X85599185Y-101672185D01*
X85678537Y-101575494D01*
X85737502Y-101465180D01*
X85773812Y-101345482D01*
X85786072Y-101221000D01*
X85785670Y-101099986D01*
X85910445Y-101127981D01*
X86131001Y-101133355D01*
X86348367Y-101095596D01*
X86554189Y-101016158D01*
X86602534Y-100990316D01*
X86635811Y-100778416D01*
X86518910Y-100661515D01*
X86566044Y-100606460D01*
X86627291Y-100497397D01*
X86648620Y-100432015D01*
X86815416Y-100598811D01*
X87027316Y-100565534D01*
X87116683Y-100363824D01*
X87164981Y-100148555D01*
X87170355Y-99927999D01*
X87132596Y-99710633D01*
X87053158Y-99504811D01*
X87027316Y-99456466D01*
X86815416Y-99423189D01*
X86648620Y-99589985D01*
X86627291Y-99524603D01*
X86566044Y-99415540D01*
X86518910Y-99360485D01*
X86635811Y-99243584D01*
X86602534Y-99031684D01*
X86400824Y-98942317D01*
X86185555Y-98894019D01*
X85964999Y-98888645D01*
X85785677Y-98919795D01*
X85786072Y-98801000D01*
X85773812Y-98676518D01*
X85737502Y-98556820D01*
X85678537Y-98446506D01*
X85599185Y-98349815D01*
X85502494Y-98270463D01*
X85392180Y-98211498D01*
X85272482Y-98175188D01*
X85148000Y-98162928D01*
X82893750Y-98166000D01*
X82735000Y-98324750D01*
X82481000Y-98324750D01*
X82322250Y-98166000D01*
X80068000Y-98162928D01*
X79943518Y-98175188D01*
X79823820Y-98211498D01*
X79713506Y-98270463D01*
X79616815Y-98349815D01*
X79537463Y-98446506D01*
X79478498Y-98556820D01*
X79442188Y-98676518D01*
X79429928Y-98801000D01*
X72390000Y-98801000D01*
X72390000Y-96922001D01*
X140725645Y-96922001D01*
X140763404Y-97139367D01*
X140842842Y-97345189D01*
X140868684Y-97393534D01*
X141080584Y-97426811D01*
X141247380Y-97260015D01*
X141268709Y-97325397D01*
X141329956Y-97434460D01*
X141377090Y-97489515D01*
X141260189Y-97606416D01*
X141293466Y-97818316D01*
X141495176Y-97907683D01*
X141710445Y-97955981D01*
X141931001Y-97961355D01*
X142110323Y-97930205D01*
X142109928Y-98049000D01*
X142122188Y-98173482D01*
X142158498Y-98293180D01*
X142217463Y-98403494D01*
X142296815Y-98500185D01*
X142393506Y-98579537D01*
X142503820Y-98638502D01*
X142623518Y-98674812D01*
X142748000Y-98687072D01*
X145002250Y-98684000D01*
X145161000Y-98525250D01*
X145161000Y-96966000D01*
X145415000Y-96966000D01*
X145415000Y-98525250D01*
X145573750Y-98684000D01*
X147828000Y-98687072D01*
X147952482Y-98674812D01*
X148072180Y-98638502D01*
X148182494Y-98579537D01*
X148279185Y-98500185D01*
X148358537Y-98403494D01*
X148417502Y-98293180D01*
X148453812Y-98173482D01*
X148466072Y-98049000D01*
X148463000Y-97124750D01*
X148304250Y-96966000D01*
X145415000Y-96966000D01*
X145161000Y-96966000D01*
X145141000Y-96966000D01*
X145141000Y-96712000D01*
X145161000Y-96712000D01*
X145161000Y-95152750D01*
X145415000Y-95152750D01*
X145415000Y-96712000D01*
X148304250Y-96712000D01*
X148463000Y-96553250D01*
X148466072Y-95629000D01*
X148453812Y-95504518D01*
X148417502Y-95384820D01*
X148358537Y-95274506D01*
X148279185Y-95177815D01*
X148182494Y-95098463D01*
X148072180Y-95039498D01*
X147952482Y-95003188D01*
X147828000Y-94990928D01*
X145573750Y-94994000D01*
X145415000Y-95152750D01*
X145161000Y-95152750D01*
X145002250Y-94994000D01*
X142748000Y-94990928D01*
X142623518Y-95003188D01*
X142503820Y-95039498D01*
X142393506Y-95098463D01*
X142296815Y-95177815D01*
X142217463Y-95274506D01*
X142158498Y-95384820D01*
X142122188Y-95504518D01*
X142109928Y-95629000D01*
X142110330Y-95750014D01*
X141985555Y-95722019D01*
X141764999Y-95716645D01*
X141547633Y-95754404D01*
X141341811Y-95833842D01*
X141293466Y-95859684D01*
X141260189Y-96071584D01*
X141377090Y-96188485D01*
X141329956Y-96243540D01*
X141268709Y-96352603D01*
X141247380Y-96417985D01*
X141080584Y-96251189D01*
X140868684Y-96284466D01*
X140779317Y-96486176D01*
X140731019Y-96701445D01*
X140725645Y-96922001D01*
X72390000Y-96922001D01*
X72390000Y-92461000D01*
X79429928Y-92461000D01*
X79442188Y-92585482D01*
X79478498Y-92705180D01*
X79537463Y-92815494D01*
X79616815Y-92912185D01*
X79713506Y-92991537D01*
X79823820Y-93050502D01*
X79943518Y-93086812D01*
X80068000Y-93099072D01*
X82322250Y-93096000D01*
X82481000Y-92937250D01*
X82481000Y-91378000D01*
X79591750Y-91378000D01*
X79433000Y-91536750D01*
X79429928Y-92461000D01*
X72390000Y-92461000D01*
X72390000Y-90041000D01*
X79429928Y-90041000D01*
X79433000Y-90965250D01*
X79591750Y-91124000D01*
X82481000Y-91124000D01*
X82481000Y-89564750D01*
X82735000Y-89564750D01*
X82735000Y-91124000D01*
X82755000Y-91124000D01*
X82755000Y-91378000D01*
X82735000Y-91378000D01*
X82735000Y-92937250D01*
X82893750Y-93096000D01*
X85148000Y-93099072D01*
X85272482Y-93086812D01*
X85392180Y-93050502D01*
X85502494Y-92991537D01*
X85599185Y-92912185D01*
X85678537Y-92815494D01*
X85737502Y-92705180D01*
X85773812Y-92585482D01*
X85786072Y-92461000D01*
X85785670Y-92339986D01*
X85910445Y-92367981D01*
X86131001Y-92373355D01*
X86348367Y-92335596D01*
X86554189Y-92256158D01*
X86602534Y-92230316D01*
X86635811Y-92018416D01*
X86518910Y-91901515D01*
X86566044Y-91846460D01*
X86627291Y-91737397D01*
X86648620Y-91672015D01*
X86815416Y-91838811D01*
X87027316Y-91805534D01*
X87116683Y-91603824D01*
X87164981Y-91388555D01*
X87170355Y-91167999D01*
X87132596Y-90950633D01*
X87053158Y-90744811D01*
X87027316Y-90696466D01*
X86815416Y-90663189D01*
X86648620Y-90829985D01*
X86627291Y-90764603D01*
X86566044Y-90655540D01*
X86518910Y-90600485D01*
X86635811Y-90483584D01*
X86602534Y-90271684D01*
X86400824Y-90182317D01*
X86185555Y-90134019D01*
X85964999Y-90128645D01*
X85785677Y-90159795D01*
X85786072Y-90041000D01*
X85773812Y-89916518D01*
X85737502Y-89796820D01*
X85678537Y-89686506D01*
X85599185Y-89589815D01*
X85502494Y-89510463D01*
X85392180Y-89451498D01*
X85272482Y-89415188D01*
X85148000Y-89402928D01*
X82893750Y-89406000D01*
X82735000Y-89564750D01*
X82481000Y-89564750D01*
X82322250Y-89406000D01*
X80068000Y-89402928D01*
X79943518Y-89415188D01*
X79823820Y-89451498D01*
X79713506Y-89510463D01*
X79616815Y-89589815D01*
X79537463Y-89686506D01*
X79478498Y-89796820D01*
X79442188Y-89916518D01*
X79429928Y-90041000D01*
X72390000Y-90041000D01*
X72390000Y-88265000D01*
X85787380Y-88265000D01*
X85973963Y-88246623D01*
X86213359Y-88174003D01*
X86433988Y-88056075D01*
X86627370Y-87897370D01*
X86786075Y-87703988D01*
X86904003Y-87483359D01*
X86976623Y-87243963D01*
X87001144Y-86995000D01*
X86976623Y-86746037D01*
X86904003Y-86506641D01*
X86786075Y-86286012D01*
X86627370Y-86092630D01*
X86433988Y-85933925D01*
X86213359Y-85815997D01*
X85973963Y-85743377D01*
X85787380Y-85725000D01*
X72390000Y-85725000D01*
X72390000Y-84346001D01*
X140921645Y-84346001D01*
X140959404Y-84563367D01*
X141038842Y-84769189D01*
X141064684Y-84817534D01*
X141276584Y-84850811D01*
X141443380Y-84684015D01*
X141464709Y-84749397D01*
X141525956Y-84858460D01*
X141573090Y-84913515D01*
X141456189Y-85030416D01*
X141489466Y-85242316D01*
X141691176Y-85331683D01*
X141906445Y-85379981D01*
X142127001Y-85385355D01*
X142306323Y-85354205D01*
X142305928Y-85473000D01*
X142318188Y-85597482D01*
X142354498Y-85717180D01*
X142413463Y-85827494D01*
X142492815Y-85924185D01*
X142589506Y-86003537D01*
X142699820Y-86062502D01*
X142819518Y-86098812D01*
X142944000Y-86111072D01*
X145198250Y-86108000D01*
X145357000Y-85949250D01*
X145357000Y-84390000D01*
X145611000Y-84390000D01*
X145611000Y-85949250D01*
X145769750Y-86108000D01*
X148024000Y-86111072D01*
X148148482Y-86098812D01*
X148268180Y-86062502D01*
X148378494Y-86003537D01*
X148475185Y-85924185D01*
X148554537Y-85827494D01*
X148613502Y-85717180D01*
X148649812Y-85597482D01*
X148662072Y-85473000D01*
X148659000Y-84548750D01*
X148500250Y-84390000D01*
X145611000Y-84390000D01*
X145357000Y-84390000D01*
X145337000Y-84390000D01*
X145337000Y-84136000D01*
X145357000Y-84136000D01*
X145357000Y-82576750D01*
X145611000Y-82576750D01*
X145611000Y-84136000D01*
X148500250Y-84136000D01*
X148659000Y-83977250D01*
X148662072Y-83053000D01*
X148649812Y-82928518D01*
X148613502Y-82808820D01*
X148554537Y-82698506D01*
X148475185Y-82601815D01*
X148378494Y-82522463D01*
X148268180Y-82463498D01*
X148148482Y-82427188D01*
X148024000Y-82414928D01*
X145769750Y-82418000D01*
X145611000Y-82576750D01*
X145357000Y-82576750D01*
X145198250Y-82418000D01*
X142944000Y-82414928D01*
X142819518Y-82427188D01*
X142699820Y-82463498D01*
X142589506Y-82522463D01*
X142492815Y-82601815D01*
X142413463Y-82698506D01*
X142354498Y-82808820D01*
X142318188Y-82928518D01*
X142305928Y-83053000D01*
X142306330Y-83174014D01*
X142181555Y-83146019D01*
X141960999Y-83140645D01*
X141743633Y-83178404D01*
X141537811Y-83257842D01*
X141489466Y-83283684D01*
X141456189Y-83495584D01*
X141573090Y-83612485D01*
X141525956Y-83667540D01*
X141464709Y-83776603D01*
X141443380Y-83841985D01*
X141276584Y-83675189D01*
X141064684Y-83708466D01*
X140975317Y-83910176D01*
X140927019Y-84125445D01*
X140921645Y-84346001D01*
X72390000Y-84346001D01*
X72390000Y-77091000D01*
X80953928Y-77091000D01*
X80966188Y-77215482D01*
X81002498Y-77335180D01*
X81061463Y-77445494D01*
X81140815Y-77542185D01*
X81237506Y-77621537D01*
X81347820Y-77680502D01*
X81467518Y-77716812D01*
X81592000Y-77729072D01*
X83846250Y-77726000D01*
X84005000Y-77567250D01*
X84005000Y-76008000D01*
X81115750Y-76008000D01*
X80957000Y-76166750D01*
X80953928Y-77091000D01*
X72390000Y-77091000D01*
X72390000Y-74671000D01*
X80953928Y-74671000D01*
X80957000Y-75595250D01*
X81115750Y-75754000D01*
X84005000Y-75754000D01*
X84005000Y-74194750D01*
X84259000Y-74194750D01*
X84259000Y-75754000D01*
X84279000Y-75754000D01*
X84279000Y-76008000D01*
X84259000Y-76008000D01*
X84259000Y-77567250D01*
X84417750Y-77726000D01*
X86672000Y-77729072D01*
X86796482Y-77716812D01*
X86916180Y-77680502D01*
X87026494Y-77621537D01*
X87123185Y-77542185D01*
X87202537Y-77445494D01*
X87261502Y-77335180D01*
X87297812Y-77215482D01*
X87310072Y-77091000D01*
X87309670Y-76969986D01*
X87434445Y-76997981D01*
X87655001Y-77003355D01*
X87872367Y-76965596D01*
X88078189Y-76886158D01*
X88126534Y-76860316D01*
X88159811Y-76648416D01*
X88042910Y-76531515D01*
X88090044Y-76476460D01*
X88151291Y-76367397D01*
X88172620Y-76302015D01*
X88339416Y-76468811D01*
X88551316Y-76435534D01*
X88640683Y-76233824D01*
X88688981Y-76018555D01*
X88694355Y-75797999D01*
X88657529Y-75586001D01*
X140921645Y-75586001D01*
X140959404Y-75803367D01*
X141038842Y-76009189D01*
X141064684Y-76057534D01*
X141276584Y-76090811D01*
X141443380Y-75924015D01*
X141464709Y-75989397D01*
X141525956Y-76098460D01*
X141573090Y-76153515D01*
X141456189Y-76270416D01*
X141489466Y-76482316D01*
X141691176Y-76571683D01*
X141906445Y-76619981D01*
X142127001Y-76625355D01*
X142306323Y-76594205D01*
X142305928Y-76713000D01*
X142318188Y-76837482D01*
X142354498Y-76957180D01*
X142413463Y-77067494D01*
X142492815Y-77164185D01*
X142589506Y-77243537D01*
X142699820Y-77302502D01*
X142819518Y-77338812D01*
X142944000Y-77351072D01*
X145198250Y-77348000D01*
X145357000Y-77189250D01*
X145357000Y-75630000D01*
X145611000Y-75630000D01*
X145611000Y-77189250D01*
X145769750Y-77348000D01*
X148024000Y-77351072D01*
X148148482Y-77338812D01*
X148268180Y-77302502D01*
X148378494Y-77243537D01*
X148475185Y-77164185D01*
X148554537Y-77067494D01*
X148613502Y-76957180D01*
X148649812Y-76837482D01*
X148662072Y-76713000D01*
X148659000Y-75788750D01*
X148500250Y-75630000D01*
X145611000Y-75630000D01*
X145357000Y-75630000D01*
X145337000Y-75630000D01*
X145337000Y-75376000D01*
X145357000Y-75376000D01*
X145357000Y-73816750D01*
X145611000Y-73816750D01*
X145611000Y-75376000D01*
X148500250Y-75376000D01*
X148659000Y-75217250D01*
X148662072Y-74293000D01*
X148649812Y-74168518D01*
X148613502Y-74048820D01*
X148554537Y-73938506D01*
X148475185Y-73841815D01*
X148378494Y-73762463D01*
X148268180Y-73703498D01*
X148148482Y-73667188D01*
X148024000Y-73654928D01*
X145769750Y-73658000D01*
X145611000Y-73816750D01*
X145357000Y-73816750D01*
X145198250Y-73658000D01*
X142944000Y-73654928D01*
X142819518Y-73667188D01*
X142699820Y-73703498D01*
X142589506Y-73762463D01*
X142492815Y-73841815D01*
X142413463Y-73938506D01*
X142354498Y-74048820D01*
X142318188Y-74168518D01*
X142305928Y-74293000D01*
X142306330Y-74414014D01*
X142181555Y-74386019D01*
X141960999Y-74380645D01*
X141743633Y-74418404D01*
X141537811Y-74497842D01*
X141489466Y-74523684D01*
X141456189Y-74735584D01*
X141573090Y-74852485D01*
X141525956Y-74907540D01*
X141464709Y-75016603D01*
X141443380Y-75081985D01*
X141276584Y-74915189D01*
X141064684Y-74948466D01*
X140975317Y-75150176D01*
X140927019Y-75365445D01*
X140921645Y-75586001D01*
X88657529Y-75586001D01*
X88656596Y-75580633D01*
X88577158Y-75374811D01*
X88551316Y-75326466D01*
X88339416Y-75293189D01*
X88172620Y-75459985D01*
X88151291Y-75394603D01*
X88090044Y-75285540D01*
X88042910Y-75230485D01*
X88159811Y-75113584D01*
X88126534Y-74901684D01*
X87924824Y-74812317D01*
X87709555Y-74764019D01*
X87488999Y-74758645D01*
X87309677Y-74789795D01*
X87310072Y-74671000D01*
X87297812Y-74546518D01*
X87261502Y-74426820D01*
X87202537Y-74316506D01*
X87123185Y-74219815D01*
X87026494Y-74140463D01*
X86916180Y-74081498D01*
X86796482Y-74045188D01*
X86672000Y-74032928D01*
X84417750Y-74036000D01*
X84259000Y-74194750D01*
X84005000Y-74194750D01*
X83846250Y-74036000D01*
X81592000Y-74032928D01*
X81467518Y-74045188D01*
X81347820Y-74081498D01*
X81237506Y-74140463D01*
X81140815Y-74219815D01*
X81061463Y-74316506D01*
X81002498Y-74426820D01*
X80966188Y-74546518D01*
X80953928Y-74671000D01*
X72390000Y-74671000D01*
X72390000Y-71100166D01*
X75159166Y-68331000D01*
X80953928Y-68331000D01*
X80966188Y-68455482D01*
X81002498Y-68575180D01*
X81061463Y-68685494D01*
X81140815Y-68782185D01*
X81237506Y-68861537D01*
X81347820Y-68920502D01*
X81467518Y-68956812D01*
X81592000Y-68969072D01*
X83846250Y-68966000D01*
X84005000Y-68807250D01*
X84005000Y-67248000D01*
X81115750Y-67248000D01*
X80957000Y-67406750D01*
X80953928Y-68331000D01*
X75159166Y-68331000D01*
X77579166Y-65911000D01*
X80953928Y-65911000D01*
X80957000Y-66835250D01*
X81115750Y-66994000D01*
X84005000Y-66994000D01*
X84005000Y-65434750D01*
X84259000Y-65434750D01*
X84259000Y-66994000D01*
X84279000Y-66994000D01*
X84279000Y-67248000D01*
X84259000Y-67248000D01*
X84259000Y-68807250D01*
X84417750Y-68966000D01*
X86672000Y-68969072D01*
X86796482Y-68956812D01*
X86916180Y-68920502D01*
X87026494Y-68861537D01*
X87123185Y-68782185D01*
X87202537Y-68685494D01*
X87261502Y-68575180D01*
X87297812Y-68455482D01*
X87310072Y-68331000D01*
X87309670Y-68209986D01*
X87434445Y-68237981D01*
X87655001Y-68243355D01*
X87872367Y-68205596D01*
X88078189Y-68126158D01*
X88126534Y-68100316D01*
X88159811Y-67888416D01*
X88042910Y-67771515D01*
X88090044Y-67716460D01*
X88151291Y-67607397D01*
X88172620Y-67542015D01*
X88339416Y-67708811D01*
X88551316Y-67675534D01*
X88640683Y-67473824D01*
X88688981Y-67258555D01*
X88694355Y-67037999D01*
X88656596Y-66820633D01*
X88577158Y-66614811D01*
X88551316Y-66566466D01*
X88339416Y-66533189D01*
X88172620Y-66699985D01*
X88151291Y-66634603D01*
X88090044Y-66525540D01*
X88042910Y-66470485D01*
X88159811Y-66353584D01*
X88126534Y-66141684D01*
X87924824Y-66052317D01*
X87709555Y-66004019D01*
X87488999Y-65998645D01*
X87309677Y-66029795D01*
X87310072Y-65911000D01*
X87297812Y-65786518D01*
X87261502Y-65666820D01*
X87202537Y-65556506D01*
X87123185Y-65459815D01*
X87026494Y-65380463D01*
X86916180Y-65321498D01*
X86796482Y-65285188D01*
X86672000Y-65272928D01*
X84417750Y-65276000D01*
X84259000Y-65434750D01*
X84005000Y-65434750D01*
X83846250Y-65276000D01*
X81592000Y-65272928D01*
X81467518Y-65285188D01*
X81347820Y-65321498D01*
X81237506Y-65380463D01*
X81140815Y-65459815D01*
X81061463Y-65556506D01*
X81002498Y-65666820D01*
X80966188Y-65786518D01*
X80953928Y-65911000D01*
X77579166Y-65911000D01*
X77866251Y-65623916D01*
X77866255Y-65623911D01*
X78720167Y-64770000D01*
X147428950Y-64770000D01*
X156845000Y-74186052D01*
X156845001Y-84392611D01*
X156845000Y-84392621D01*
X156845000Y-84563949D01*
X155048950Y-86360000D01*
X142812620Y-86360000D01*
X142626037Y-86378377D01*
X142386641Y-86450997D01*
X142166012Y-86568925D01*
X141972630Y-86727630D01*
X141813925Y-86921012D01*
X141695997Y-87141641D01*
X141623377Y-87381037D01*
X141598856Y-87630000D01*
X141623377Y-87878963D01*
X141695997Y-88118359D01*
X141813925Y-88338988D01*
X141972630Y-88532370D01*
X142166012Y-88691075D01*
X142386641Y-88809003D01*
X142626037Y-88881623D01*
X142812620Y-88900000D01*
X155512627Y-88900000D01*
X155575000Y-88906143D01*
X155637373Y-88900000D01*
X155637380Y-88900000D01*
X155823963Y-88881623D01*
X156063359Y-88809003D01*
X156283988Y-88691075D01*
X156477370Y-88532370D01*
X156517141Y-88483909D01*
X156845000Y-88156050D01*
X156845001Y-104883947D01*
X152508950Y-109220000D01*
X142812620Y-109220000D01*
X142626037Y-109238377D01*
X142386641Y-109310997D01*
X142166012Y-109428925D01*
X141972630Y-109587630D01*
X141813925Y-109781012D01*
X141695997Y-110001641D01*
X141623377Y-110241037D01*
X141598856Y-110490000D01*
X141623377Y-110738963D01*
X141695997Y-110978359D01*
X141813925Y-111198988D01*
X141972630Y-111392370D01*
X142166012Y-111551075D01*
X142386641Y-111669003D01*
X142626037Y-111741623D01*
X142812620Y-111760000D01*
X152972627Y-111760000D01*
X153035000Y-111766143D01*
X153097373Y-111760000D01*
X153097380Y-111760000D01*
X153283963Y-111741623D01*
X153523359Y-111669003D01*
X153743988Y-111551075D01*
X153937370Y-111392370D01*
X153977141Y-111343909D01*
X158968920Y-106352132D01*
X159017370Y-106312370D01*
X159057132Y-106263920D01*
X159057135Y-106263917D01*
X159098171Y-106213914D01*
X159176075Y-106118988D01*
X159294003Y-105898359D01*
X159353568Y-105702000D01*
X159366623Y-105658964D01*
X159372529Y-105599000D01*
X159385000Y-105472380D01*
X159385000Y-105472373D01*
X159391143Y-105410000D01*
X159385000Y-105347627D01*
X159385000Y-85152374D01*
X159391143Y-85090001D01*
X159385000Y-85027628D01*
X159385000Y-73722380D01*
X159391144Y-73660000D01*
X159366623Y-73411037D01*
X159294003Y-73171641D01*
X159176075Y-72951012D01*
X159098171Y-72856086D01*
X159057135Y-72806083D01*
X159057132Y-72806080D01*
X159017370Y-72757630D01*
X158968921Y-72717869D01*
X152705923Y-66454872D01*
X155245000Y-66454872D01*
X155245000Y-66895128D01*
X155330890Y-67326925D01*
X155499369Y-67733669D01*
X155743962Y-68099729D01*
X156055271Y-68411038D01*
X156421331Y-68655631D01*
X156828075Y-68824110D01*
X157259872Y-68910000D01*
X157700128Y-68910000D01*
X158131925Y-68824110D01*
X158538669Y-68655631D01*
X158904729Y-68411038D01*
X159216038Y-68099729D01*
X159460631Y-67733669D01*
X159629110Y-67326925D01*
X159715000Y-66895128D01*
X159715000Y-66454872D01*
X159629110Y-66023075D01*
X159460631Y-65616331D01*
X159216038Y-65250271D01*
X158904729Y-64938962D01*
X158538669Y-64694369D01*
X158131925Y-64525890D01*
X157700128Y-64440000D01*
X157259872Y-64440000D01*
X156828075Y-64525890D01*
X156421331Y-64694369D01*
X156055271Y-64938962D01*
X155743962Y-65250271D01*
X155499369Y-65616331D01*
X155330890Y-66023075D01*
X155245000Y-66454872D01*
X152705923Y-66454872D01*
X148897141Y-62646091D01*
X148857370Y-62597630D01*
X148663988Y-62438925D01*
X148443359Y-62320997D01*
X148225796Y-62255000D01*
X162535000Y-62255000D01*
X162535001Y-159995000D01*
X64795000Y-159995000D01*
X64795000Y-158615413D01*
X75244192Y-158615413D01*
X75339956Y-158879814D01*
X75629571Y-159020704D01*
X75941108Y-159102384D01*
X76262595Y-159121718D01*
X76581675Y-159077961D01*
X76886088Y-158972795D01*
X77060044Y-158879814D01*
X77155808Y-158615413D01*
X76200000Y-157659605D01*
X75244192Y-158615413D01*
X64795000Y-158615413D01*
X64795000Y-157542595D01*
X74558282Y-157542595D01*
X74602039Y-157861675D01*
X74707205Y-158166088D01*
X74800186Y-158340044D01*
X75064587Y-158435808D01*
X76020395Y-157480000D01*
X76379605Y-157480000D01*
X77335413Y-158435808D01*
X77599814Y-158340044D01*
X77740704Y-158050429D01*
X77822384Y-157738892D01*
X77841718Y-157417405D01*
X77828219Y-157318967D01*
X79065000Y-157318967D01*
X79065000Y-157641033D01*
X79127832Y-157956912D01*
X79251082Y-158254463D01*
X79430013Y-158522252D01*
X79657748Y-158749987D01*
X79925537Y-158928918D01*
X80223088Y-159052168D01*
X80538967Y-159115000D01*
X80861033Y-159115000D01*
X81176912Y-159052168D01*
X81474463Y-158928918D01*
X81742252Y-158749987D01*
X81876826Y-158615413D01*
X96199192Y-158615413D01*
X96294956Y-158879814D01*
X96584571Y-159020704D01*
X96896108Y-159102384D01*
X97217595Y-159121718D01*
X97536675Y-159077961D01*
X97841088Y-158972795D01*
X98015044Y-158879814D01*
X98110808Y-158615413D01*
X97155000Y-157659605D01*
X96199192Y-158615413D01*
X81876826Y-158615413D01*
X81969987Y-158522252D01*
X82148918Y-158254463D01*
X82272168Y-157956912D01*
X82314319Y-157745000D01*
X86091928Y-157745000D01*
X86104188Y-157869482D01*
X86140498Y-157989180D01*
X86199463Y-158099494D01*
X86278815Y-158196185D01*
X86375506Y-158275537D01*
X86485820Y-158334502D01*
X86605518Y-158370812D01*
X86730000Y-158383072D01*
X87344250Y-158380000D01*
X87503000Y-158221250D01*
X87503000Y-156972000D01*
X87757000Y-156972000D01*
X87757000Y-158221250D01*
X87915750Y-158380000D01*
X88530000Y-158383072D01*
X88654482Y-158370812D01*
X88774180Y-158334502D01*
X88884494Y-158275537D01*
X88981185Y-158196185D01*
X89060537Y-158099494D01*
X89119502Y-157989180D01*
X89155812Y-157869482D01*
X89168072Y-157745000D01*
X89167060Y-157542595D01*
X95513282Y-157542595D01*
X95557039Y-157861675D01*
X95662205Y-158166088D01*
X95755186Y-158340044D01*
X96019587Y-158435808D01*
X96975395Y-157480000D01*
X97334605Y-157480000D01*
X98290413Y-158435808D01*
X98554814Y-158340044D01*
X98695704Y-158050429D01*
X98777384Y-157738892D01*
X98796718Y-157417405D01*
X98783219Y-157318967D01*
X100020000Y-157318967D01*
X100020000Y-157641033D01*
X100082832Y-157956912D01*
X100206082Y-158254463D01*
X100385013Y-158522252D01*
X100612748Y-158749987D01*
X100880537Y-158928918D01*
X101178088Y-159052168D01*
X101493967Y-159115000D01*
X101816033Y-159115000D01*
X102131912Y-159052168D01*
X102429463Y-158928918D01*
X102697252Y-158749987D01*
X102924987Y-158522252D01*
X103103918Y-158254463D01*
X103227168Y-157956912D01*
X103269319Y-157745000D01*
X106411928Y-157745000D01*
X106424188Y-157869482D01*
X106460498Y-157989180D01*
X106519463Y-158099494D01*
X106598815Y-158196185D01*
X106695506Y-158275537D01*
X106805820Y-158334502D01*
X106925518Y-158370812D01*
X107050000Y-158383072D01*
X107664250Y-158380000D01*
X107823000Y-158221250D01*
X107823000Y-156972000D01*
X108077000Y-156972000D01*
X108077000Y-158221250D01*
X108235750Y-158380000D01*
X108850000Y-158383072D01*
X108974482Y-158370812D01*
X109094180Y-158334502D01*
X109204494Y-158275537D01*
X109301185Y-158196185D01*
X109380537Y-158099494D01*
X109439502Y-157989180D01*
X109475812Y-157869482D01*
X109488072Y-157745000D01*
X109486692Y-157468967D01*
X117055000Y-157468967D01*
X117055000Y-157791033D01*
X117117832Y-158106912D01*
X117241082Y-158404463D01*
X117420013Y-158672252D01*
X117647748Y-158899987D01*
X117915537Y-159078918D01*
X118213088Y-159202168D01*
X118528967Y-159265000D01*
X118851033Y-159265000D01*
X119166912Y-159202168D01*
X119464463Y-159078918D01*
X119732252Y-158899987D01*
X119866826Y-158765413D01*
X122234192Y-158765413D01*
X122329956Y-159029814D01*
X122619571Y-159170704D01*
X122931108Y-159252384D01*
X123252595Y-159271718D01*
X123407952Y-159250413D01*
X137474192Y-159250413D01*
X137569956Y-159514814D01*
X137859571Y-159655704D01*
X138171108Y-159737384D01*
X138492595Y-159756718D01*
X138811675Y-159712961D01*
X139116088Y-159607795D01*
X139290044Y-159514814D01*
X139385808Y-159250413D01*
X138430000Y-158294605D01*
X137474192Y-159250413D01*
X123407952Y-159250413D01*
X123571675Y-159227961D01*
X123876088Y-159122795D01*
X124050044Y-159029814D01*
X124145808Y-158765413D01*
X123190000Y-157809605D01*
X122234192Y-158765413D01*
X119866826Y-158765413D01*
X119959987Y-158672252D01*
X120138918Y-158404463D01*
X120262168Y-158106912D01*
X120325000Y-157791033D01*
X120325000Y-157692595D01*
X121548282Y-157692595D01*
X121592039Y-158011675D01*
X121697205Y-158316088D01*
X121790186Y-158490044D01*
X122054587Y-158585808D01*
X123010395Y-157630000D01*
X123369605Y-157630000D01*
X124325413Y-158585808D01*
X124589814Y-158490044D01*
X124730704Y-158200429D01*
X124812384Y-157888892D01*
X124821037Y-157745000D01*
X129271928Y-157745000D01*
X129284188Y-157869482D01*
X129320498Y-157989180D01*
X129379463Y-158099494D01*
X129458815Y-158196185D01*
X129555506Y-158275537D01*
X129665820Y-158334502D01*
X129785518Y-158370812D01*
X129910000Y-158383072D01*
X130524250Y-158380000D01*
X130683000Y-158221250D01*
X130683000Y-156972000D01*
X130937000Y-156972000D01*
X130937000Y-158221250D01*
X131095750Y-158380000D01*
X131710000Y-158383072D01*
X131834482Y-158370812D01*
X131954180Y-158334502D01*
X132064494Y-158275537D01*
X132161185Y-158196185D01*
X132176441Y-158177595D01*
X136788282Y-158177595D01*
X136832039Y-158496675D01*
X136937205Y-158801088D01*
X137030186Y-158975044D01*
X137294587Y-159070808D01*
X138250395Y-158115000D01*
X138609605Y-158115000D01*
X139565413Y-159070808D01*
X139829814Y-158975044D01*
X139970704Y-158685429D01*
X140052384Y-158373892D01*
X140071718Y-158052405D01*
X140058219Y-157953967D01*
X141295000Y-157953967D01*
X141295000Y-158276033D01*
X141357832Y-158591912D01*
X141481082Y-158889463D01*
X141660013Y-159157252D01*
X141887748Y-159384987D01*
X142155537Y-159563918D01*
X142453088Y-159687168D01*
X142768967Y-159750000D01*
X143091033Y-159750000D01*
X143406912Y-159687168D01*
X143704463Y-159563918D01*
X143972252Y-159384987D01*
X144199987Y-159157252D01*
X144378918Y-158889463D01*
X144502168Y-158591912D01*
X144565000Y-158276033D01*
X144565000Y-157953967D01*
X144523435Y-157745000D01*
X147686928Y-157745000D01*
X147699188Y-157869482D01*
X147735498Y-157989180D01*
X147794463Y-158099494D01*
X147873815Y-158196185D01*
X147970506Y-158275537D01*
X148080820Y-158334502D01*
X148200518Y-158370812D01*
X148325000Y-158383072D01*
X148939250Y-158380000D01*
X149098000Y-158221250D01*
X149098000Y-156972000D01*
X149352000Y-156972000D01*
X149352000Y-158221250D01*
X149510750Y-158380000D01*
X150125000Y-158383072D01*
X150249482Y-158370812D01*
X150369180Y-158334502D01*
X150479494Y-158275537D01*
X150576185Y-158196185D01*
X150655537Y-158099494D01*
X150714502Y-157989180D01*
X150750812Y-157869482D01*
X150763072Y-157745000D01*
X150760000Y-157130750D01*
X150601250Y-156972000D01*
X149352000Y-156972000D01*
X149098000Y-156972000D01*
X147848750Y-156972000D01*
X147690000Y-157130750D01*
X147686928Y-157745000D01*
X144523435Y-157745000D01*
X144502168Y-157638088D01*
X144378918Y-157340537D01*
X144199987Y-157072748D01*
X143972252Y-156845013D01*
X143704463Y-156666082D01*
X143406912Y-156542832D01*
X143091033Y-156480000D01*
X142768967Y-156480000D01*
X142453088Y-156542832D01*
X142155537Y-156666082D01*
X141887748Y-156845013D01*
X141660013Y-157072748D01*
X141481082Y-157340537D01*
X141357832Y-157638088D01*
X141295000Y-157953967D01*
X140058219Y-157953967D01*
X140027961Y-157733325D01*
X139922795Y-157428912D01*
X139829814Y-157254956D01*
X139565413Y-157159192D01*
X138609605Y-158115000D01*
X138250395Y-158115000D01*
X137294587Y-157159192D01*
X137030186Y-157254956D01*
X136889296Y-157544571D01*
X136807616Y-157856108D01*
X136788282Y-158177595D01*
X132176441Y-158177595D01*
X132240537Y-158099494D01*
X132299502Y-157989180D01*
X132335812Y-157869482D01*
X132348072Y-157745000D01*
X132345000Y-157130750D01*
X132193837Y-156979587D01*
X137474192Y-156979587D01*
X138430000Y-157935395D01*
X139385808Y-156979587D01*
X139290044Y-156715186D01*
X139000429Y-156574296D01*
X138688892Y-156492616D01*
X138367405Y-156473282D01*
X138048325Y-156517039D01*
X137743912Y-156622205D01*
X137569956Y-156715186D01*
X137474192Y-156979587D01*
X132193837Y-156979587D01*
X132186250Y-156972000D01*
X130937000Y-156972000D01*
X130683000Y-156972000D01*
X129433750Y-156972000D01*
X129275000Y-157130750D01*
X129271928Y-157745000D01*
X124821037Y-157745000D01*
X124831718Y-157567405D01*
X124787961Y-157248325D01*
X124682795Y-156943912D01*
X124589814Y-156769956D01*
X124325413Y-156674192D01*
X123369605Y-157630000D01*
X123010395Y-157630000D01*
X122054587Y-156674192D01*
X121790186Y-156769956D01*
X121649296Y-157059571D01*
X121567616Y-157371108D01*
X121548282Y-157692595D01*
X120325000Y-157692595D01*
X120325000Y-157468967D01*
X120262168Y-157153088D01*
X120138918Y-156855537D01*
X119959987Y-156587748D01*
X119866826Y-156494587D01*
X122234192Y-156494587D01*
X123190000Y-157450395D01*
X124145808Y-156494587D01*
X124050044Y-156230186D01*
X123760429Y-156089296D01*
X123448892Y-156007616D01*
X123127405Y-155988282D01*
X122808325Y-156032039D01*
X122503912Y-156137205D01*
X122329956Y-156230186D01*
X122234192Y-156494587D01*
X119866826Y-156494587D01*
X119732252Y-156360013D01*
X119464463Y-156181082D01*
X119166912Y-156057832D01*
X118851033Y-155995000D01*
X118528967Y-155995000D01*
X118213088Y-156057832D01*
X117915537Y-156181082D01*
X117647748Y-156360013D01*
X117420013Y-156587748D01*
X117241082Y-156855537D01*
X117117832Y-157153088D01*
X117055000Y-157468967D01*
X109486692Y-157468967D01*
X109485000Y-157130750D01*
X109326250Y-156972000D01*
X108077000Y-156972000D01*
X107823000Y-156972000D01*
X106573750Y-156972000D01*
X106415000Y-157130750D01*
X106411928Y-157745000D01*
X103269319Y-157745000D01*
X103290000Y-157641033D01*
X103290000Y-157318967D01*
X103227168Y-157003088D01*
X103103918Y-156705537D01*
X102924987Y-156437748D01*
X102697252Y-156210013D01*
X102429463Y-156031082D01*
X102221644Y-155945000D01*
X106411928Y-155945000D01*
X106415000Y-156559250D01*
X106573750Y-156718000D01*
X107823000Y-156718000D01*
X107823000Y-156698000D01*
X108077000Y-156698000D01*
X108077000Y-156718000D01*
X109326250Y-156718000D01*
X109485000Y-156559250D01*
X109488072Y-155945000D01*
X129271928Y-155945000D01*
X129275000Y-156559250D01*
X129433750Y-156718000D01*
X130683000Y-156718000D01*
X130683000Y-156698000D01*
X130937000Y-156698000D01*
X130937000Y-156718000D01*
X132186250Y-156718000D01*
X132345000Y-156559250D01*
X132348072Y-155945000D01*
X147686928Y-155945000D01*
X147690000Y-156559250D01*
X147848750Y-156718000D01*
X149098000Y-156718000D01*
X149098000Y-156698000D01*
X149352000Y-156698000D01*
X149352000Y-156718000D01*
X150601250Y-156718000D01*
X150760000Y-156559250D01*
X150763072Y-155945000D01*
X150750812Y-155820518D01*
X150714502Y-155700820D01*
X150655537Y-155590506D01*
X150576185Y-155493815D01*
X150479494Y-155414463D01*
X150369180Y-155355498D01*
X150367117Y-155354872D01*
X155880000Y-155354872D01*
X155880000Y-155795128D01*
X155965890Y-156226925D01*
X156134369Y-156633669D01*
X156378962Y-156999729D01*
X156690271Y-157311038D01*
X157056331Y-157555631D01*
X157463075Y-157724110D01*
X157894872Y-157810000D01*
X158335128Y-157810000D01*
X158766925Y-157724110D01*
X159173669Y-157555631D01*
X159539729Y-157311038D01*
X159851038Y-156999729D01*
X160095631Y-156633669D01*
X160264110Y-156226925D01*
X160350000Y-155795128D01*
X160350000Y-155354872D01*
X160264110Y-154923075D01*
X160095631Y-154516331D01*
X159851038Y-154150271D01*
X159539729Y-153838962D01*
X159173669Y-153594369D01*
X158766925Y-153425890D01*
X158335128Y-153340000D01*
X157894872Y-153340000D01*
X157463075Y-153425890D01*
X157056331Y-153594369D01*
X156690271Y-153838962D01*
X156378962Y-154150271D01*
X156134369Y-154516331D01*
X155965890Y-154923075D01*
X155880000Y-155354872D01*
X150367117Y-155354872D01*
X150350873Y-155349944D01*
X150417312Y-155283505D01*
X150585299Y-155032095D01*
X150701011Y-154752743D01*
X150760000Y-154456184D01*
X150760000Y-154153816D01*
X150701011Y-153857257D01*
X150585299Y-153577905D01*
X150417312Y-153326495D01*
X150203505Y-153112688D01*
X149952095Y-152944701D01*
X149672743Y-152828989D01*
X149376184Y-152770000D01*
X149073816Y-152770000D01*
X148777257Y-152828989D01*
X148497905Y-152944701D01*
X148246495Y-153112688D01*
X148032688Y-153326495D01*
X147864701Y-153577905D01*
X147748989Y-153857257D01*
X147690000Y-154153816D01*
X147690000Y-154456184D01*
X147748989Y-154752743D01*
X147864701Y-155032095D01*
X148032688Y-155283505D01*
X148099127Y-155349944D01*
X148080820Y-155355498D01*
X147970506Y-155414463D01*
X147873815Y-155493815D01*
X147794463Y-155590506D01*
X147735498Y-155700820D01*
X147699188Y-155820518D01*
X147686928Y-155945000D01*
X132348072Y-155945000D01*
X132335812Y-155820518D01*
X132299502Y-155700820D01*
X132240537Y-155590506D01*
X132161185Y-155493815D01*
X132064494Y-155414463D01*
X131954180Y-155355498D01*
X131935873Y-155349944D01*
X132002312Y-155283505D01*
X132170299Y-155032095D01*
X132286011Y-154752743D01*
X132345000Y-154456184D01*
X132345000Y-154153816D01*
X132286011Y-153857257D01*
X132170299Y-153577905D01*
X132002312Y-153326495D01*
X131788505Y-153112688D01*
X131537095Y-152944701D01*
X131257743Y-152828989D01*
X130961184Y-152770000D01*
X130658816Y-152770000D01*
X130362257Y-152828989D01*
X130082905Y-152944701D01*
X129831495Y-153112688D01*
X129617688Y-153326495D01*
X129449701Y-153577905D01*
X129333989Y-153857257D01*
X129275000Y-154153816D01*
X129275000Y-154456184D01*
X129333989Y-154752743D01*
X129449701Y-155032095D01*
X129617688Y-155283505D01*
X129684127Y-155349944D01*
X129665820Y-155355498D01*
X129555506Y-155414463D01*
X129458815Y-155493815D01*
X129379463Y-155590506D01*
X129320498Y-155700820D01*
X129284188Y-155820518D01*
X129271928Y-155945000D01*
X109488072Y-155945000D01*
X109475812Y-155820518D01*
X109439502Y-155700820D01*
X109380537Y-155590506D01*
X109301185Y-155493815D01*
X109204494Y-155414463D01*
X109094180Y-155355498D01*
X109075873Y-155349944D01*
X109142312Y-155283505D01*
X109310299Y-155032095D01*
X109426011Y-154752743D01*
X109485000Y-154456184D01*
X109485000Y-154153816D01*
X109426011Y-153857257D01*
X109310299Y-153577905D01*
X109142312Y-153326495D01*
X108928505Y-153112688D01*
X108677095Y-152944701D01*
X108397743Y-152828989D01*
X108101184Y-152770000D01*
X107798816Y-152770000D01*
X107502257Y-152828989D01*
X107222905Y-152944701D01*
X106971495Y-153112688D01*
X106757688Y-153326495D01*
X106589701Y-153577905D01*
X106473989Y-153857257D01*
X106415000Y-154153816D01*
X106415000Y-154456184D01*
X106473989Y-154752743D01*
X106589701Y-155032095D01*
X106757688Y-155283505D01*
X106824127Y-155349944D01*
X106805820Y-155355498D01*
X106695506Y-155414463D01*
X106598815Y-155493815D01*
X106519463Y-155590506D01*
X106460498Y-155700820D01*
X106424188Y-155820518D01*
X106411928Y-155945000D01*
X102221644Y-155945000D01*
X102131912Y-155907832D01*
X101816033Y-155845000D01*
X101493967Y-155845000D01*
X101178088Y-155907832D01*
X100880537Y-156031082D01*
X100612748Y-156210013D01*
X100385013Y-156437748D01*
X100206082Y-156705537D01*
X100082832Y-157003088D01*
X100020000Y-157318967D01*
X98783219Y-157318967D01*
X98752961Y-157098325D01*
X98647795Y-156793912D01*
X98554814Y-156619956D01*
X98290413Y-156524192D01*
X97334605Y-157480000D01*
X96975395Y-157480000D01*
X96019587Y-156524192D01*
X95755186Y-156619956D01*
X95614296Y-156909571D01*
X95532616Y-157221108D01*
X95513282Y-157542595D01*
X89167060Y-157542595D01*
X89165000Y-157130750D01*
X89006250Y-156972000D01*
X87757000Y-156972000D01*
X87503000Y-156972000D01*
X86253750Y-156972000D01*
X86095000Y-157130750D01*
X86091928Y-157745000D01*
X82314319Y-157745000D01*
X82335000Y-157641033D01*
X82335000Y-157318967D01*
X82272168Y-157003088D01*
X82148918Y-156705537D01*
X81969987Y-156437748D01*
X81742252Y-156210013D01*
X81474463Y-156031082D01*
X81266644Y-155945000D01*
X86091928Y-155945000D01*
X86095000Y-156559250D01*
X86253750Y-156718000D01*
X87503000Y-156718000D01*
X87503000Y-156698000D01*
X87757000Y-156698000D01*
X87757000Y-156718000D01*
X89006250Y-156718000D01*
X89165000Y-156559250D01*
X89166073Y-156344587D01*
X96199192Y-156344587D01*
X97155000Y-157300395D01*
X98110808Y-156344587D01*
X98015044Y-156080186D01*
X97725429Y-155939296D01*
X97413892Y-155857616D01*
X97092405Y-155838282D01*
X96773325Y-155882039D01*
X96468912Y-155987205D01*
X96294956Y-156080186D01*
X96199192Y-156344587D01*
X89166073Y-156344587D01*
X89168072Y-155945000D01*
X89155812Y-155820518D01*
X89119502Y-155700820D01*
X89060537Y-155590506D01*
X88981185Y-155493815D01*
X88884494Y-155414463D01*
X88774180Y-155355498D01*
X88755873Y-155349944D01*
X88822312Y-155283505D01*
X88990299Y-155032095D01*
X89106011Y-154752743D01*
X89165000Y-154456184D01*
X89165000Y-154153816D01*
X89106011Y-153857257D01*
X88990299Y-153577905D01*
X88822312Y-153326495D01*
X88608505Y-153112688D01*
X88357095Y-152944701D01*
X88077743Y-152828989D01*
X87781184Y-152770000D01*
X87478816Y-152770000D01*
X87182257Y-152828989D01*
X86902905Y-152944701D01*
X86651495Y-153112688D01*
X86437688Y-153326495D01*
X86269701Y-153577905D01*
X86153989Y-153857257D01*
X86095000Y-154153816D01*
X86095000Y-154456184D01*
X86153989Y-154752743D01*
X86269701Y-155032095D01*
X86437688Y-155283505D01*
X86504127Y-155349944D01*
X86485820Y-155355498D01*
X86375506Y-155414463D01*
X86278815Y-155493815D01*
X86199463Y-155590506D01*
X86140498Y-155700820D01*
X86104188Y-155820518D01*
X86091928Y-155945000D01*
X81266644Y-155945000D01*
X81176912Y-155907832D01*
X80861033Y-155845000D01*
X80538967Y-155845000D01*
X80223088Y-155907832D01*
X79925537Y-156031082D01*
X79657748Y-156210013D01*
X79430013Y-156437748D01*
X79251082Y-156705537D01*
X79127832Y-157003088D01*
X79065000Y-157318967D01*
X77828219Y-157318967D01*
X77797961Y-157098325D01*
X77692795Y-156793912D01*
X77599814Y-156619956D01*
X77335413Y-156524192D01*
X76379605Y-157480000D01*
X76020395Y-157480000D01*
X75064587Y-156524192D01*
X74800186Y-156619956D01*
X74659296Y-156909571D01*
X74577616Y-157221108D01*
X74558282Y-157542595D01*
X64795000Y-157542595D01*
X64795000Y-154719872D01*
X66980000Y-154719872D01*
X66980000Y-155160128D01*
X67065890Y-155591925D01*
X67234369Y-155998669D01*
X67478962Y-156364729D01*
X67790271Y-156676038D01*
X68156331Y-156920631D01*
X68563075Y-157089110D01*
X68994872Y-157175000D01*
X69435128Y-157175000D01*
X69866925Y-157089110D01*
X70273669Y-156920631D01*
X70639729Y-156676038D01*
X70951038Y-156364729D01*
X70964496Y-156344587D01*
X75244192Y-156344587D01*
X76200000Y-157300395D01*
X77155808Y-156344587D01*
X77060044Y-156080186D01*
X76770429Y-155939296D01*
X76458892Y-155857616D01*
X76137405Y-155838282D01*
X75818325Y-155882039D01*
X75513912Y-155987205D01*
X75339956Y-156080186D01*
X75244192Y-156344587D01*
X70964496Y-156344587D01*
X71195631Y-155998669D01*
X71364110Y-155591925D01*
X71450000Y-155160128D01*
X71450000Y-154719872D01*
X71364110Y-154288075D01*
X71195631Y-153881331D01*
X70951038Y-153515271D01*
X70639729Y-153203962D01*
X70273669Y-152959369D01*
X69866925Y-152790890D01*
X69435128Y-152705000D01*
X68994872Y-152705000D01*
X68563075Y-152790890D01*
X68156331Y-152959369D01*
X67790271Y-153203962D01*
X67478962Y-153515271D01*
X67234369Y-153881331D01*
X67065890Y-154288075D01*
X66980000Y-154719872D01*
X64795000Y-154719872D01*
X64795000Y-152115413D01*
X75244192Y-152115413D01*
X75339956Y-152379814D01*
X75629571Y-152520704D01*
X75941108Y-152602384D01*
X76262595Y-152621718D01*
X76581675Y-152577961D01*
X76886088Y-152472795D01*
X77060044Y-152379814D01*
X77155808Y-152115413D01*
X76200000Y-151159605D01*
X75244192Y-152115413D01*
X64795000Y-152115413D01*
X64795000Y-151042595D01*
X74558282Y-151042595D01*
X74602039Y-151361675D01*
X74707205Y-151666088D01*
X74800186Y-151840044D01*
X75064587Y-151935808D01*
X76020395Y-150980000D01*
X76379605Y-150980000D01*
X77335413Y-151935808D01*
X77599814Y-151840044D01*
X77740704Y-151550429D01*
X77822384Y-151238892D01*
X77841718Y-150917405D01*
X77828219Y-150818967D01*
X79065000Y-150818967D01*
X79065000Y-151141033D01*
X79127832Y-151456912D01*
X79251082Y-151754463D01*
X79430013Y-152022252D01*
X79657748Y-152249987D01*
X79925537Y-152428918D01*
X80223088Y-152552168D01*
X80538967Y-152615000D01*
X80861033Y-152615000D01*
X81176912Y-152552168D01*
X81474463Y-152428918D01*
X81742252Y-152249987D01*
X81876826Y-152115413D01*
X96199192Y-152115413D01*
X96294956Y-152379814D01*
X96584571Y-152520704D01*
X96896108Y-152602384D01*
X97217595Y-152621718D01*
X97536675Y-152577961D01*
X97841088Y-152472795D01*
X98015044Y-152379814D01*
X98110808Y-152115413D01*
X97155000Y-151159605D01*
X96199192Y-152115413D01*
X81876826Y-152115413D01*
X81969987Y-152022252D01*
X82148918Y-151754463D01*
X82272168Y-151456912D01*
X82335000Y-151141033D01*
X82335000Y-151042595D01*
X95513282Y-151042595D01*
X95557039Y-151361675D01*
X95662205Y-151666088D01*
X95755186Y-151840044D01*
X96019587Y-151935808D01*
X96975395Y-150980000D01*
X97334605Y-150980000D01*
X98290413Y-151935808D01*
X98554814Y-151840044D01*
X98695704Y-151550429D01*
X98777384Y-151238892D01*
X98796718Y-150917405D01*
X98752961Y-150598325D01*
X98647795Y-150293912D01*
X98554814Y-150119956D01*
X98290413Y-150024192D01*
X97334605Y-150980000D01*
X96975395Y-150980000D01*
X96019587Y-150024192D01*
X95755186Y-150119956D01*
X95614296Y-150409571D01*
X95532616Y-150721108D01*
X95513282Y-151042595D01*
X82335000Y-151042595D01*
X82335000Y-150818967D01*
X82313941Y-150713097D01*
X83182451Y-149844587D01*
X96199192Y-149844587D01*
X97155000Y-150800395D01*
X98110808Y-149844587D01*
X98015044Y-149580186D01*
X97725429Y-149439296D01*
X97413892Y-149357616D01*
X97092405Y-149338282D01*
X96773325Y-149382039D01*
X96468912Y-149487205D01*
X96294956Y-149580186D01*
X96199192Y-149844587D01*
X83182451Y-149844587D01*
X86659538Y-146367500D01*
X98706237Y-146367500D01*
X98699774Y-146383102D01*
X98660000Y-146583061D01*
X98660000Y-146786939D01*
X98699774Y-146986898D01*
X98777795Y-147175256D01*
X98891063Y-147344774D01*
X99035226Y-147488937D01*
X99204744Y-147602205D01*
X99393102Y-147680226D01*
X99593061Y-147720000D01*
X99796939Y-147720000D01*
X99996898Y-147680226D01*
X100100047Y-147637500D01*
X105639953Y-147637500D01*
X105743102Y-147680226D01*
X105943061Y-147720000D01*
X106146939Y-147720000D01*
X106216872Y-147706090D01*
X103895462Y-150027500D01*
X102984957Y-150027500D01*
X102924987Y-149937748D01*
X102697252Y-149710013D01*
X102429463Y-149531082D01*
X102131912Y-149407832D01*
X101816033Y-149345000D01*
X101493967Y-149345000D01*
X101178088Y-149407832D01*
X100880537Y-149531082D01*
X100612748Y-149710013D01*
X100385013Y-149937748D01*
X100206082Y-150205537D01*
X100082832Y-150503088D01*
X100020000Y-150818967D01*
X100020000Y-151141033D01*
X100082832Y-151456912D01*
X100206082Y-151754463D01*
X100385013Y-152022252D01*
X100612748Y-152249987D01*
X100880537Y-152428918D01*
X101178088Y-152552168D01*
X101493967Y-152615000D01*
X101816033Y-152615000D01*
X102131912Y-152552168D01*
X102429463Y-152428918D01*
X102697252Y-152249987D01*
X102924987Y-152022252D01*
X102984957Y-151932500D01*
X104243215Y-151932500D01*
X104290000Y-151937108D01*
X104336785Y-151932500D01*
X104476723Y-151918717D01*
X104656269Y-151864252D01*
X104821741Y-151775806D01*
X104966778Y-151656778D01*
X104996607Y-151620431D01*
X111130436Y-145486603D01*
X111166778Y-145456778D01*
X111285806Y-145311741D01*
X111374252Y-145146269D01*
X111428717Y-144966723D01*
X111436643Y-144886250D01*
X111447108Y-144780001D01*
X111442500Y-144733216D01*
X111442500Y-136402607D01*
X111643475Y-136201632D01*
X111760000Y-136027240D01*
X111876525Y-136201632D01*
X112077500Y-136402607D01*
X112077501Y-145423205D01*
X112072892Y-145470000D01*
X112091283Y-145656722D01*
X112145749Y-145836269D01*
X112234194Y-146001740D01*
X112278263Y-146055438D01*
X112353223Y-146146778D01*
X112389564Y-146176602D01*
X117076059Y-150863098D01*
X117055000Y-150968967D01*
X117055000Y-151291033D01*
X117117832Y-151606912D01*
X117241082Y-151904463D01*
X117420013Y-152172252D01*
X117647748Y-152399987D01*
X117915537Y-152578918D01*
X118213088Y-152702168D01*
X118528967Y-152765000D01*
X118851033Y-152765000D01*
X119166912Y-152702168D01*
X119464463Y-152578918D01*
X119732252Y-152399987D01*
X119866826Y-152265413D01*
X122234192Y-152265413D01*
X122329956Y-152529814D01*
X122619571Y-152670704D01*
X122931108Y-152752384D01*
X123252595Y-152771718D01*
X123407952Y-152750413D01*
X137474192Y-152750413D01*
X137569956Y-153014814D01*
X137859571Y-153155704D01*
X138171108Y-153237384D01*
X138492595Y-153256718D01*
X138811675Y-153212961D01*
X139116088Y-153107795D01*
X139290044Y-153014814D01*
X139385808Y-152750413D01*
X138430000Y-151794605D01*
X137474192Y-152750413D01*
X123407952Y-152750413D01*
X123571675Y-152727961D01*
X123876088Y-152622795D01*
X124050044Y-152529814D01*
X124145808Y-152265413D01*
X123190000Y-151309605D01*
X122234192Y-152265413D01*
X119866826Y-152265413D01*
X119959987Y-152172252D01*
X120138918Y-151904463D01*
X120262168Y-151606912D01*
X120325000Y-151291033D01*
X120325000Y-151192595D01*
X121548282Y-151192595D01*
X121592039Y-151511675D01*
X121697205Y-151816088D01*
X121790186Y-151990044D01*
X122054587Y-152085808D01*
X123010395Y-151130000D01*
X123369605Y-151130000D01*
X124325413Y-152085808D01*
X124589814Y-151990044D01*
X124730704Y-151700429D01*
X124736690Y-151677595D01*
X136788282Y-151677595D01*
X136832039Y-151996675D01*
X136937205Y-152301088D01*
X137030186Y-152475044D01*
X137294587Y-152570808D01*
X138250395Y-151615000D01*
X138609605Y-151615000D01*
X139565413Y-152570808D01*
X139829814Y-152475044D01*
X139970704Y-152185429D01*
X140052384Y-151873892D01*
X140071718Y-151552405D01*
X140027961Y-151233325D01*
X139922795Y-150928912D01*
X139829814Y-150754956D01*
X139565413Y-150659192D01*
X138609605Y-151615000D01*
X138250395Y-151615000D01*
X137294587Y-150659192D01*
X137030186Y-150754956D01*
X136889296Y-151044571D01*
X136807616Y-151356108D01*
X136788282Y-151677595D01*
X124736690Y-151677595D01*
X124812384Y-151388892D01*
X124831718Y-151067405D01*
X124787961Y-150748325D01*
X124695120Y-150479587D01*
X137474192Y-150479587D01*
X138430000Y-151435395D01*
X139385808Y-150479587D01*
X139290044Y-150215186D01*
X139000429Y-150074296D01*
X138688892Y-149992616D01*
X138367405Y-149973282D01*
X138048325Y-150017039D01*
X137743912Y-150122205D01*
X137569956Y-150215186D01*
X137474192Y-150479587D01*
X124695120Y-150479587D01*
X124682795Y-150443912D01*
X124589814Y-150269956D01*
X124325413Y-150174192D01*
X123369605Y-151130000D01*
X123010395Y-151130000D01*
X122054587Y-150174192D01*
X121790186Y-150269956D01*
X121649296Y-150559571D01*
X121567616Y-150871108D01*
X121548282Y-151192595D01*
X120325000Y-151192595D01*
X120325000Y-150968967D01*
X120262168Y-150653088D01*
X120138918Y-150355537D01*
X119959987Y-150087748D01*
X119866826Y-149994587D01*
X122234192Y-149994587D01*
X123190000Y-150950395D01*
X124145808Y-149994587D01*
X124050044Y-149730186D01*
X123760429Y-149589296D01*
X123448892Y-149507616D01*
X123127405Y-149488282D01*
X122808325Y-149532039D01*
X122503912Y-149637205D01*
X122329956Y-149730186D01*
X122234192Y-149994587D01*
X119866826Y-149994587D01*
X119732252Y-149860013D01*
X119464463Y-149681082D01*
X119166912Y-149557832D01*
X118851033Y-149495000D01*
X118528967Y-149495000D01*
X118423098Y-149516059D01*
X113982500Y-145075462D01*
X113982500Y-136402607D01*
X114183475Y-136201632D01*
X114300000Y-136027240D01*
X114416525Y-136201632D01*
X114617500Y-136402607D01*
X114617501Y-137748206D01*
X114612892Y-137795000D01*
X114631283Y-137981722D01*
X114685749Y-138161269D01*
X114774195Y-138326741D01*
X114893223Y-138471778D01*
X114929564Y-138501602D01*
X121213397Y-144785436D01*
X121243222Y-144821778D01*
X121388259Y-144940806D01*
X121553731Y-145029252D01*
X121733277Y-145083717D01*
X121919999Y-145102108D01*
X121966784Y-145097500D01*
X135065462Y-145097500D01*
X141316059Y-151348097D01*
X141295000Y-151453967D01*
X141295000Y-151776033D01*
X141357832Y-152091912D01*
X141481082Y-152389463D01*
X141660013Y-152657252D01*
X141887748Y-152884987D01*
X142155537Y-153063918D01*
X142453088Y-153187168D01*
X142768967Y-153250000D01*
X143091033Y-153250000D01*
X143406912Y-153187168D01*
X143704463Y-153063918D01*
X143972252Y-152884987D01*
X144199987Y-152657252D01*
X144378918Y-152389463D01*
X144502168Y-152091912D01*
X144565000Y-151776033D01*
X144565000Y-151453967D01*
X144502168Y-151138088D01*
X144378918Y-150840537D01*
X144199987Y-150572748D01*
X143972252Y-150345013D01*
X143704463Y-150166082D01*
X143406912Y-150042832D01*
X143091033Y-149980000D01*
X142768967Y-149980000D01*
X142663097Y-150001059D01*
X136166607Y-143504569D01*
X136136778Y-143468222D01*
X135991741Y-143349194D01*
X135826269Y-143260748D01*
X135646723Y-143206283D01*
X135506785Y-143192500D01*
X135460000Y-143187892D01*
X135413215Y-143192500D01*
X122314539Y-143192500D01*
X116522500Y-137400462D01*
X116522500Y-136402607D01*
X116723475Y-136201632D01*
X116840000Y-136027240D01*
X116956525Y-136201632D01*
X117163368Y-136408475D01*
X117406589Y-136570990D01*
X117676842Y-136682932D01*
X117963740Y-136740000D01*
X118256260Y-136740000D01*
X118543158Y-136682932D01*
X118813411Y-136570990D01*
X119056632Y-136408475D01*
X119263475Y-136201632D01*
X119380000Y-136027240D01*
X119496525Y-136201632D01*
X119703368Y-136408475D01*
X119946589Y-136570990D01*
X120216842Y-136682932D01*
X120503740Y-136740000D01*
X120796260Y-136740000D01*
X121083158Y-136682932D01*
X121353411Y-136570990D01*
X121596632Y-136408475D01*
X121803475Y-136201632D01*
X121920000Y-136027240D01*
X122036525Y-136201632D01*
X122243368Y-136408475D01*
X122486589Y-136570990D01*
X122756842Y-136682932D01*
X123043740Y-136740000D01*
X123336260Y-136740000D01*
X123623158Y-136682932D01*
X123893411Y-136570990D01*
X124136632Y-136408475D01*
X124343475Y-136201632D01*
X124460000Y-136027240D01*
X124576525Y-136201632D01*
X124783368Y-136408475D01*
X125026589Y-136570990D01*
X125296842Y-136682932D01*
X125583740Y-136740000D01*
X125876260Y-136740000D01*
X126163158Y-136682932D01*
X126433411Y-136570990D01*
X126676632Y-136408475D01*
X126883475Y-136201632D01*
X127000000Y-136027240D01*
X127116525Y-136201632D01*
X127323368Y-136408475D01*
X127566589Y-136570990D01*
X127836842Y-136682932D01*
X128123740Y-136740000D01*
X128416260Y-136740000D01*
X128703158Y-136682932D01*
X128973411Y-136570990D01*
X129216632Y-136408475D01*
X129423475Y-136201632D01*
X129540000Y-136027240D01*
X129656525Y-136201632D01*
X129863368Y-136408475D01*
X130106589Y-136570990D01*
X130376842Y-136682932D01*
X130663740Y-136740000D01*
X130956260Y-136740000D01*
X131243158Y-136682932D01*
X131513411Y-136570990D01*
X131756632Y-136408475D01*
X131963475Y-136201632D01*
X132080000Y-136027240D01*
X132196525Y-136201632D01*
X132403368Y-136408475D01*
X132646589Y-136570990D01*
X132916842Y-136682932D01*
X133203740Y-136740000D01*
X133496260Y-136740000D01*
X133783158Y-136682932D01*
X134053411Y-136570990D01*
X134296632Y-136408475D01*
X134503475Y-136201632D01*
X134620000Y-136027240D01*
X134736525Y-136201632D01*
X134943368Y-136408475D01*
X135186589Y-136570990D01*
X135456842Y-136682932D01*
X135743740Y-136740000D01*
X136036260Y-136740000D01*
X136323158Y-136682932D01*
X136593411Y-136570990D01*
X136836632Y-136408475D01*
X137043475Y-136201632D01*
X137160000Y-136027240D01*
X137276525Y-136201632D01*
X137483368Y-136408475D01*
X137726589Y-136570990D01*
X137996842Y-136682932D01*
X138283740Y-136740000D01*
X138576260Y-136740000D01*
X138863158Y-136682932D01*
X139133411Y-136570990D01*
X139376632Y-136408475D01*
X139583475Y-136201632D01*
X139700000Y-136027240D01*
X139816525Y-136201632D01*
X140023368Y-136408475D01*
X140266589Y-136570990D01*
X140536842Y-136682932D01*
X140823740Y-136740000D01*
X141116260Y-136740000D01*
X141403158Y-136682932D01*
X141673411Y-136570990D01*
X141916632Y-136408475D01*
X142041710Y-136283397D01*
X142661208Y-136283397D01*
X142738843Y-136532472D01*
X143002883Y-136658371D01*
X143286411Y-136730339D01*
X143578531Y-136745611D01*
X143868019Y-136703599D01*
X144143747Y-136605919D01*
X144281157Y-136532472D01*
X144358792Y-136283397D01*
X145201208Y-136283397D01*
X145278843Y-136532472D01*
X145542883Y-136658371D01*
X145826411Y-136730339D01*
X146118531Y-136745611D01*
X146408019Y-136703599D01*
X146683747Y-136605919D01*
X146821157Y-136532472D01*
X146898792Y-136283397D01*
X146050000Y-135434605D01*
X145201208Y-136283397D01*
X144358792Y-136283397D01*
X143510000Y-135434605D01*
X142661208Y-136283397D01*
X142041710Y-136283397D01*
X142123475Y-136201632D01*
X142239311Y-136028271D01*
X142481603Y-136103792D01*
X143330395Y-135255000D01*
X143689605Y-135255000D01*
X144538397Y-136103792D01*
X144780000Y-136028486D01*
X145021603Y-136103792D01*
X145870395Y-135255000D01*
X146229605Y-135255000D01*
X147078397Y-136103792D01*
X147327472Y-136026157D01*
X147453371Y-135762117D01*
X147525339Y-135478589D01*
X147540611Y-135186469D01*
X147498599Y-134896981D01*
X147400919Y-134621253D01*
X147327472Y-134483843D01*
X147078397Y-134406208D01*
X146229605Y-135255000D01*
X145870395Y-135255000D01*
X145021603Y-134406208D01*
X144780000Y-134481514D01*
X144538397Y-134406208D01*
X143689605Y-135255000D01*
X143330395Y-135255000D01*
X142481603Y-134406208D01*
X142239311Y-134481729D01*
X142123475Y-134308368D01*
X142041710Y-134226603D01*
X142661208Y-134226603D01*
X143510000Y-135075395D01*
X144358792Y-134226603D01*
X145201208Y-134226603D01*
X146050000Y-135075395D01*
X146898792Y-134226603D01*
X146821157Y-133977528D01*
X146557117Y-133851629D01*
X146273589Y-133779661D01*
X145981469Y-133764389D01*
X145691981Y-133806401D01*
X145416253Y-133904081D01*
X145278843Y-133977528D01*
X145201208Y-134226603D01*
X144358792Y-134226603D01*
X144281157Y-133977528D01*
X144017117Y-133851629D01*
X143733589Y-133779661D01*
X143441469Y-133764389D01*
X143151981Y-133806401D01*
X142876253Y-133904081D01*
X142738843Y-133977528D01*
X142661208Y-134226603D01*
X142041710Y-134226603D01*
X141916632Y-134101525D01*
X141673411Y-133939010D01*
X141403158Y-133827068D01*
X141116260Y-133770000D01*
X140823740Y-133770000D01*
X140536842Y-133827068D01*
X140266589Y-133939010D01*
X140023368Y-134101525D01*
X139816525Y-134308368D01*
X139700000Y-134482760D01*
X139583475Y-134308368D01*
X139376632Y-134101525D01*
X139133411Y-133939010D01*
X138863158Y-133827068D01*
X138576260Y-133770000D01*
X138283740Y-133770000D01*
X137996842Y-133827068D01*
X137726589Y-133939010D01*
X137483368Y-134101525D01*
X137276525Y-134308368D01*
X137160000Y-134482760D01*
X137043475Y-134308368D01*
X136836632Y-134101525D01*
X136593411Y-133939010D01*
X136323158Y-133827068D01*
X136036260Y-133770000D01*
X135743740Y-133770000D01*
X135456842Y-133827068D01*
X135186589Y-133939010D01*
X134943368Y-134101525D01*
X134736525Y-134308368D01*
X134620000Y-134482760D01*
X134503475Y-134308368D01*
X134296632Y-134101525D01*
X134053411Y-133939010D01*
X133783158Y-133827068D01*
X133496260Y-133770000D01*
X133203740Y-133770000D01*
X132916842Y-133827068D01*
X132646589Y-133939010D01*
X132403368Y-134101525D01*
X132196525Y-134308368D01*
X132080000Y-134482760D01*
X131963475Y-134308368D01*
X131756632Y-134101525D01*
X131513411Y-133939010D01*
X131243158Y-133827068D01*
X130956260Y-133770000D01*
X130663740Y-133770000D01*
X130376842Y-133827068D01*
X130106589Y-133939010D01*
X129863368Y-134101525D01*
X129656525Y-134308368D01*
X129540000Y-134482760D01*
X129423475Y-134308368D01*
X129216632Y-134101525D01*
X128973411Y-133939010D01*
X128703158Y-133827068D01*
X128416260Y-133770000D01*
X128123740Y-133770000D01*
X127836842Y-133827068D01*
X127566589Y-133939010D01*
X127323368Y-134101525D01*
X127116525Y-134308368D01*
X127000000Y-134482760D01*
X126883475Y-134308368D01*
X126676632Y-134101525D01*
X126433411Y-133939010D01*
X126163158Y-133827068D01*
X125876260Y-133770000D01*
X125583740Y-133770000D01*
X125296842Y-133827068D01*
X125026589Y-133939010D01*
X124783368Y-134101525D01*
X124576525Y-134308368D01*
X124460000Y-134482760D01*
X124343475Y-134308368D01*
X124136632Y-134101525D01*
X123893411Y-133939010D01*
X123623158Y-133827068D01*
X123336260Y-133770000D01*
X123043740Y-133770000D01*
X122756842Y-133827068D01*
X122486589Y-133939010D01*
X122243368Y-134101525D01*
X122036525Y-134308368D01*
X121920000Y-134482760D01*
X121803475Y-134308368D01*
X121596632Y-134101525D01*
X121353411Y-133939010D01*
X121083158Y-133827068D01*
X120796260Y-133770000D01*
X120503740Y-133770000D01*
X120216842Y-133827068D01*
X119946589Y-133939010D01*
X119703368Y-134101525D01*
X119496525Y-134308368D01*
X119380000Y-134482760D01*
X119263475Y-134308368D01*
X119056632Y-134101525D01*
X118813411Y-133939010D01*
X118543158Y-133827068D01*
X118256260Y-133770000D01*
X117963740Y-133770000D01*
X117676842Y-133827068D01*
X117406589Y-133939010D01*
X117163368Y-134101525D01*
X116956525Y-134308368D01*
X116840000Y-134482760D01*
X116723475Y-134308368D01*
X116516632Y-134101525D01*
X116273411Y-133939010D01*
X116003158Y-133827068D01*
X115716260Y-133770000D01*
X115423740Y-133770000D01*
X115136842Y-133827068D01*
X114866589Y-133939010D01*
X114623368Y-134101525D01*
X114416525Y-134308368D01*
X114300000Y-134482760D01*
X114183475Y-134308368D01*
X113976632Y-134101525D01*
X113733411Y-133939010D01*
X113463158Y-133827068D01*
X113176260Y-133770000D01*
X112883740Y-133770000D01*
X112596842Y-133827068D01*
X112326589Y-133939010D01*
X112083368Y-134101525D01*
X111876525Y-134308368D01*
X111760000Y-134482760D01*
X111643475Y-134308368D01*
X111436632Y-134101525D01*
X111193411Y-133939010D01*
X110923158Y-133827068D01*
X110636260Y-133770000D01*
X110343740Y-133770000D01*
X110056842Y-133827068D01*
X109786589Y-133939010D01*
X109543368Y-134101525D01*
X109336525Y-134308368D01*
X109220000Y-134482760D01*
X109103475Y-134308368D01*
X108896632Y-134101525D01*
X108653411Y-133939010D01*
X108383158Y-133827068D01*
X108096260Y-133770000D01*
X107803740Y-133770000D01*
X107516842Y-133827068D01*
X107246589Y-133939010D01*
X107003368Y-134101525D01*
X106796525Y-134308368D01*
X106680000Y-134482760D01*
X106563475Y-134308368D01*
X106356632Y-134101525D01*
X106113411Y-133939010D01*
X105843158Y-133827068D01*
X105556260Y-133770000D01*
X105263740Y-133770000D01*
X104976842Y-133827068D01*
X104706589Y-133939010D01*
X104463368Y-134101525D01*
X104256525Y-134308368D01*
X104140000Y-134482760D01*
X104023475Y-134308368D01*
X103816632Y-134101525D01*
X103573411Y-133939010D01*
X103303158Y-133827068D01*
X103016260Y-133770000D01*
X102723740Y-133770000D01*
X102436842Y-133827068D01*
X102166589Y-133939010D01*
X101923368Y-134101525D01*
X101716525Y-134308368D01*
X101600000Y-134482760D01*
X101483475Y-134308368D01*
X101276632Y-134101525D01*
X101033411Y-133939010D01*
X100763158Y-133827068D01*
X100476260Y-133770000D01*
X100183740Y-133770000D01*
X99896842Y-133827068D01*
X99626589Y-133939010D01*
X99383368Y-134101525D01*
X99176525Y-134308368D01*
X99060000Y-134482760D01*
X98943475Y-134308368D01*
X98736632Y-134101525D01*
X98493411Y-133939010D01*
X98223158Y-133827068D01*
X97936260Y-133770000D01*
X97643740Y-133770000D01*
X97356842Y-133827068D01*
X97086589Y-133939010D01*
X96843368Y-134101525D01*
X96636525Y-134308368D01*
X96474010Y-134551589D01*
X96362068Y-134821842D01*
X96305000Y-135108740D01*
X96305000Y-135401260D01*
X96362068Y-135688158D01*
X96474010Y-135958411D01*
X96636525Y-136201632D01*
X96843368Y-136408475D01*
X97086589Y-136570990D01*
X97356842Y-136682932D01*
X97643740Y-136740000D01*
X97936260Y-136740000D01*
X98223158Y-136682932D01*
X98493411Y-136570990D01*
X98736632Y-136408475D01*
X98943475Y-136201632D01*
X99060000Y-136027240D01*
X99176525Y-136201632D01*
X99383368Y-136408475D01*
X99626589Y-136570990D01*
X99896842Y-136682932D01*
X100183740Y-136740000D01*
X100476260Y-136740000D01*
X100763158Y-136682932D01*
X101033411Y-136570990D01*
X101276632Y-136408475D01*
X101483475Y-136201632D01*
X101600000Y-136027240D01*
X101716525Y-136201632D01*
X101923368Y-136408475D01*
X102166589Y-136570990D01*
X102436842Y-136682932D01*
X102723740Y-136740000D01*
X103016260Y-136740000D01*
X103303158Y-136682932D01*
X103573411Y-136570990D01*
X103816632Y-136408475D01*
X104023475Y-136201632D01*
X104140000Y-136027240D01*
X104256525Y-136201632D01*
X104463368Y-136408475D01*
X104706589Y-136570990D01*
X104976842Y-136682932D01*
X105263740Y-136740000D01*
X105556260Y-136740000D01*
X105843158Y-136682932D01*
X106113411Y-136570990D01*
X106356632Y-136408475D01*
X106563475Y-136201632D01*
X106680000Y-136027240D01*
X106796525Y-136201632D01*
X106997500Y-136402607D01*
X106997501Y-141210461D01*
X103745462Y-144462500D01*
X86311784Y-144462500D01*
X86264999Y-144457892D01*
X86078277Y-144476283D01*
X85898731Y-144530748D01*
X85733259Y-144619194D01*
X85588222Y-144738222D01*
X85558393Y-144774569D01*
X80966903Y-149366059D01*
X80861033Y-149345000D01*
X80538967Y-149345000D01*
X80223088Y-149407832D01*
X79925537Y-149531082D01*
X79657748Y-149710013D01*
X79430013Y-149937748D01*
X79251082Y-150205537D01*
X79127832Y-150503088D01*
X79065000Y-150818967D01*
X77828219Y-150818967D01*
X77797961Y-150598325D01*
X77692795Y-150293912D01*
X77599814Y-150119956D01*
X77335413Y-150024192D01*
X76379605Y-150980000D01*
X76020395Y-150980000D01*
X75064587Y-150024192D01*
X74800186Y-150119956D01*
X74659296Y-150409571D01*
X74577616Y-150721108D01*
X74558282Y-151042595D01*
X64795000Y-151042595D01*
X64795000Y-149844587D01*
X75244192Y-149844587D01*
X76200000Y-150800395D01*
X77155808Y-149844587D01*
X77060044Y-149580186D01*
X76770429Y-149439296D01*
X76458892Y-149357616D01*
X76137405Y-149338282D01*
X75818325Y-149382039D01*
X75513912Y-149487205D01*
X75339956Y-149580186D01*
X75244192Y-149844587D01*
X64795000Y-149844587D01*
X64795000Y-144410000D01*
X70851928Y-144410000D01*
X70864188Y-144534482D01*
X70900498Y-144654180D01*
X70959463Y-144764494D01*
X71038815Y-144861185D01*
X71135506Y-144940537D01*
X71245820Y-144999502D01*
X71365518Y-145035812D01*
X71490000Y-145048072D01*
X72104250Y-145045000D01*
X72263000Y-144886250D01*
X72263000Y-143637000D01*
X72517000Y-143637000D01*
X72517000Y-144886250D01*
X72675750Y-145045000D01*
X73290000Y-145048072D01*
X73414482Y-145035812D01*
X73534180Y-144999502D01*
X73644494Y-144940537D01*
X73741185Y-144861185D01*
X73820537Y-144764494D01*
X73879502Y-144654180D01*
X73915812Y-144534482D01*
X73928072Y-144410000D01*
X73925000Y-143795750D01*
X73766250Y-143637000D01*
X72517000Y-143637000D01*
X72263000Y-143637000D01*
X71013750Y-143637000D01*
X70855000Y-143795750D01*
X70851928Y-144410000D01*
X64795000Y-144410000D01*
X64795000Y-142610000D01*
X70851928Y-142610000D01*
X70855000Y-143224250D01*
X71013750Y-143383000D01*
X72263000Y-143383000D01*
X72263000Y-143363000D01*
X72517000Y-143363000D01*
X72517000Y-143383000D01*
X73766250Y-143383000D01*
X73925000Y-143224250D01*
X73928072Y-142610000D01*
X73915812Y-142485518D01*
X73879502Y-142365820D01*
X73820537Y-142255506D01*
X73741185Y-142158815D01*
X73644494Y-142079463D01*
X73534180Y-142020498D01*
X73515873Y-142014944D01*
X73582312Y-141948505D01*
X73750299Y-141697095D01*
X73866011Y-141417743D01*
X73925000Y-141121184D01*
X73925000Y-140818816D01*
X73866011Y-140522257D01*
X73750299Y-140242905D01*
X73582312Y-139991495D01*
X73368505Y-139777688D01*
X73117095Y-139609701D01*
X72837743Y-139493989D01*
X72541184Y-139435000D01*
X72238816Y-139435000D01*
X71942257Y-139493989D01*
X71662905Y-139609701D01*
X71411495Y-139777688D01*
X71197688Y-139991495D01*
X71029701Y-140242905D01*
X70913989Y-140522257D01*
X70855000Y-140818816D01*
X70855000Y-141121184D01*
X70913989Y-141417743D01*
X71029701Y-141697095D01*
X71197688Y-141948505D01*
X71264127Y-142014944D01*
X71245820Y-142020498D01*
X71135506Y-142079463D01*
X71038815Y-142158815D01*
X70959463Y-142255506D01*
X70900498Y-142365820D01*
X70864188Y-142485518D01*
X70851928Y-142610000D01*
X64795000Y-142610000D01*
X64795000Y-130033665D01*
X77210000Y-130033665D01*
X77210000Y-130316335D01*
X77265147Y-130593574D01*
X77373320Y-130854727D01*
X77530363Y-131089759D01*
X77730241Y-131289637D01*
X77965273Y-131446680D01*
X78226426Y-131554853D01*
X78503665Y-131610000D01*
X78786335Y-131610000D01*
X79063574Y-131554853D01*
X79324727Y-131446680D01*
X79559759Y-131289637D01*
X79759637Y-131089759D01*
X79916680Y-130854727D01*
X80024853Y-130593574D01*
X80080000Y-130316335D01*
X80080000Y-130033665D01*
X80078041Y-130023816D01*
X81610000Y-130023816D01*
X81610000Y-130326184D01*
X81668989Y-130622743D01*
X81784701Y-130902095D01*
X81952688Y-131153505D01*
X82166495Y-131367312D01*
X82417905Y-131535299D01*
X82697257Y-131651011D01*
X82993816Y-131710000D01*
X83296184Y-131710000D01*
X83592743Y-131651011D01*
X83872095Y-131535299D01*
X84123505Y-131367312D01*
X84337312Y-131153505D01*
X84505299Y-130902095D01*
X84621011Y-130622743D01*
X84680000Y-130326184D01*
X84680000Y-130023816D01*
X84621011Y-129727257D01*
X84505299Y-129447905D01*
X84337312Y-129196495D01*
X84123505Y-128982688D01*
X83872095Y-128814701D01*
X83592743Y-128698989D01*
X83296184Y-128640000D01*
X82993816Y-128640000D01*
X82697257Y-128698989D01*
X82417905Y-128814701D01*
X82166495Y-128982688D01*
X81952688Y-129196495D01*
X81784701Y-129447905D01*
X81668989Y-129727257D01*
X81610000Y-130023816D01*
X80078041Y-130023816D01*
X80024853Y-129756426D01*
X79916680Y-129495273D01*
X79759637Y-129260241D01*
X79559759Y-129060363D01*
X79324727Y-128903320D01*
X79063574Y-128795147D01*
X78786335Y-128740000D01*
X78503665Y-128740000D01*
X78226426Y-128795147D01*
X77965273Y-128903320D01*
X77730241Y-129060363D01*
X77530363Y-129260241D01*
X77373320Y-129495273D01*
X77265147Y-129756426D01*
X77210000Y-130033665D01*
X64795000Y-130033665D01*
X64795000Y-65819872D01*
X66980000Y-65819872D01*
X66980000Y-66260128D01*
X67065890Y-66691925D01*
X67234369Y-67098669D01*
X67478962Y-67464729D01*
X67790271Y-67776038D01*
X68156331Y-68020631D01*
X68563075Y-68189110D01*
X68994872Y-68275000D01*
X69435128Y-68275000D01*
X69866925Y-68189110D01*
X70273669Y-68020631D01*
X70639729Y-67776038D01*
X70951038Y-67464729D01*
X71195631Y-67098669D01*
X71364110Y-66691925D01*
X71450000Y-66260128D01*
X71450000Y-65819872D01*
X71364110Y-65388075D01*
X71195631Y-64981331D01*
X70951038Y-64615271D01*
X70639729Y-64303962D01*
X70273669Y-64059369D01*
X69866925Y-63890890D01*
X69435128Y-63805000D01*
X68994872Y-63805000D01*
X68563075Y-63890890D01*
X68156331Y-64059369D01*
X67790271Y-64303962D01*
X67478962Y-64615271D01*
X67234369Y-64981331D01*
X67065890Y-65388075D01*
X66980000Y-65819872D01*
X64795000Y-65819872D01*
X64795000Y-62255000D01*
X77923319Y-62255000D01*
X77872532Y-62270406D01*
%TD*%
M02*
